# MagicaVoxel @ Ephtracy

# group
o 

# material
mtllib idle.mtl
usemtl palette

# normals
vn -1 0 0
vn 1 0 0
vn 0 0 1
vn 0 0 -1
vn 0 -1 0
vn 0 1 0

# texcoords
vt 0.00195313 0.5
vt 0.0332031 0.5
vt 0.279297 0.5
vt 0.865234 0.5
vt 0.970703 0.5
vt 0.978516 0.5
vt 0.982422 0.5
vt 0.994141 0.5

# verts
v -0.4 0.8 2.98023e-008
v -0.4 0.8 -0.1
v -0.4 0.9 -0.1
v -0.4 0.9 -0.2
v -0.4 1 0.1
v -0.4 1 2.98023e-008
v -0.4 1.1 0.1
v -0.4 1.1 2.98023e-008
v -0.4 1.1 -0.1
v -0.4 1.1 -0.2
v -0.4 1.2 2.98023e-008
v -0.4 1.2 -0.1
v -0.3 0.5 2.98023e-008
v -0.3 0.5 -0.2
v -0.3 0.6 0.1
v -0.3 0.6 2.98023e-008
v -0.3 0.6 -0.2
v -0.3 0.6 -0.3
v -0.3 0.7 0.2
v -0.3 0.7 0.1
v -0.3 0.7 2.98023e-008
v -0.3 0.7 -0.3
v -0.3 0.8 2.98023e-008
v -0.3 0.8 -0.1
v -0.3 0.9 -0.1
v -0.3 0.9 -0.2
v -0.3 1 0.1
v -0.3 1 2.98023e-008
v -0.3 1.1 0.2
v -0.3 1.1 0.1
v -0.3 1.1 2.98023e-008
v -0.3 1.1 -0.1
v -0.3 1.1 -0.2
v -0.3 1.2 0.1
v -0.3 1.2 2.98023e-008
v -0.3 1.2 -0.1
v -0.3 1.2 -0.2
v -0.3 1.2 -0.3
v -0.3 1.3 2.98023e-008
v -0.3 1.3 -0.2
v -0.2 0.2 0.1
v -0.2 0.2 2.98023e-008
v -0.2 0.2 -0.1
v -0.2 0.2 -0.2
v -0.2 0.3 0.1
v -0.2 0.3 2.98023e-008
v -0.2 0.3 -0.1
v -0.2 0.3 -0.2
v -0.2 0.4 0.1
v -0.2 0.4 2.98023e-008
v -0.2 0.4 -0.1
v -0.2 0.4 -0.2
v -0.2 0.5 0.1
v -0.2 0.5 2.98023e-008
v -0.2 0.5 -0.1
v -0.2 0.5 -0.2
v -0.2 0.6 0.3
v -0.2 0.6 0.1
v -0.2 0.6 2.98023e-008
v -0.2 0.7 0.3
v -0.2 0.7 0.2
v -0.2 0.7 0.1
v -0.2 0.7 -0.3
v -0.2 0.7 -0.4
v -0.2 0.8 0.3
v -0.2 0.8 0.2
v -0.2 1.1 0.3
v -0.2 1.1 0.2
v -0.2 1.1 0.1
v -0.2 1.2 0.2
v -0.2 1.2 0.1
v -0.2 1.2 2.98023e-008
v -0.2 1.2 -0.2
v -0.2 1.2 -0.3
v -0.2 1.2 -0.4
v -0.2 1.3 0.1
v -0.2 1.3 2.98023e-008
v -0.2 1.3 -0.2
v -0.2 1.3 -0.3
v -0.2 1.5 -0.2
v -0.2 1.5 -0.3
v -0.2 1.7 -0.2
v -0.2 1.7 -0.3
v -0.1 0.7 0.3
v -0.1 0.7 0.2
v -0.1 0.8 0.3
v -0.1 0.8 0.2
v -0.1 0.8 -0.4
v -0.1 0.8 -0.5
v -0.1 1.1 -0.4
v -0.1 1.1 -0.5
v -0.1 1.4 -0.1
v -0.1 1.4 -0.2
v -0.1 1.5 -0.2
v -0.1 1.6 -0.1
v -0.1 1.6 -0.2
v 0 1.3 2.98023e-008
v 0 1.3 -0.1
v 0 1.4 -0.1
v 0 1.5 2.98023e-008
v 0 1.5 -0.1
v 0.1 0.8 0.3
v 0.1 0.8 0.2
v 0.1 0.9 0.3
v 0.1 0.9 0.2
v 0.2 0.7 0.2
v 0.2 0.7 0.1
v 0.2 0.8 0.2
v 0.2 0.8 0.1
v 0.2 0.9 0.1
v 0.2 1 0.2
v 0.2 1 0.1
v -0.2 0.7 0.2
v -0.2 0.7 0.1
v -0.2 0.8 0.2
v -0.2 0.8 0.1
v -0.2 0.9 0.1
v -0.2 1 0.2
v -0.2 1 0.1
v -0.1 0.8 0.3
v -0.1 0.8 0.2
v -0.1 0.9 0.3
v -0.1 0.9 0.2
v -0.1 1.6 -0.2
v -0.1 1.6 -0.3
v -0.1 1.7 -0.2
v -0.1 1.7 -0.3
v 0 1.5 -0.1
v 0 1.5 -0.2
v 0 1.5 -0.3
v 0 1.6 -0.1
v 0 1.6 -0.3
v 0.1 0.7 0.3
v 0.1 0.7 0.2
v 0.1 0.8 0.3
v 0.1 0.8 0.2
v 0.1 0.8 -0.4
v 0.1 0.8 -0.5
v 0.1 1.1 -0.4
v 0.1 1.1 -0.5
v 0.1 1.3 2.98023e-008
v 0.1 1.3 -0.1
v 0.1 1.4 -0.1
v 0.1 1.4 -0.2
v 0.1 1.5 2.98023e-008
v 0.1 1.5 -0.2
v 0.2 0.2 0.1
v 0.2 0.2 2.98023e-008
v 0.2 0.2 -0.1
v 0.2 0.2 -0.2
v 0.2 0.3 0.1
v 0.2 0.3 2.98023e-008
v 0.2 0.3 -0.1
v 0.2 0.3 -0.2
v 0.2 0.4 0.1
v 0.2 0.4 2.98023e-008
v 0.2 0.4 -0.1
v 0.2 0.4 -0.2
v 0.2 0.5 0.1
v 0.2 0.5 2.98023e-008
v 0.2 0.5 -0.1
v 0.2 0.5 -0.2
v 0.2 0.6 0.3
v 0.2 0.6 0.1
v 0.2 0.6 2.98023e-008
v 0.2 0.7 0.3
v 0.2 0.7 0.2
v 0.2 0.7 0.1
v 0.2 0.7 -0.3
v 0.2 0.7 -0.4
v 0.2 0.8 0.3
v 0.2 0.8 0.2
v 0.2 1.1 0.3
v 0.2 1.1 0.2
v 0.2 1.1 0.1
v 0.2 1.2 0.2
v 0.2 1.2 0.1
v 0.2 1.2 2.98023e-008
v 0.2 1.2 -0.2
v 0.2 1.2 -0.3
v 0.2 1.2 -0.4
v 0.2 1.3 0.1
v 0.2 1.3 2.98023e-008
v 0.2 1.3 -0.2
v 0.2 1.3 -0.3
v 0.3 0.5 2.98023e-008
v 0.3 0.5 -0.2
v 0.3 0.6 0.1
v 0.3 0.6 2.98023e-008
v 0.3 0.6 -0.2
v 0.3 0.6 -0.3
v 0.3 0.7 0.2
v 0.3 0.7 0.1
v 0.3 0.7 2.98023e-008
v 0.3 0.7 -0.3
v 0.3 0.8 2.98023e-008
v 0.3 0.8 -0.1
v 0.3 0.9 -0.1
v 0.3 0.9 -0.2
v 0.3 1 0.1
v 0.3 1 2.98023e-008
v 0.3 1.1 0.2
v 0.3 1.1 0.1
v 0.3 1.1 2.98023e-008
v 0.3 1.1 -0.1
v 0.3 1.1 -0.2
v 0.3 1.2 0.1
v 0.3 1.2 2.98023e-008
v 0.3 1.2 -0.1
v 0.3 1.2 -0.2
v 0.3 1.2 -0.3
v 0.3 1.3 2.98023e-008
v 0.3 1.3 -0.2
v 0.4 0.8 2.98023e-008
v 0.4 0.8 -0.1
v 0.4 0.9 -0.1
v 0.4 0.9 -0.2
v 0.4 1 0.1
v 0.4 1 2.98023e-008
v 0.4 1.1 0.1
v 0.4 1.1 2.98023e-008
v 0.4 1.1 -0.1
v 0.4 1.1 -0.2
v 0.4 1.2 2.98023e-008
v 0.4 1.2 -0.1
v -0.2 0.6 0.3
v -0.2 0.7 0.3
v -0.2 0.8 0.3
v -0.2 1.1 0.3
v -0.1 0.7 0.3
v -0.1 0.8 0.3
v -0.1 0.9 0.3
v 0.1 0.7 0.3
v 0.1 0.8 0.3
v 0.1 0.9 0.3
v 0.2 0.6 0.3
v 0.2 0.7 0.3
v 0.2 0.8 0.3
v 0.2 1.1 0.3
v -0.3 0.7 0.2
v -0.3 1.1 0.2
v -0.2 0.7 0.2
v -0.2 0.8 0.2
v -0.2 1.1 0.2
v -0.2 1.2 0.2
v 0.2 0.7 0.2
v 0.2 0.8 0.2
v 0.2 1.1 0.2
v 0.2 1.2 0.2
v 0.3 0.7 0.2
v 0.3 1.1 0.2
v -0.4 1 0.1
v -0.4 1.1 0.1
v -0.3 0.6 0.1
v -0.3 0.7 0.1
v -0.3 1 0.1
v -0.3 1.1 0.1
v -0.3 1.2 0.1
v -0.2 0.2 0.1
v -0.2 0.3 0.1
v -0.2 0.4 0.1
v -0.2 0.5 0.1
v -0.2 0.6 0.1
v -0.2 0.7 0.1
v -0.2 0.8 0.1
v -0.2 0.9 0.1
v -0.2 1 0.1
v -0.2 1.1 0.1
v -0.2 1.2 0.1
v -0.2 1.3 0.1
v -0.1 0.2 0.1
v -0.1 0.3 0.1
v -0.1 0.4 0.1
v -0.1 0.5 0.1
v -0.1 0.8 0.1
v -0.1 0.9 0.1
v 0 0.2 0.1
v 0 0.3 0.1
v 0 0.4 0.1
v 0 0.5 0.1
v 0 0.6 0.1
v 0.1 0.8 0.1
v 0.1 0.9 0.1
v 0.2 0.2 0.1
v 0.2 0.3 0.1
v 0.2 0.4 0.1
v 0.2 0.5 0.1
v 0.2 0.6 0.1
v 0.2 0.7 0.1
v 0.2 0.8 0.1
v 0.2 0.9 0.1
v 0.2 1 0.1
v 0.2 1.1 0.1
v 0.2 1.2 0.1
v 0.2 1.3 0.1
v 0.3 0.6 0.1
v 0.3 0.7 0.1
v 0.3 1 0.1
v 0.3 1.1 0.1
v 0.3 1.2 0.1
v 0.4 1 0.1
v 0.4 1.1 0.1
v -0.4 0.8 2.98023e-008
v -0.4 1 2.98023e-008
v -0.4 1.1 2.98023e-008
v -0.4 1.2 2.98023e-008
v -0.3 0.5 2.98023e-008
v -0.3 0.6 2.98023e-008
v -0.3 0.8 2.98023e-008
v -0.3 1 2.98023e-008
v -0.3 1.1 2.98023e-008
v -0.3 1.2 2.98023e-008
v -0.3 1.3 2.98023e-008
v -0.2 0.5 2.98023e-008
v -0.2 0.6 2.98023e-008
v -0.2 1.2 2.98023e-008
v -0.2 1.3 2.98023e-008
v 0 1.3 2.98023e-008
v 0 1.5 2.98023e-008
v 0.1 1.3 2.98023e-008
v 0.1 1.5 2.98023e-008
v 0.2 0.5 2.98023e-008
v 0.2 0.6 2.98023e-008
v 0.2 1.2 2.98023e-008
v 0.2 1.3 2.98023e-008
v 0.3 0.5 2.98023e-008
v 0.3 0.6 2.98023e-008
v 0.3 0.8 2.98023e-008
v 0.3 1 2.98023e-008
v 0.3 1.1 2.98023e-008
v 0.3 1.2 2.98023e-008
v 0.3 1.3 2.98023e-008
v 0.4 0.8 2.98023e-008
v 0.4 1 2.98023e-008
v 0.4 1.1 2.98023e-008
v 0.4 1.2 2.98023e-008
v -0.1 1.4 -0.1
v -0.1 1.6 -0.1
v 0 1.4 -0.1
v 0 1.5 -0.1
v 0 1.6 -0.1
v -0.2 1.5 -0.2
v -0.2 1.7 -0.2
v -0.1 1.5 -0.2
v -0.1 1.6 -0.2
v -0.1 1.7 -0.2
v -0.2 0.8 0.2
v -0.2 1 0.2
v -0.1 0.7 0.2
v -0.1 0.8 0.2
v -0.1 0.9 0.2
v 0.1 0.7 0.2
v 0.1 0.8 0.2
v 0.1 0.9 0.2
v 0.2 0.8 0.2
v 0.2 1 0.2
v -0.4 0.8 -0.1
v -0.4 0.9 -0.1
v -0.4 1.1 -0.1
v -0.4 1.2 -0.1
v -0.3 0.8 -0.1
v -0.3 0.9 -0.1
v -0.3 1.1 -0.1
v -0.3 1.2 -0.1
v 0 1.3 -0.1
v 0 1.4 -0.1
v 0.1 1.3 -0.1
v 0.1 1.4 -0.1
v 0.3 0.8 -0.1
v 0.3 0.9 -0.1
v 0.3 1.1 -0.1
v 0.3 1.2 -0.1
v 0.4 0.8 -0.1
v 0.4 0.9 -0.1
v 0.4 1.1 -0.1
v 0.4 1.2 -0.1
v -0.4 0.9 -0.2
v -0.4 1.1 -0.2
v -0.3 0.5 -0.2
v -0.3 0.6 -0.2
v -0.3 0.9 -0.2
v -0.3 1.1 -0.2
v -0.3 1.2 -0.2
v -0.3 1.3 -0.2
v -0.2 0.2 -0.2
v -0.2 0.3 -0.2
v -0.2 0.4 -0.2
v -0.2 0.5 -0.2
v -0.2 0.6 -0.2
v -0.2 1.2 -0.2
v -0.2 1.3 -0.2
v -0.1 1.4 -0.2
v -0.1 1.5 -0.2
v 0 1.5 -0.2
v 0.1 1.4 -0.2
v 0.1 1.5 -0.2
v 0.2 0.2 -0.2
v 0.2 0.3 -0.2
v 0.2 0.4 -0.2
v 0.2 0.5 -0.2
v 0.2 0.6 -0.2
v 0.2 1.2 -0.2
v 0.2 1.3 -0.2
v 0.3 0.5 -0.2
v 0.3 0.6 -0.2
v 0.3 0.9 -0.2
v 0.3 1.1 -0.2
v 0.3 1.2 -0.2
v 0.3 1.3 -0.2
v 0.4 0.9 -0.2
v 0.4 1.1 -0.2
v -0.3 0.6 -0.3
v -0.3 0.7 -0.3
v -0.3 1.2 -0.3
v -0.2 0.7 -0.3
v -0.2 1.2 -0.3
v -0.2 1.3 -0.3
v -0.2 1.5 -0.3
v -0.2 1.7 -0.3
v -0.1 1.6 -0.3
v -0.1 1.7 -0.3
v 0 1.5 -0.3
v 0 1.6 -0.3
v 0.2 0.7 -0.3
v 0.2 1.2 -0.3
v 0.2 1.3 -0.3
v 0.3 0.6 -0.3
v 0.3 0.7 -0.3
v 0.3 1.2 -0.3
v -0.2 0.7 -0.4
v -0.2 1.2 -0.4
v -0.1 0.8 -0.4
v -0.1 1.1 -0.4
v 0.1 0.8 -0.4
v 0.1 1.1 -0.4
v 0.2 0.7 -0.4
v 0.2 1.2 -0.4
v -0.1 0.8 -0.5
v -0.1 1.1 -0.5
v 0.1 0.8 -0.5
v 0.1 1.1 -0.5
v -0.2 0.2 0.1
v -0.1 0.2 0.1
v 0 0.2 0.1
v 0.2 0.2 0.1
v -0.2 0.2 2.98023e-008
v -0.1 0.2 2.98023e-008
v 0 0.2 2.98023e-008
v 0.1 0.2 2.98023e-008
v 0.2 0.2 2.98023e-008
v -0.2 0.2 -0.1
v -0.1 0.2 -0.1
v 0.1 0.2 -0.1
v 0.2 0.2 -0.1
v -0.2 0.2 -0.2
v 0.2 0.2 -0.2
v -0.3 0.5 2.98023e-008
v -0.2 0.5 2.98023e-008
v 0.2 0.5 2.98023e-008
v 0.3 0.5 2.98023e-008
v -0.2 0.5 -0.1
v 0.2 0.5 -0.1
v -0.3 0.5 -0.2
v -0.2 0.5 -0.2
v 0.2 0.5 -0.2
v 0.3 0.5 -0.2
v -0.2 0.6 0.3
v 0.2 0.6 0.3
v -0.3 0.6 0.1
v -0.2 0.6 0.1
v 0 0.6 0.1
v 0.2 0.6 0.1
v 0.3 0.6 0.1
v -0.3 0.6 2.98023e-008
v -0.2 0.6 2.98023e-008
v 0.2 0.6 2.98023e-008
v 0.3 0.6 2.98023e-008
v -0.3 0.6 -0.2
v -0.2 0.6 -0.2
v 0.2 0.6 -0.2
v 0.3 0.6 -0.2
v -0.3 0.6 -0.3
v 0.3 0.6 -0.3
v -0.3 0.7 0.2
v -0.2 0.7 0.2
v 0.2 0.7 0.2
v 0.3 0.7 0.2
v -0.3 0.7 0.1
v -0.2 0.7 0.1
v 0.2 0.7 0.1
v 0.3 0.7 0.1
v -0.2 0.7 -0.3
v 0.2 0.7 -0.3
v -0.2 0.7 -0.4
v 0.2 0.7 -0.4
v -0.2 0.8 0.3
v -0.1 0.8 0.3
v 0.1 0.8 0.3
v 0.2 0.8 0.3
v -0.2 0.8 0.2
v -0.1 0.8 0.2
v 0.1 0.8 0.2
v 0.2 0.8 0.2
v -0.4 0.8 2.98023e-008
v -0.3 0.8 2.98023e-008
v 0.3 0.8 2.98023e-008
v 0.4 0.8 2.98023e-008
v -0.4 0.8 -0.1
v -0.3 0.8 -0.1
v 0.3 0.8 -0.1
v 0.4 0.8 -0.1
v -0.1 0.8 -0.4
v 0.1 0.8 -0.4
v -0.1 0.8 -0.5
v 0.1 0.8 -0.5
v -0.1 0.9 0.3
v 0.1 0.9 0.3
v -0.1 0.9 0.2
v 0.1 0.9 0.2
v -0.4 0.9 -0.1
v -0.3 0.9 -0.1
v 0.3 0.9 -0.1
v 0.4 0.9 -0.1
v -0.4 0.9 -0.2
v -0.3 0.9 -0.2
v 0.3 0.9 -0.2
v 0.4 0.9 -0.2
v -0.2 1 0.2
v 0.2 1 0.2
v -0.4 1 0.1
v -0.3 1 0.1
v -0.2 1 0.1
v 0.2 1 0.1
v 0.3 1 0.1
v 0.4 1 0.1
v -0.4 1 2.98023e-008
v -0.3 1 2.98023e-008
v 0.3 1 2.98023e-008
v 0.4 1 2.98023e-008
v -0.1 1.4 -0.1
v 0 1.4 -0.1
v 0.1 1.4 -0.1
v -0.1 1.4 -0.2
v 0.1 1.4 -0.2
v -0.2 1.5 -0.2
v -0.1 1.5 -0.2
v 0 1.5 -0.2
v -0.2 1.5 -0.3
v 0 1.5 -0.3
v -0.2 0.7 0.3
v -0.1 0.7 0.3
v 0.1 0.7 0.3
v 0.2 0.7 0.3
v -0.2 0.7 0.2
v -0.1 0.7 0.2
v 0.1 0.7 0.2
v 0.2 0.7 0.2
v -0.2 0.7 0.1
v 0.2 0.7 0.1
v -0.1 0.8 0.3
v 0.1 0.8 0.3
v -0.1 0.8 0.2
v 0.1 0.8 0.2
v -0.2 1.1 0.3
v 0.2 1.1 0.3
v -0.3 1.1 0.2
v -0.2 1.1 0.2
v 0.2 1.1 0.2
v 0.3 1.1 0.2
v -0.4 1.1 0.1
v -0.3 1.1 0.1
v -0.2 1.1 0.1
v 0.2 1.1 0.1
v 0.3 1.1 0.1
v 0.4 1.1 0.1
v -0.4 1.1 2.98023e-008
v -0.3 1.1 2.98023e-008
v 0.3 1.1 2.98023e-008
v 0.4 1.1 2.98023e-008
v -0.4 1.1 -0.1
v -0.3 1.1 -0.1
v 0.3 1.1 -0.1
v 0.4 1.1 -0.1
v -0.4 1.1 -0.2
v -0.3 1.1 -0.2
v 0.3 1.1 -0.2
v 0.4 1.1 -0.2
v -0.1 1.1 -0.4
v 0.1 1.1 -0.4
v -0.1 1.1 -0.5
v 0.1 1.1 -0.5
v -0.2 1.2 0.2
v 0.2 1.2 0.2
v -0.3 1.2 0.1
v -0.2 1.2 0.1
v 0.2 1.2 0.1
v 0.3 1.2 0.1
v -0.4 1.2 2.98023e-008
v -0.3 1.2 2.98023e-008
v -0.2 1.2 2.98023e-008
v 0.2 1.2 2.98023e-008
v 0.3 1.2 2.98023e-008
v 0.4 1.2 2.98023e-008
v -0.4 1.2 -0.1
v -0.3 1.2 -0.1
v 0.3 1.2 -0.1
v 0.4 1.2 -0.1
v -0.3 1.2 -0.2
v -0.2 1.2 -0.2
v 0.2 1.2 -0.2
v 0.3 1.2 -0.2
v -0.3 1.2 -0.3
v -0.2 1.2 -0.3
v 0.2 1.2 -0.3
v 0.3 1.2 -0.3
v -0.2 1.2 -0.4
v 0.2 1.2 -0.4
v -0.2 1.3 0.1
v 0.2 1.3 0.1
v -0.3 1.3 2.98023e-008
v -0.2 1.3 2.98023e-008
v 0 1.3 2.98023e-008
v 0.1 1.3 2.98023e-008
v 0.2 1.3 2.98023e-008
v 0.3 1.3 2.98023e-008
v 0 1.3 -0.1
v 0.1 1.3 -0.1
v -0.3 1.3 -0.2
v -0.2 1.3 -0.2
v 0.2 1.3 -0.2
v 0.3 1.3 -0.2
v -0.2 1.3 -0.3
v 0.2 1.3 -0.3
v 0 1.5 2.98023e-008
v 0.1 1.5 2.98023e-008
v 0 1.5 -0.1
v 0 1.5 -0.2
v 0.1 1.5 -0.2
v -0.1 1.6 -0.1
v 0 1.6 -0.1
v -0.1 1.6 -0.2
v -0.1 1.6 -0.3
v 0 1.6 -0.3
v -0.2 1.7 -0.2
v -0.1 1.7 -0.2
v -0.2 1.7 -0.3
v -0.1 1.7 -0.3

# faces
f 3/5/1 2/5/1 1/5/1
f 6/5/1 3/5/1 1/5/1
f 6/5/1 4/5/1 3/5/1
f 7/5/1 6/5/1 5/5/1
f 8/5/1 4/5/1 6/5/1
f 8/5/1 6/5/1 7/5/1
f 9/5/1 4/5/1 8/5/1
f 10/5/1 4/5/1 9/5/1
f 11/5/1 9/5/1 8/5/1
f 12/5/1 9/5/1 11/5/1
f 16/1/1 14/1/1 13/1/1
f 17/1/1 14/1/1 16/1/1
f 20/5/1 16/5/1 15/5/1
f 21/1/1 18/1/1 17/1/1
f 21/1/1 17/1/1 16/1/1
f 21/5/1 16/5/1 20/5/1
f 22/1/1 18/1/1 21/1/1
f 23/5/1 20/5/1 19/5/1
f 23/5/1 21/5/1 20/5/1
f 23/5/1 22/5/1 21/5/1
f 24/5/1 22/5/1 23/5/1
f 25/5/1 22/5/1 24/5/1
f 26/5/1 22/5/1 25/5/1
f 27/5/1 23/5/1 19/5/1
f 28/5/1 23/5/1 27/5/1
f 29/5/1 27/5/1 19/5/1
f 30/5/1 27/5/1 29/5/1
f 33/5/1 22/5/1 26/5/1
f 34/5/1 31/5/1 30/5/1
f 35/5/1 31/5/1 34/5/1
f 36/5/1 33/5/1 32/5/1
f 37/5/1 22/5/1 33/5/1
f 37/5/1 33/5/1 36/5/1
f 38/5/1 22/5/1 37/5/1
f 39/5/1 36/5/1 35/5/1
f 39/5/1 37/5/1 36/5/1
f 40/5/1 37/5/1 39/5/1
f 45/4/1 42/4/1 41/4/1
f 46/5/1 43/5/1 42/5/1
f 46/4/1 42/4/1 45/4/1
f 47/4/1 44/4/1 43/4/1
f 47/5/1 43/5/1 46/5/1
f 48/4/1 44/4/1 47/4/1
f 49/6/1 46/6/1 45/6/1
f 50/5/1 47/5/1 46/5/1
f 50/6/1 46/6/1 49/6/1
f 51/6/1 48/6/1 47/6/1
f 51/5/1 47/5/1 50/5/1
f 52/6/1 48/6/1 51/6/1
f 53/1/1 50/1/1 49/1/1
f 54/5/1 51/5/1 50/5/1
f 54/1/1 50/1/1 53/1/1
f 55/4/1 52/4/1 51/4/1
f 55/5/1 51/5/1 54/5/1
f 56/4/1 52/4/1 55/4/1
f 58/5/1 54/5/1 53/5/1
f 59/5/1 54/5/1 58/5/1
f 60/5/1 58/5/1 57/5/1
f 61/5/1 58/5/1 60/5/1
f 62/5/1 58/5/1 61/5/1
f 67/5/1 66/5/1 65/5/1
f 68/5/1 66/5/1 67/5/1
f 70/5/1 69/5/1 68/5/1
f 71/5/1 69/5/1 70/5/1
f 74/5/1 64/5/1 63/5/1
f 75/5/1 64/5/1 74/5/1
f 76/5/1 72/5/1 71/5/1
f 77/5/1 72/5/1 76/5/1
f 78/5/1 74/5/1 73/5/1
f 79/5/1 74/5/1 78/5/1
f 82/4/1 81/4/1 80/4/1
f 83/4/1 81/4/1 82/4/1
f 86/5/1 85/5/1 84/5/1
f 87/5/1 85/5/1 86/5/1
f 90/5/1 89/5/1 88/5/1
f 91/5/1 89/5/1 90/5/1
f 94/4/1 93/4/1 92/4/1
f 95/4/1 94/4/1 92/4/1
f 96/4/1 94/4/1 95/4/1
f 99/4/1 98/4/1 97/4/1
f 100/4/1 99/4/1 97/4/1
f 101/4/1 99/4/1 100/4/1
f 104/5/1 103/5/1 102/5/1
f 105/5/1 103/5/1 104/5/1
f 108/5/1 107/5/1 106/5/1
f 109/5/1 107/5/1 108/5/1
f 110/5/1 109/5/1 108/5/1
f 111/5/1 110/5/1 108/5/1
f 112/5/1 110/5/1 111/5/1
f 113/5/2 114/5/2 115/5/2
f 115/5/2 114/5/2 116/5/2
f 115/5/2 116/5/2 117/5/2
f 115/5/2 117/5/2 118/5/2
f 118/5/2 117/5/2 119/5/2
f 120/5/2 121/5/2 122/5/2
f 122/5/2 121/5/2 123/5/2
f 124/4/2 125/4/2 126/4/2
f 126/4/2 125/4/2 127/4/2
f 128/4/2 129/4/2 131/4/2
f 129/4/2 130/4/2 131/4/2
f 131/4/2 130/4/2 132/4/2
f 133/5/2 134/5/2 135/5/2
f 135/5/2 134/5/2 136/5/2
f 137/5/2 138/5/2 139/5/2
f 139/5/2 138/5/2 140/5/2
f 141/4/2 142/4/2 143/4/2
f 141/4/2 143/4/2 145/4/2
f 143/4/2 144/4/2 145/4/2
f 145/4/2 144/4/2 146/4/2
f 147/4/2 148/4/2 151/4/2
f 148/5/2 149/5/2 152/5/2
f 151/4/2 148/4/2 152/4/2
f 149/4/2 150/4/2 153/4/2
f 152/5/2 149/5/2 153/5/2
f 153/4/2 150/4/2 154/4/2
f 151/7/2 152/7/2 155/7/2
f 152/5/2 153/5/2 156/5/2
f 155/7/2 152/7/2 156/7/2
f 153/6/2 154/6/2 157/6/2
f 156/5/2 153/5/2 157/5/2
f 157/6/2 154/6/2 158/6/2
f 155/4/2 156/4/2 159/4/2
f 156/5/2 157/5/2 160/5/2
f 159/4/2 156/4/2 160/4/2
f 157/4/2 158/4/2 161/4/2
f 160/5/2 157/5/2 161/5/2
f 161/4/2 158/4/2 162/4/2
f 159/3/2 160/3/2 164/3/2
f 164/3/2 160/3/2 165/3/2
f 163/5/2 164/5/2 166/5/2
f 166/5/2 164/5/2 167/5/2
f 167/5/2 164/5/2 168/5/2
f 171/5/2 172/5/2 173/5/2
f 173/5/2 172/5/2 174/5/2
f 174/5/2 175/5/2 176/5/2
f 176/5/2 175/5/2 177/5/2
f 169/5/2 170/5/2 180/5/2
f 180/5/2 170/5/2 181/5/2
f 177/5/2 178/5/2 182/5/2
f 182/5/2 178/5/2 183/5/2
f 179/5/2 180/5/2 184/5/2
f 184/5/2 180/5/2 185/5/2
f 186/1/2 187/1/2 189/1/2
f 189/1/2 187/1/2 190/1/2
f 188/5/2 189/5/2 193/5/2
f 190/1/2 191/1/2 194/1/2
f 189/1/2 190/1/2 194/1/2
f 193/5/2 189/5/2 194/5/2
f 194/1/2 191/1/2 195/1/2
f 192/5/2 193/5/2 196/5/2
f 193/5/2 194/5/2 196/5/2
f 194/5/2 195/5/2 196/5/2
f 196/5/2 195/5/2 197/5/2
f 197/5/2 195/5/2 198/5/2
f 198/5/2 195/5/2 199/5/2
f 192/5/2 196/5/2 200/5/2
f 200/5/2 196/5/2 201/5/2
f 192/5/2 200/5/2 202/5/2
f 202/5/2 200/5/2 203/5/2
f 199/5/2 195/5/2 206/5/2
f 203/5/2 204/5/2 207/5/2
f 207/5/2 204/5/2 208/5/2
f 205/5/2 206/5/2 209/5/2
f 206/5/2 195/5/2 210/5/2
f 209/5/2 206/5/2 210/5/2
f 210/5/2 195/5/2 211/5/2
f 208/5/2 209/5/2 212/5/2
f 209/5/2 210/5/2 212/5/2
f 212/5/2 210/5/2 213/5/2
f 214/5/2 215/5/2 216/5/2
f 214/5/2 216/5/2 219/5/2
f 216/5/2 217/5/2 219/5/2
f 218/5/2 219/5/2 220/5/2
f 219/5/2 217/5/2 221/5/2
f 220/5/2 219/5/2 221/5/2
f 221/5/2 217/5/2 222/5/2
f 222/5/2 217/5/2 223/5/2
f 221/5/2 222/5/2 224/5/2
f 224/5/2 222/5/2 225/5/2
f 230/5/3 227/5/3 226/5/3
f 231/5/3 229/5/3 228/5/3
f 232/5/3 229/5/3 231/5/3
f 233/5/3 230/5/3 226/5/3
f 233/5/3 231/5/3 230/5/3
f 234/5/3 231/5/3 233/5/3
f 235/5/3 229/5/3 232/5/3
f 236/5/3 233/5/3 226/5/3
f 237/5/3 233/5/3 236/5/3
f 238/5/3 235/5/3 234/5/3
f 239/5/3 229/5/3 235/5/3
f 239/5/3 235/5/3 238/5/3
f 242/5/3 241/5/3 240/5/3
f 243/5/3 241/5/3 242/5/3
f 244/5/3 241/5/3 243/5/3
f 248/5/3 245/5/3 244/5/3
f 249/5/3 245/5/3 248/5/3
f 250/5/3 247/5/3 246/5/3
f 250/5/3 248/5/3 247/5/3
f 251/5/3 248/5/3 250/5/3
f 256/5/3 253/5/3 252/5/3
f 257/5/3 253/5/3 256/5/3
f 263/5/3 255/5/3 254/5/3
f 264/5/3 255/5/3 263/5/3
f 268/5/3 258/5/3 257/5/3
f 269/5/3 258/5/3 268/5/3
f 271/4/3 260/4/3 259/4/3
f 272/6/3 261/6/3 260/6/3
f 272/4/3 260/4/3 271/4/3
f 273/1/3 262/1/3 261/1/3
f 273/6/3 261/6/3 272/6/3
f 274/5/3 263/5/3 262/5/3
f 274/1/3 262/1/3 273/1/3
f 275/2/3 265/2/3 264/2/3
f 275/8/3 266/8/3 265/8/3
f 276/5/3 267/5/3 266/5/3
f 276/8/3 266/8/3 275/8/3
f 277/1/3 272/1/3 271/1/3
f 277/1/3 273/1/3 272/1/3
f 278/1/3 273/1/3 277/1/3
f 279/4/3 274/4/3 273/4/3
f 279/1/3 273/1/3 278/1/3
f 280/5/3 263/5/3 274/5/3
f 280/4/3 274/4/3 279/4/3
f 281/5/3 263/5/3 280/5/3
f 282/2/3 275/2/3 264/2/3
f 282/2/3 276/2/3 275/2/3
f 283/5/3 267/5/3 276/5/3
f 283/2/3 276/2/3 282/2/3
f 284/4/3 278/4/3 277/4/3
f 285/7/3 279/7/3 278/7/3
f 285/4/3 278/4/3 284/4/3
f 286/4/3 280/4/3 279/4/3
f 286/7/3 279/7/3 285/7/3
f 287/3/3 281/3/3 280/3/3
f 287/4/3 280/4/3 286/4/3
f 288/3/3 281/3/3 287/3/3
f 289/2/3 282/2/3 264/2/3
f 290/8/3 283/8/3 282/8/3
f 290/2/3 282/2/3 289/2/3
f 291/5/3 267/5/3 283/5/3
f 291/8/3 283/8/3 290/8/3
f 292/5/3 267/5/3 291/5/3
f 294/5/3 270/5/3 269/5/3
f 295/5/3 270/5/3 294/5/3
f 296/5/3 289/5/3 288/5/3
f 297/5/3 289/5/3 296/5/3
f 299/5/3 294/5/3 293/5/3
f 300/5/3 294/5/3 299/5/3
f 301/5/3 299/5/3 298/5/3
f 302/5/3 299/5/3 301/5/3
f 309/5/3 304/5/3 303/5/3
f 310/5/3 304/5/3 309/5/3
f 311/5/3 306/5/3 305/5/3
f 312/5/3 306/5/3 311/5/3
f 314/1/3 308/1/3 307/1/3
f 315/1/3 308/1/3 314/1/3
f 316/5/3 313/5/3 312/5/3
f 317/5/3 313/5/3 316/5/3
f 320/4/3 319/4/3 318/4/3
f 321/4/3 319/4/3 320/4/3
f 326/1/3 323/1/3 322/1/3
f 327/1/3 323/1/3 326/1/3
f 331/5/3 325/5/3 324/5/3
f 332/5/3 325/5/3 331/5/3
f 333/5/3 329/5/3 328/5/3
f 334/5/3 329/5/3 333/5/3
f 335/5/3 331/5/3 330/5/3
f 336/5/3 331/5/3 335/5/3
f 339/4/3 338/4/3 337/4/3
f 340/4/3 338/4/3 339/4/3
f 341/4/3 338/4/3 340/4/3
f 344/4/3 343/4/3 342/4/3
f 345/4/3 343/4/3 344/4/3
f 346/4/3 343/4/3 345/4/3
f 347/5/4 348/5/4 350/5/4
f 350/5/4 348/5/4 351/5/4
f 349/5/4 350/5/4 352/5/4
f 352/5/4 350/5/4 353/5/4
f 351/5/4 348/5/4 354/5/4
f 353/5/4 354/5/4 355/5/4
f 354/5/4 348/5/4 356/5/4
f 355/5/4 354/5/4 356/5/4
f 357/5/4 358/5/4 361/5/4
f 361/5/4 358/5/4 362/5/4
f 359/5/4 360/5/4 363/5/4
f 363/5/4 360/5/4 364/5/4
f 365/4/4 366/4/4 367/4/4
f 367/4/4 366/4/4 368/4/4
f 369/5/4 370/5/4 373/5/4
f 373/5/4 370/5/4 374/5/4
f 371/5/4 372/5/4 375/5/4
f 375/5/4 372/5/4 376/5/4
f 377/5/4 378/5/4 381/5/4
f 381/5/4 378/5/4 382/5/4
f 379/1/4 380/1/4 388/1/4
f 388/1/4 380/1/4 389/1/4
f 383/5/4 384/5/4 390/5/4
f 390/5/4 384/5/4 391/5/4
f 392/4/4 393/4/4 394/4/4
f 392/4/4 394/4/4 395/4/4
f 395/4/4 394/4/4 396/4/4
f 385/4/4 386/4/4 397/4/4
f 386/6/4 387/6/4 398/6/4
f 397/4/4 386/4/4 398/4/4
f 387/4/4 388/4/4 399/4/4
f 398/6/4 387/6/4 399/6/4
f 388/5/4 389/5/4 400/5/4
f 399/4/4 388/4/4 400/4/4
f 400/5/4 389/5/4 401/5/4
f 400/1/4 401/1/4 404/1/4
f 404/1/4 401/1/4 405/1/4
f 402/5/4 403/5/4 408/5/4
f 408/5/4 403/5/4 409/5/4
f 406/5/4 407/5/4 410/5/4
f 410/5/4 407/5/4 411/5/4
f 412/1/4 413/1/4 415/1/4
f 413/5/4 414/5/4 415/5/4
f 415/5/4 414/5/4 416/5/4
f 418/4/4 419/4/4 420/4/4
f 420/4/4 419/4/4 421/4/4
f 418/4/4 420/4/4 422/4/4
f 422/4/4 420/4/4 423/4/4
f 412/1/4 415/1/4 424/1/4
f 416/5/4 417/5/4 425/5/4
f 425/5/4 417/5/4 426/5/4
f 412/1/4 424/1/4 427/1/4
f 424/5/4 425/5/4 428/5/4
f 427/1/4 424/1/4 428/1/4
f 428/5/4 425/5/4 429/5/4
f 430/5/4 431/5/4 432/5/4
f 432/5/4 431/5/4 433/5/4
f 430/5/4 432/5/4 434/5/4
f 433/5/4 431/5/4 435/5/4
f 430/5/4 434/5/4 436/5/4
f 434/5/4 435/5/4 436/5/4
f 435/5/4 431/5/4 437/5/4
f 436/5/4 435/5/4 437/5/4
f 438/5/4 439/5/4 440/5/4
f 440/5/4 439/5/4 441/5/4
f 446/4/5 443/4/5 442/4/5
f 447/1/5 444/1/5 443/1/5
f 447/4/5 443/4/5 446/4/5
f 448/4/5 445/4/5 444/4/5
f 448/1/5 444/1/5 447/1/5
f 449/4/5 445/4/5 448/4/5
f 450/4/5 445/4/5 449/4/5
f 451/5/5 447/5/5 446/5/5
f 452/4/5 448/4/5 447/4/5
f 452/5/5 447/5/5 451/5/5
f 452/4/5 449/4/5 448/4/5
f 453/5/5 450/5/5 449/5/5
f 453/4/5 449/4/5 452/4/5
f 454/5/5 450/5/5 453/5/5
f 455/4/5 452/4/5 451/4/5
f 455/4/5 453/4/5 452/4/5
f 455/4/5 454/4/5 453/4/5
f 456/4/5 454/4/5 455/4/5
f 461/1/5 458/1/5 457/1/5
f 462/1/5 460/1/5 459/1/5
f 463/1/5 461/1/5 457/1/5
f 464/1/5 461/1/5 463/1/5
f 465/1/5 460/1/5 462/1/5
f 466/1/5 460/1/5 465/1/5
f 470/5/5 468/5/5 467/5/5
f 471/5/5 468/5/5 470/5/5
f 472/5/5 468/5/5 471/5/5
f 474/5/5 470/5/5 469/5/5
f 475/5/5 470/5/5 474/5/5
f 476/5/5 473/5/5 472/5/5
f 477/5/5 473/5/5 476/5/5
f 482/1/5 479/1/5 478/1/5
f 482/1/5 481/1/5 480/1/5
f 482/1/5 480/1/5 479/1/5
f 483/1/5 481/1/5 482/1/5
f 488/5/5 485/5/5 484/5/5
f 489/5/5 485/5/5 488/5/5
f 490/5/5 487/5/5 486/5/5
f 491/5/5 487/5/5 490/5/5
f 494/5/5 493/5/5 492/5/5
f 495/5/5 493/5/5 494/5/5
f 500/5/5 497/5/5 496/5/5
f 501/5/5 497/5/5 500/5/5
f 502/5/5 499/5/5 498/5/5
f 503/5/5 499/5/5 502/5/5
f 508/5/5 505/5/5 504/5/5
f 509/5/5 505/5/5 508/5/5
f 510/5/5 507/5/5 506/5/5
f 511/5/5 507/5/5 510/5/5
f 514/5/5 513/5/5 512/5/5
f 515/5/5 513/5/5 514/5/5
f 518/5/5 517/5/5 516/5/5
f 519/5/5 517/5/5 518/5/5
f 524/5/5 521/5/5 520/5/5
f 525/5/5 521/5/5 524/5/5
f 526/5/5 523/5/5 522/5/5
f 527/5/5 523/5/5 526/5/5
f 532/5/5 529/5/5 528/5/5
f 533/5/5 529/5/5 532/5/5
f 536/5/5 531/5/5 530/5/5
f 537/5/5 531/5/5 536/5/5
f 538/5/5 535/5/5 534/5/5
f 539/5/5 535/5/5 538/5/5
f 543/4/5 541/4/5 540/4/5
f 543/4/5 542/4/5 541/4/5
f 544/4/5 542/4/5 543/4/5
f 548/4/5 546/4/5 545/4/5
f 548/4/5 547/4/5 546/4/5
f 549/4/5 547/4/5 548/4/5
f 550/5/6 551/5/6 554/5/6
f 554/5/6 551/5/6 555/5/6
f 552/5/6 553/5/6 556/5/6
f 556/5/6 553/5/6 557/5/6
f 554/5/6 555/5/6 558/5/6
f 555/5/6 556/5/6 558/5/6
f 556/5/6 557/5/6 558/5/6
f 558/5/6 557/5/6 559/5/6
f 560/5/6 561/5/6 562/5/6
f 562/5/6 561/5/6 563/5/6
f 564/5/6 565/5/6 567/5/6
f 567/5/6 565/5/6 568/5/6
f 566/5/6 567/5/6 571/5/6
f 571/5/6 567/5/6 572/5/6
f 568/5/6 569/5/6 573/5/6
f 573/5/6 569/5/6 574/5/6
f 570/5/6 571/5/6 576/5/6
f 576/5/6 571/5/6 577/5/6
f 574/5/6 575/5/6 578/5/6
f 578/5/6 575/5/6 579/5/6
f 580/5/6 581/5/6 584/5/6
f 584/5/6 581/5/6 585/5/6
f 582/5/6 583/5/6 586/5/6
f 586/5/6 583/5/6 587/5/6
f 588/5/6 589/5/6 590/5/6
f 590/5/6 589/5/6 591/5/6
f 592/5/6 593/5/6 595/5/6
f 595/5/6 593/5/6 596/5/6
f 594/5/6 595/5/6 599/5/6
f 599/5/6 595/5/6 600/5/6
f 596/5/6 597/5/6 601/5/6
f 601/5/6 597/5/6 602/5/6
f 598/5/6 599/5/6 604/5/6
f 604/5/6 599/5/6 605/5/6
f 602/5/6 603/5/6 606/5/6
f 606/5/6 603/5/6 607/5/6
f 608/5/6 609/5/6 612/5/6
f 612/5/6 609/5/6 613/5/6
f 610/5/6 611/5/6 614/5/6
f 614/5/6 611/5/6 615/5/6
f 613/5/6 614/5/6 616/5/6
f 616/5/6 614/5/6 617/5/6
f 618/5/6 619/5/6 621/5/6
f 621/5/6 619/5/6 622/5/6
f 622/5/6 619/5/6 623/5/6
f 623/5/6 619/5/6 624/5/6
f 620/5/6 621/5/6 626/5/6
f 621/5/6 622/5/6 626/5/6
f 624/5/6 625/5/6 627/5/6
f 623/5/6 624/5/6 627/5/6
f 620/5/6 626/5/6 628/5/6
f 626/5/6 627/5/6 628/5/6
f 628/5/6 627/5/6 629/5/6
f 627/5/6 625/5/6 630/5/6
f 629/5/6 627/5/6 630/5/6
f 630/5/6 625/5/6 631/5/6
f 629/5/6 630/5/6 632/5/6
f 632/5/6 630/5/6 633/5/6
f 634/4/6 635/4/6 636/4/6
f 636/4/6 635/4/6 637/4/6
f 637/4/6 635/4/6 638/4/6
f 639/4/6 640/4/6 641/4/6
f 641/4/6 640/4/6 642/4/6
f 642/4/6 640/4/6 643/4/6
f 644/4/6 645/4/6 646/4/6
f 646/4/6 645/4/6 647/4/6
