# MagicaVoxel @ Ephtracy

# group
o 

# material
mtllib Lantern.mtl
usemtl palette

# normals
vn -1 0 0
vn 1 0 0
vn 0 0 1
vn 0 0 -1
vn 0 -1 0
vn 0 1 0

# texcoords
vt 0.00976563 0.5
vt 0.0136719 0.5
vt 0.0410156 0.5
vt 0.0917969 0.5
vt 0.982422 0.5
vt 0.986328 0.5

# verts
v -0.3 0 0.1
v -0.3 0 -0.1
v -0.3 0.1 0.1
v -0.3 0.1 0
v -0.3 0.1 -0.1
v -0.3 0.5 0.1
v -0.3 0.5 0
v -0.3 0.5 -0.1
v -0.3 0.6 0.1
v -0.3 0.6 -0.1
v -0.2 0 0.2
v -0.2 0 0.1
v -0.2 0 -0.1
v -0.2 0 -0.2
v -0.2 0.1 0.2
v -0.2 0.1 0.1
v -0.2 0.1 0
v -0.2 0.1 -0.1
v -0.2 0.1 -0.2
v -0.2 0.2 0.1
v -0.2 0.2 0
v -0.2 0.5 0.2
v -0.2 0.5 0.1
v -0.2 0.5 -0.1
v -0.2 0.5 -0.2
v -0.2 0.6 0.2
v -0.2 0.6 0.1
v -0.2 0.6 0
v -0.2 0.6 -0.1
v -0.2 0.6 -0.2
v -0.2 0.7 0
v -0.2 0.7 -0.1
v -0.1 0 0.3
v -0.1 0 0.2
v -0.1 0 -0.2
v -0.1 0 -0.3
v -0.1 0.1 0.3
v -0.1 0.1 0.2
v -0.1 0.1 0
v -0.1 0.1 -0.2
v -0.1 0.1 -0.3
v -0.1 0.2 0.1
v -0.1 0.2 0
v -0.1 0.2 -0.1
v -0.1 0.2 -0.2
v -0.1 0.3 0.1
v -0.1 0.3 0
v -0.1 0.3 -0.1
v -0.1 0.4 0
v -0.1 0.4 -0.1
v -0.1 0.5 0.3
v -0.1 0.5 0.2
v -0.1 0.5 0.1
v -0.1 0.5 0
v -0.1 0.5 -0.2
v -0.1 0.5 -0.3
v -0.1 0.6 0.3
v -0.1 0.6 0.2
v -0.1 0.6 -0.2
v -0.1 0.6 -0.3
v -0.1 0.7 0
v -0.1 0.7 -0.1
v -0.1 0.8 0
v -0.1 0.8 -0.1
v 0 0.1 0.3
v 0 0.1 0.2
v 0 0.1 0.1
v 0 0.2 0.2
v 0 0.2 0.1
v 0 0.5 0.3
v 0 0.5 0.2
v 0 0.7 0.1
v 0 0.7 0
v 0 0.8 0.1
v 0 0.8 0
v 0.1 0.1 -0.1
v 0.1 0.1 -0.2
v 0.1 0.2 -0.1
v 0.1 0.5 -0.1
v 0.1 0.5 -0.2
v 0.1 0.6 0.1
v 0.1 0.6 0
v 0.1 0.7 0.1
v 0.1 0.7 0
v 0.2 0.1 0.1
v 0.2 0.1 0
v 0.2 0.2 0
v 0.2 0.5 0.1
v 0.2 0.5 0
v -0.2 0.1 0
v -0.2 0.1 -0.1
v -0.2 0.2 0
v -0.2 0.5 0
v -0.2 0.5 -0.1
v -0.1 0.1 0.2
v -0.1 0.1 0.1
v -0.1 0.2 0.1
v -0.1 0.3 0.1
v -0.1 0.5 0.2
v -0.1 0.5 0.1
v -0.1 0.6 0
v -0.1 0.6 -0.1
v -0.1 0.7 0
v -0.1 0.7 -0.1
v 0 0.1 -0.1
v 0 0.1 -0.2
v 0 0.1 -0.3
v 0 0.2 0
v 0 0.2 -0.1
v 0 0.2 -0.2
v 0 0.3 0.1
v 0 0.3 0
v 0 0.3 -0.1
v 0 0.4 0
v 0 0.4 -0.1
v 0 0.5 0.1
v 0 0.5 0
v 0 0.5 -0.2
v 0 0.5 -0.3
v 0 0.7 0
v 0 0.7 -0.1
v 0 0.8 0
v 0 0.8 -0.1
v 0.1 0 0.3
v 0.1 0 0.2
v 0.1 0 -0.2
v 0.1 0 -0.3
v 0.1 0.1 0.3
v 0.1 0.1 0.2
v 0.1 0.1 0
v 0.1 0.1 -0.2
v 0.1 0.1 -0.3
v 0.1 0.2 0.2
v 0.1 0.2 0.1
v 0.1 0.2 0
v 0.1 0.3 0.1
v 0.1 0.3 0
v 0.1 0.5 0.3
v 0.1 0.5 0.2
v 0.1 0.5 -0.2
v 0.1 0.5 -0.3
v 0.1 0.6 0.3
v 0.1 0.6 0.2
v 0.1 0.6 -0.2
v 0.1 0.6 -0.3
v 0.1 0.7 0.1
v 0.1 0.7 0
v 0.1 0.8 0.1
v 0.1 0.8 0
v 0.2 0 0.2
v 0.2 0 0.1
v 0.2 0 -0.1
v 0.2 0 -0.2
v 0.2 0.1 0.2
v 0.2 0.1 0.1
v 0.2 0.1 0
v 0.2 0.1 -0.1
v 0.2 0.1 -0.2
v 0.2 0.2 0
v 0.2 0.2 -0.1
v 0.2 0.5 0.2
v 0.2 0.5 0.1
v 0.2 0.5 -0.1
v 0.2 0.5 -0.2
v 0.2 0.6 0.2
v 0.2 0.6 0.1
v 0.2 0.6 0
v 0.2 0.6 -0.1
v 0.2 0.6 -0.2
v 0.2 0.7 0.1
v 0.2 0.7 0
v 0.3 0 0.1
v 0.3 0 -0.1
v 0.3 0.1 0.1
v 0.3 0.1 0
v 0.3 0.1 -0.1
v 0.3 0.5 0.1
v 0.3 0.5 0
v 0.3 0.5 -0.1
v 0.3 0.6 0.1
v 0.3 0.6 -0.1
v -0.1 0 0.3
v -0.1 0.1 0.3
v -0.1 0.5 0.3
v -0.1 0.6 0.3
v 0 0.1 0.3
v 0 0.5 0.3
v 0.1 0 0.3
v 0.1 0.1 0.3
v 0.1 0.5 0.3
v 0.1 0.6 0.3
v -0.2 0 0.2
v -0.2 0.1 0.2
v -0.2 0.5 0.2
v -0.2 0.6 0.2
v -0.1 0 0.2
v -0.1 0.1 0.2
v -0.1 0.5 0.2
v -0.1 0.6 0.2
v 0.1 0 0.2
v 0.1 0.1 0.2
v 0.1 0.5 0.2
v 0.1 0.6 0.2
v 0.2 0 0.2
v 0.2 0.1 0.2
v 0.2 0.5 0.2
v 0.2 0.6 0.2
v -0.3 0 0.1
v -0.3 0.1 0.1
v -0.3 0.5 0.1
v -0.3 0.6 0.1
v -0.2 0 0.1
v -0.2 0.1 0.1
v -0.2 0.5 0.1
v -0.2 0.6 0.1
v -0.1 0.1 0.1
v -0.1 0.2 0.1
v -0.1 0.3 0.1
v -0.1 0.5 0.1
v 0 0.1 0.1
v 0 0.2 0.1
v 0 0.3 0.1
v 0 0.5 0.1
v 0 0.7 0.1
v 0 0.8 0.1
v 0.1 0.2 0.1
v 0.1 0.3 0.1
v 0.1 0.6 0.1
v 0.1 0.7 0.1
v 0.1 0.8 0.1
v 0.2 0 0.1
v 0.2 0.1 0.1
v 0.2 0.5 0.1
v 0.2 0.6 0.1
v 0.2 0.7 0.1
v 0.3 0 0.1
v 0.3 0.1 0.1
v 0.3 0.5 0.1
v 0.3 0.6 0.1
v -0.3 0.1 0
v -0.3 0.5 0
v -0.2 0.1 0
v -0.2 0.2 0
v -0.2 0.5 0
v -0.2 0.6 0
v -0.2 0.7 0
v -0.1 0.6 0
v -0.1 0.7 0
v -0.1 0.8 0
v 0 0.7 0
v 0 0.8 0
v 0.1 0.1 0
v 0.1 0.2 0
v 0.2 0.1 0
v 0.2 0.2 0
v 0.1 0.2 -0.1
v 0.1 0.5 -0.1
v 0.2 0.2 -0.1
v 0.2 0.5 -0.1
v -0.1 0.2 -0.2
v -0.1 0.5 -0.2
v 0 0.2 -0.2
v 0 0.5 -0.2
v 0 0.2 0.2
v 0 0.5 0.2
v 0.1 0.2 0.2
v 0.1 0.5 0.2
v -0.2 0.2 0.1
v -0.2 0.5 0.1
v -0.1 0.2 0.1
v -0.1 0.3 0.1
v -0.1 0.5 0.1
v -0.2 0.1 0
v -0.2 0.2 0
v -0.1 0.1 0
v -0.1 0.2 0
v -0.1 0.4 0
v -0.1 0.5 0
v 0 0.2 0
v 0 0.3 0
v 0 0.4 0
v 0 0.5 0
v 0 0.7 0
v 0 0.8 0
v 0.1 0.2 0
v 0.1 0.3 0
v 0.1 0.6 0
v 0.1 0.7 0
v 0.1 0.8 0
v 0.2 0.1 0
v 0.2 0.2 0
v 0.2 0.5 0
v 0.2 0.6 0
v 0.2 0.7 0
v 0.3 0.1 0
v 0.3 0.5 0
v -0.3 0 -0.1
v -0.3 0.1 -0.1
v -0.3 0.5 -0.1
v -0.3 0.6 -0.1
v -0.2 0 -0.1
v -0.2 0.1 -0.1
v -0.2 0.5 -0.1
v -0.2 0.6 -0.1
v -0.2 0.7 -0.1
v -0.1 0.2 -0.1
v -0.1 0.3 -0.1
v -0.1 0.4 -0.1
v -0.1 0.6 -0.1
v -0.1 0.7 -0.1
v -0.1 0.8 -0.1
v 0 0.1 -0.1
v 0 0.2 -0.1
v 0 0.3 -0.1
v 0 0.4 -0.1
v 0 0.7 -0.1
v 0 0.8 -0.1
v 0.1 0.1 -0.1
v 0.1 0.2 -0.1
v 0.2 0 -0.1
v 0.2 0.1 -0.1
v 0.2 0.5 -0.1
v 0.2 0.6 -0.1
v 0.3 0 -0.1
v 0.3 0.1 -0.1
v 0.3 0.5 -0.1
v 0.3 0.6 -0.1
v -0.2 0 -0.2
v -0.2 0.1 -0.2
v -0.2 0.5 -0.2
v -0.2 0.6 -0.2
v -0.1 0 -0.2
v -0.1 0.1 -0.2
v -0.1 0.5 -0.2
v -0.1 0.6 -0.2
v 0.1 0 -0.2
v 0.1 0.1 -0.2
v 0.1 0.5 -0.2
v 0.1 0.6 -0.2
v 0.2 0 -0.2
v 0.2 0.1 -0.2
v 0.2 0.5 -0.2
v 0.2 0.6 -0.2
v -0.1 0 -0.3
v -0.1 0.1 -0.3
v -0.1 0.5 -0.3
v -0.1 0.6 -0.3
v 0 0.1 -0.3
v 0 0.5 -0.3
v 0.1 0 -0.3
v 0.1 0.1 -0.3
v 0.1 0.5 -0.3
v 0.1 0.6 -0.3
v -0.1 0 0.3
v 0.1 0 0.3
v -0.2 0 0.2
v -0.1 0 0.2
v 0.1 0 0.2
v 0.2 0 0.2
v -0.3 0 0.1
v -0.2 0 0.1
v 0.2 0 0.1
v 0.3 0 0.1
v -0.3 0 -0.1
v -0.2 0 -0.1
v 0.2 0 -0.1
v 0.3 0 -0.1
v -0.2 0 -0.2
v -0.1 0 -0.2
v 0.1 0 -0.2
v 0.2 0 -0.2
v -0.1 0 -0.3
v 0.1 0 -0.3
v -0.1 0.5 0.3
v 0 0.5 0.3
v -0.1 0.5 0.2
v 0 0.5 0.2
v 0.1 0.5 0.2
v 0.2 0.5 0.2
v -0.3 0.5 0.1
v -0.2 0.5 0.1
v -0.1 0.5 0.1
v 0 0.5 0.1
v 0.2 0.5 0.1
v -0.3 0.5 0
v -0.2 0.5 0
v -0.1 0.5 0
v 0 0.5 0
v 0.2 0.5 0
v 0.3 0.5 0
v -0.2 0.5 -0.1
v 0.1 0.5 -0.1
v 0.2 0.5 -0.1
v 0.3 0.5 -0.1
v -0.2 0.5 -0.2
v -0.1 0.5 -0.2
v 0 0.5 -0.2
v 0.1 0.5 -0.2
v 0 0.5 -0.3
v 0.1 0.5 -0.3
v 0 0.7 0.1
v 0.1 0.7 0.1
v -0.1 0.7 0
v 0 0.7 0
v 0.1 0.7 0
v -0.1 0.7 -0.1
v 0 0.7 -0.1
v -0.1 0.1 0.3
v 0 0.1 0.3
v -0.1 0.1 0.2
v 0 0.1 0.2
v 0.1 0.1 0.2
v 0.2 0.1 0.2
v -0.3 0.1 0.1
v -0.2 0.1 0.1
v -0.1 0.1 0.1
v 0 0.1 0.1
v 0.2 0.1 0.1
v -0.3 0.1 0
v -0.2 0.1 0
v -0.1 0.1 0
v 0.1 0.1 0
v 0.2 0.1 0
v 0.3 0.1 0
v -0.2 0.1 -0.1
v 0 0.1 -0.1
v 0.1 0.1 -0.1
v 0.2 0.1 -0.1
v 0.3 0.1 -0.1
v -0.2 0.1 -0.2
v -0.1 0.1 -0.2
v 0 0.1 -0.2
v 0.1 0.1 -0.2
v 0 0.1 -0.3
v 0.1 0.1 -0.3
v 0 0.2 0.2
v 0.1 0.2 0.2
v -0.2 0.2 0.1
v -0.1 0.2 0.1
v 0 0.2 0.1
v 0.1 0.2 0.1
v -0.2 0.2 0
v -0.1 0.2 0
v 0 0.2 0
v 0.1 0.2 0
v 0.2 0.2 0
v -0.1 0.2 -0.1
v 0 0.2 -0.1
v 0.1 0.2 -0.1
v 0.2 0.2 -0.1
v -0.1 0.2 -0.2
v 0 0.2 -0.2
v 0 0.3 0.1
v 0.1 0.3 0.1
v 0 0.3 0
v 0.1 0.3 0
v -0.1 0.4 0
v 0 0.4 0
v -0.1 0.4 -0.1
v 0 0.4 -0.1
v -0.1 0.6 0.3
v 0.1 0.6 0.3
v -0.2 0.6 0.2
v -0.1 0.6 0.2
v 0.1 0.6 0.2
v 0.2 0.6 0.2
v -0.3 0.6 0.1
v -0.2 0.6 0.1
v 0.1 0.6 0.1
v 0.2 0.6 0.1
v 0.3 0.6 0.1
v -0.2 0.6 0
v -0.1 0.6 0
v 0.1 0.6 0
v 0.2 0.6 0
v -0.3 0.6 -0.1
v -0.2 0.6 -0.1
v -0.1 0.6 -0.1
v 0.2 0.6 -0.1
v 0.3 0.6 -0.1
v -0.2 0.6 -0.2
v -0.1 0.6 -0.2
v 0.1 0.6 -0.2
v 0.2 0.6 -0.2
v -0.1 0.6 -0.3
v 0.1 0.6 -0.3
v 0.1 0.7 0.1
v 0.2 0.7 0.1
v -0.2 0.7 0
v -0.1 0.7 0
v 0.1 0.7 0
v 0.2 0.7 0
v -0.2 0.7 -0.1
v -0.1 0.7 -0.1
v 0 0.8 0.1
v 0.1 0.8 0.1
v -0.1 0.8 0
v 0 0.8 0
v 0.1 0.8 0
v -0.1 0.8 -0.1
v 0 0.8 -0.1

# faces
f 3/6/1 2/6/1 1/6/1
f 4/6/1 2/6/1 3/6/1
f 5/6/1 2/6/1 4/6/1
f 7/5/1 5/5/1 4/5/1
f 8/5/1 5/5/1 7/5/1
f 9/6/1 7/6/1 6/6/1
f 9/6/1 8/6/1 7/6/1
f 10/6/1 8/6/1 9/6/1
f 15/6/1 12/6/1 11/6/1
f 16/6/1 12/6/1 15/6/1
f 18/6/1 14/6/1 13/6/1
f 19/6/1 14/6/1 18/6/1
f 20/4/1 17/4/1 16/4/1
f 20/5/1 16/5/1 15/5/1
f 21/4/1 17/4/1 20/4/1
f 22/5/1 20/5/1 15/5/1
f 23/5/1 20/5/1 22/5/1
f 26/6/1 23/6/1 22/6/1
f 27/6/1 23/6/1 26/6/1
f 29/6/1 25/6/1 24/6/1
f 30/6/1 25/6/1 29/6/1
f 31/6/1 29/6/1 28/6/1
f 32/6/1 29/6/1 31/6/1
f 37/6/1 34/6/1 33/6/1
f 38/6/1 34/6/1 37/6/1
f 40/6/1 36/6/1 35/6/1
f 41/6/1 36/6/1 40/6/1
f 43/4/1 40/4/1 39/4/1
f 44/4/1 40/4/1 43/4/1
f 45/5/1 41/5/1 40/5/1
f 45/4/1 40/4/1 44/4/1
f 46/3/1 44/3/1 43/3/1
f 46/3/1 43/3/1 42/3/1
f 47/3/1 44/3/1 46/3/1
f 48/3/1 44/3/1 47/3/1
f 49/1/1 47/1/1 46/1/1
f 49/2/1 48/2/1 47/2/1
f 50/2/1 48/2/1 49/2/1
f 53/1/1 49/1/1 46/1/1
f 54/1/1 49/1/1 53/1/1
f 55/5/1 41/5/1 45/5/1
f 56/5/1 41/5/1 55/5/1
f 57/6/1 52/6/1 51/6/1
f 58/6/1 52/6/1 57/6/1
f 59/6/1 56/6/1 55/6/1
f 60/6/1 56/6/1 59/6/1
f 63/6/1 62/6/1 61/6/1
f 64/6/1 62/6/1 63/6/1
f 68/5/1 66/5/1 65/5/1
f 68/4/1 67/4/1 66/4/1
f 69/4/1 67/4/1 68/4/1
f 70/5/1 68/5/1 65/5/1
f 71/5/1 68/5/1 70/5/1
f 74/6/1 73/6/1 72/6/1
f 75/6/1 73/6/1 74/6/1
f 78/5/1 77/5/1 76/5/1
f 79/5/1 77/5/1 78/5/1
f 80/5/1 77/5/1 79/5/1
f 83/6/1 82/6/1 81/6/1
f 84/6/1 82/6/1 83/6/1
f 87/5/1 86/5/1 85/5/1
f 88/5/1 87/5/1 85/5/1
f 89/5/1 87/5/1 88/5/1
f 90/5/2 91/5/2 92/5/2
f 92/5/2 91/5/2 93/5/2
f 93/5/2 91/5/2 94/5/2
f 95/5/2 96/5/2 97/5/2
f 95/5/2 97/5/2 98/5/2
f 95/5/2 98/5/2 99/5/2
f 99/5/2 98/5/2 100/5/2
f 101/6/2 102/6/2 103/6/2
f 103/6/2 102/6/2 104/6/2
f 105/4/2 106/4/2 109/4/2
f 106/5/2 107/5/2 110/5/2
f 109/4/2 106/4/2 110/4/2
f 108/3/2 109/3/2 112/3/2
f 112/3/2 109/3/2 113/3/2
f 111/1/2 112/1/2 114/1/2
f 112/2/2 113/2/2 114/2/2
f 114/2/2 113/2/2 115/2/2
f 111/1/2 114/1/2 116/1/2
f 116/1/2 114/1/2 117/1/2
f 110/5/2 107/5/2 118/5/2
f 118/5/2 107/5/2 119/5/2
f 120/6/2 121/6/2 122/6/2
f 122/6/2 121/6/2 123/6/2
f 124/6/2 125/6/2 128/6/2
f 128/6/2 125/6/2 129/6/2
f 126/6/2 127/6/2 131/6/2
f 131/6/2 127/6/2 132/6/2
f 129/4/2 130/4/2 133/4/2
f 128/5/2 129/5/2 133/5/2
f 133/4/2 130/4/2 134/4/2
f 134/4/2 130/4/2 135/4/2
f 134/3/2 135/3/2 136/3/2
f 136/3/2 135/3/2 137/3/2
f 128/5/2 133/5/2 138/5/2
f 138/5/2 133/5/2 139/5/2
f 138/6/2 139/6/2 142/6/2
f 142/6/2 139/6/2 143/6/2
f 140/6/2 141/6/2 144/6/2
f 144/6/2 141/6/2 145/6/2
f 146/6/2 147/6/2 148/6/2
f 148/6/2 147/6/2 149/6/2
f 150/6/2 151/6/2 154/6/2
f 154/6/2 151/6/2 155/6/2
f 152/6/2 153/6/2 157/6/2
f 157/6/2 153/6/2 158/6/2
f 156/4/2 157/4/2 159/4/2
f 157/5/2 158/5/2 160/5/2
f 159/4/2 157/4/2 160/4/2
f 160/5/2 158/5/2 163/5/2
f 163/5/2 158/5/2 164/5/2
f 161/6/2 162/6/2 165/6/2
f 165/6/2 162/6/2 166/6/2
f 163/6/2 164/6/2 168/6/2
f 168/6/2 164/6/2 169/6/2
f 166/6/2 167/6/2 170/6/2
f 170/6/2 167/6/2 171/6/2
f 172/6/2 173/6/2 174/6/2
f 174/6/2 173/6/2 175/6/2
f 175/6/2 173/6/2 176/6/2
f 174/5/2 175/5/2 177/5/2
f 177/5/2 175/5/2 178/5/2
f 177/6/2 178/6/2 180/6/2
f 178/6/2 179/6/2 180/6/2
f 180/6/2 179/6/2 181/6/2
f 186/6/3 183/6/3 182/6/3
f 187/6/3 185/6/3 184/6/3
f 188/6/3 186/6/3 182/6/3
f 189/5/3 187/5/3 186/5/3
f 189/6/3 186/6/3 188/6/3
f 190/6/3 185/6/3 187/6/3
f 190/5/3 187/5/3 189/5/3
f 191/6/3 185/6/3 190/6/3
f 196/6/3 193/6/3 192/6/3
f 197/5/3 194/5/3 193/5/3
f 197/6/3 193/6/3 196/6/3
f 198/6/3 195/6/3 194/6/3
f 198/5/3 194/5/3 197/5/3
f 199/6/3 195/6/3 198/6/3
f 204/6/3 201/6/3 200/6/3
f 205/6/3 201/6/3 204/6/3
f 206/6/3 203/6/3 202/6/3
f 207/6/3 203/6/3 206/6/3
f 212/6/3 209/6/3 208/6/3
f 213/6/3 209/6/3 212/6/3
f 214/6/3 211/6/3 210/6/3
f 215/6/3 211/6/3 214/6/3
f 220/4/3 217/4/3 216/4/3
f 221/3/3 218/3/3 217/3/3
f 221/4/3 217/4/3 220/4/3
f 222/1/3 219/1/3 218/1/3
f 222/3/3 218/3/3 221/3/3
f 223/1/3 219/1/3 222/1/3
f 226/3/3 222/3/3 221/3/3
f 227/3/3 222/3/3 226/3/3
f 229/6/3 225/6/3 224/6/3
f 230/6/3 225/6/3 229/6/3
f 234/6/3 229/6/3 228/6/3
f 235/6/3 229/6/3 234/6/3
f 236/6/3 232/6/3 231/6/3
f 237/5/3 233/5/3 232/5/3
f 237/6/3 232/6/3 236/6/3
f 238/6/3 234/6/3 233/6/3
f 238/5/3 233/5/3 237/5/3
f 239/6/3 234/6/3 238/6/3
f 242/5/3 241/5/3 240/5/3
f 243/5/3 241/5/3 242/5/3
f 244/5/3 241/5/3 243/5/3
f 247/6/3 246/6/3 245/6/3
f 248/6/3 246/6/3 247/6/3
f 250/6/3 249/6/3 248/6/3
f 251/6/3 249/6/3 250/6/3
f 254/4/3 253/4/3 252/4/3
f 255/4/3 253/4/3 254/4/3
f 258/5/3 257/5/3 256/5/3
f 259/5/3 257/5/3 258/5/3
f 262/5/3 261/5/3 260/5/3
f 263/5/3 261/5/3 262/5/3
f 264/5/4 265/5/4 266/5/4
f 266/5/4 265/5/4 267/5/4
f 268/5/4 269/5/4 270/5/4
f 270/5/4 269/5/4 271/5/4
f 271/5/4 269/5/4 272/5/4
f 273/4/4 274/4/4 275/4/4
f 275/4/4 274/4/4 276/4/4
f 277/1/4 278/1/4 281/1/4
f 281/1/4 278/1/4 282/1/4
f 279/3/4 280/3/4 285/3/4
f 285/3/4 280/3/4 286/3/4
f 283/6/4 284/6/4 288/6/4
f 288/6/4 284/6/4 289/6/4
f 287/6/4 288/6/4 293/6/4
f 293/6/4 288/6/4 294/6/4
f 291/5/4 292/5/4 295/5/4
f 290/5/4 291/5/4 295/5/4
f 295/5/4 292/5/4 296/5/4
f 297/6/4 298/6/4 301/6/4
f 298/5/4 299/5/4 302/5/4
f 301/6/4 298/6/4 302/6/4
f 299/6/4 300/6/4 303/6/4
f 302/5/4 299/5/4 303/5/4
f 303/6/4 300/6/4 304/6/4
f 304/6/4 305/6/4 309/6/4
f 309/6/4 305/6/4 310/6/4
f 306/3/4 307/3/4 313/3/4
f 307/2/4 308/2/4 314/2/4
f 313/3/4 307/3/4 314/3/4
f 314/2/4 308/2/4 315/2/4
f 310/6/4 311/6/4 316/6/4
f 316/6/4 311/6/4 317/6/4
f 312/4/4 313/4/4 318/4/4
f 318/4/4 313/4/4 319/4/4
f 320/6/4 321/6/4 324/6/4
f 324/6/4 321/6/4 325/6/4
f 322/6/4 323/6/4 326/6/4
f 326/6/4 323/6/4 327/6/4
f 328/6/4 329/6/4 332/6/4
f 332/6/4 329/6/4 333/6/4
f 330/6/4 331/6/4 334/6/4
f 334/6/4 331/6/4 335/6/4
f 336/6/4 337/6/4 340/6/4
f 337/5/4 338/5/4 341/5/4
f 340/6/4 337/6/4 341/6/4
f 338/6/4 339/6/4 342/6/4
f 341/5/4 338/5/4 342/5/4
f 342/6/4 339/6/4 343/6/4
f 344/6/4 345/6/4 348/6/4
f 345/5/4 346/5/4 348/5/4
f 346/6/4 347/6/4 349/6/4
f 348/5/4 346/5/4 349/5/4
f 344/6/4 348/6/4 350/6/4
f 350/6/4 348/6/4 351/6/4
f 349/6/4 347/6/4 352/6/4
f 352/6/4 347/6/4 353/6/4
f 357/6/5 355/6/5 354/6/5
f 358/6/5 355/6/5 357/6/5
f 361/6/5 357/6/5 356/6/5
f 361/6/5 359/6/5 358/6/5
f 361/6/5 358/6/5 357/6/5
f 362/6/5 359/6/5 361/6/5
f 364/6/5 361/6/5 360/6/5
f 364/6/5 363/6/5 362/6/5
f 364/6/5 362/6/5 361/6/5
f 365/6/5 363/6/5 364/6/5
f 366/6/5 363/6/5 365/6/5
f 367/6/5 363/6/5 366/6/5
f 368/6/5 366/6/5 365/6/5
f 369/6/5 366/6/5 368/6/5
f 370/6/5 366/6/5 369/6/5
f 371/6/5 366/6/5 370/6/5
f 372/6/5 370/6/5 369/6/5
f 373/6/5 370/6/5 372/6/5
f 376/6/5 375/6/5 374/6/5
f 377/6/5 375/6/5 376/6/5
f 382/6/5 377/6/5 376/6/5
f 382/6/5 378/6/5 377/6/5
f 382/6/5 379/6/5 378/6/5
f 383/6/5 379/6/5 382/6/5
f 384/6/5 379/6/5 383/6/5
f 385/6/5 381/6/5 380/6/5
f 385/6/5 382/6/5 381/6/5
f 386/6/5 382/6/5 385/6/5
f 387/6/5 382/6/5 386/6/5
f 388/6/5 384/6/5 383/6/5
f 389/6/5 384/6/5 388/6/5
f 391/6/5 389/6/5 388/6/5
f 391/6/5 390/6/5 389/6/5
f 391/6/5 388/6/5 387/6/5
f 391/6/5 387/6/5 386/6/5
f 392/6/5 390/6/5 391/6/5
f 393/6/5 390/6/5 392/6/5
f 394/6/5 390/6/5 393/6/5
f 395/6/5 392/6/5 391/6/5
f 396/6/5 392/6/5 395/6/5
f 397/6/5 392/6/5 396/6/5
f 398/6/5 392/6/5 397/6/5
f 399/6/5 398/6/5 397/6/5
f 400/6/5 398/6/5 399/6/5
f 404/6/5 402/6/5 401/6/5
f 405/6/5 402/6/5 404/6/5
f 406/6/5 404/6/5 403/6/5
f 407/6/5 404/6/5 406/6/5
f 408/6/6 409/6/6 410/6/6
f 410/6/6 409/6/6 411/6/6
f 410/6/6 411/6/6 416/6/6
f 416/6/6 411/6/6 417/6/6
f 412/6/6 413/6/6 418/6/6
f 414/6/6 415/6/6 419/6/6
f 419/6/6 415/6/6 420/6/6
f 412/6/6 418/6/6 422/6/6
f 422/6/6 418/6/6 423/6/6
f 420/6/6 421/6/6 425/6/6
f 423/6/6 424/6/6 428/6/6
f 428/6/6 424/6/6 429/6/6
f 425/6/6 421/6/6 430/6/6
f 430/6/6 421/6/6 431/6/6
f 426/6/6 427/6/6 432/6/6
f 432/6/6 427/6/6 433/6/6
f 432/6/6 433/6/6 434/6/6
f 434/6/6 433/6/6 435/6/6
f 436/4/6 437/4/6 440/4/6
f 440/4/6 437/4/6 441/4/6
f 438/4/6 439/4/6 442/4/6
f 442/4/6 439/4/6 443/4/6
f 444/4/6 445/4/6 448/4/6
f 445/4/6 446/4/6 448/4/6
f 448/4/6 446/4/6 449/4/6
f 449/4/6 446/4/6 450/4/6
f 447/4/6 448/4/6 451/4/6
f 451/4/6 448/4/6 452/4/6
f 453/3/6 454/3/6 455/3/6
f 455/3/6 454/3/6 456/3/6
f 457/2/6 458/2/6 459/2/6
f 459/2/6 458/2/6 460/2/6
f 461/6/6 462/6/6 464/6/6
f 464/6/6 462/6/6 465/6/6
f 463/6/6 464/6/6 468/6/6
f 465/6/6 466/6/6 468/6/6
f 464/6/6 465/6/6 468/6/6
f 468/6/6 466/6/6 469/6/6
f 469/6/6 466/6/6 470/6/6
f 467/6/6 468/6/6 472/6/6
f 468/6/6 469/6/6 472/6/6
f 472/6/6 469/6/6 473/6/6
f 473/6/6 469/6/6 474/6/6
f 470/6/6 471/6/6 475/6/6
f 467/6/6 472/6/6 476/6/6
f 476/6/6 472/6/6 477/6/6
f 473/6/6 474/6/6 478/6/6
f 474/6/6 475/6/6 478/6/6
f 475/6/6 471/6/6 479/6/6
f 478/6/6 475/6/6 479/6/6
f 479/6/6 471/6/6 480/6/6
f 477/6/6 478/6/6 481/6/6
f 478/6/6 479/6/6 481/6/6
f 481/6/6 479/6/6 482/6/6
f 482/6/6 479/6/6 483/6/6
f 483/6/6 479/6/6 484/6/6
f 482/6/6 483/6/6 485/6/6
f 485/6/6 483/6/6 486/6/6
f 487/6/6 488/6/6 491/6/6
f 491/6/6 488/6/6 492/6/6
f 489/6/6 490/6/6 493/6/6
f 493/6/6 490/6/6 494/6/6
f 495/6/6 496/6/6 498/6/6
f 498/6/6 496/6/6 499/6/6
f 497/6/6 498/6/6 500/6/6
f 500/6/6 498/6/6 501/6/6
