# MagicaVoxel @ Ephtracy

# group
o 

# material
mtllib torch.mtl
usemtl palette

# normals
vn -1 0 0
vn 1 0 0
vn 0 0 1
vn 0 0 -1
vn 0 -1 0
vn 0 1 0

# texcoords
vt 0.658203 0.5
vt 0.662109 0.5
vt 0.666016 0.5
vt 0.673828 0.5
vt 0.990234 0.5

# verts
v -0.2 1.1 0
v -0.2 1.1 -0.1
v -0.2 1.2 0
v -0.2 1.2 -0.1
v -0.2 1.4 0
v -0.2 1.4 -0.1
v -0.1 1 0
v -0.1 1 -0.1
v -0.1 1.1 0
v -0.1 1.1 -0.1
v 0 0 0
v 0 0 -0.1
v 0 0.2 0
v 0 0.2 -0.1
v 0 0.3 0
v 0 0.3 -0.1
v 0 0.5 0
v 0 0.5 -0.1
v 0 0.6 0
v 0 0.6 -0.1
v 0 0.8 0
v 0 0.8 -0.1
v 0 0.9 0
v 0 0.9 -0.1
v 0 1 0.1
v 0 1 0
v 0 1 -0.1
v 0 1 -0.2
v 0 1.1 0.2
v 0 1.1 0.1
v 0 1.1 0
v 0 1.1 -0.1
v 0 1.1 -0.2
v 0 1.1 -0.3
v 0 1.2 0.2
v 0 1.2 0.1
v 0 1.2 0
v 0 1.2 -0.1
v 0 1.2 -0.2
v 0 1.2 -0.3
v 0 1.3 0
v 0 1.3 -0.1
v 0 1.3 -0.2
v 0 1.4 0.2
v 0 1.4 0.1
v 0 1.4 -0.2
v 0 1.4 -0.3
v 0 1.5 0
v 0 1.5 -0.1
v 0.2 1.2 0
v 0.2 1.2 -0.1
v 0.2 1.4 0
v 0.2 1.4 -0.1
v -0.1 1.3 0
v -0.1 1.3 -0.1
v -0.1 1.4 0
v -0.1 1.4 -0.1
v 0.1 0 0
v 0.1 0 -0.1
v 0.1 0.2 0
v 0.1 0.2 -0.1
v 0.1 0.3 0
v 0.1 0.3 -0.1
v 0.1 0.5 0
v 0.1 0.5 -0.1
v 0.1 0.6 0
v 0.1 0.6 -0.1
v 0.1 0.8 0
v 0.1 0.8 -0.1
v 0.1 0.9 0
v 0.1 0.9 -0.1
v 0.1 1 0.1
v 0.1 1 0
v 0.1 1 -0.1
v 0.1 1 -0.2
v 0.1 1.1 0.2
v 0.1 1.1 0.1
v 0.1 1.1 0
v 0.1 1.1 -0.1
v 0.1 1.1 -0.2
v 0.1 1.1 -0.3
v 0.1 1.2 0.2
v 0.1 1.2 0.1
v 0.1 1.2 0
v 0.1 1.2 -0.1
v 0.1 1.2 -0.2
v 0.1 1.2 -0.3
v 0.1 1.3 0
v 0.1 1.3 -0.1
v 0.1 1.3 -0.2
v 0.1 1.4 0.2
v 0.1 1.4 0.1
v 0.1 1.4 -0.2
v 0.1 1.4 -0.3
v 0.1 1.5 0
v 0.1 1.5 -0.1
v 0.2 1 0
v 0.2 1 -0.1
v 0.2 1.1 0
v 0.2 1.1 -0.1
v 0.3 1.1 0
v 0.3 1.1 -0.1
v 0.3 1.2 0
v 0.3 1.2 -0.1
v 0.3 1.4 0
v 0.3 1.4 -0.1
v 0 1.1 0.2
v 0 1.2 0.2
v 0 1.4 0.2
v 0.1 1.1 0.2
v 0.1 1.2 0.2
v 0.1 1.4 0.2
v 0 1 0.1
v 0 1.1 0.1
v 0.1 1 0.1
v 0.1 1.1 0.1
v -0.2 1.1 0
v -0.2 1.2 0
v -0.2 1.4 0
v -0.1 1 0
v -0.1 1.1 0
v -0.1 1.2 0
v -0.1 1.3 0
v -0.1 1.4 0
v 0 0 0
v 0 0.2 0
v 0 0.3 0
v 0 0.5 0
v 0 0.6 0
v 0 0.8 0
v 0 0.9 0
v 0 1 0
v 0 1.1 0
v 0 1.2 0
v 0 1.3 0
v 0 1.5 0
v 0.1 0 0
v 0.1 0.2 0
v 0.1 0.3 0
v 0.1 0.5 0
v 0.1 0.6 0
v 0.1 0.8 0
v 0.1 0.9 0
v 0.1 1 0
v 0.1 1.1 0
v 0.1 1.2 0
v 0.1 1.3 0
v 0.1 1.5 0
v 0.2 1 0
v 0.2 1.1 0
v 0.2 1.2 0
v 0.2 1.4 0
v 0.3 1.1 0
v 0.3 1.2 0
v 0.3 1.4 0
v 0 1.3 -0.2
v 0 1.4 -0.2
v 0.1 1.3 -0.2
v 0.1 1.4 -0.2
v 0 1.2 0.1
v 0 1.4 0.1
v 0.1 1.2 0.1
v 0.1 1.4 0.1
v -0.2 1.1 -0.1
v -0.2 1.2 -0.1
v -0.2 1.4 -0.1
v -0.1 1 -0.1
v -0.1 1.1 -0.1
v -0.1 1.2 -0.1
v -0.1 1.3 -0.1
v -0.1 1.4 -0.1
v 0 0 -0.1
v 0 0.2 -0.1
v 0 0.3 -0.1
v 0 0.5 -0.1
v 0 0.6 -0.1
v 0 0.8 -0.1
v 0 0.9 -0.1
v 0 1 -0.1
v 0 1.1 -0.1
v 0 1.2 -0.1
v 0 1.3 -0.1
v 0 1.5 -0.1
v 0.1 0 -0.1
v 0.1 0.2 -0.1
v 0.1 0.3 -0.1
v 0.1 0.5 -0.1
v 0.1 0.6 -0.1
v 0.1 0.8 -0.1
v 0.1 0.9 -0.1
v 0.1 1 -0.1
v 0.1 1.1 -0.1
v 0.1 1.2 -0.1
v 0.1 1.3 -0.1
v 0.1 1.5 -0.1
v 0.2 1 -0.1
v 0.2 1.1 -0.1
v 0.2 1.2 -0.1
v 0.2 1.4 -0.1
v 0.3 1.1 -0.1
v 0.3 1.2 -0.1
v 0.3 1.4 -0.1
v 0 1 -0.2
v 0 1.1 -0.2
v 0.1 1 -0.2
v 0.1 1.1 -0.2
v 0 1.1 -0.3
v 0 1.2 -0.3
v 0 1.4 -0.3
v 0.1 1.1 -0.3
v 0.1 1.2 -0.3
v 0.1 1.4 -0.3
v 0 0 0
v 0.1 0 0
v 0 0 -0.1
v 0.1 0 -0.1
v 0 1 0.1
v 0.1 1 0.1
v -0.1 1 0
v 0 1 0
v 0.1 1 0
v 0.2 1 0
v -0.1 1 -0.1
v 0 1 -0.1
v 0.1 1 -0.1
v 0.2 1 -0.1
v 0 1 -0.2
v 0.1 1 -0.2
v 0 1.1 0.2
v 0.1 1.1 0.2
v 0 1.1 0.1
v 0.1 1.1 0.1
v -0.2 1.1 0
v -0.1 1.1 0
v 0.2 1.1 0
v 0.3 1.1 0
v -0.2 1.1 -0.1
v -0.1 1.1 -0.1
v 0.2 1.1 -0.1
v 0.3 1.1 -0.1
v 0 1.1 -0.2
v 0.1 1.1 -0.2
v 0 1.1 -0.3
v 0.1 1.1 -0.3
v 0 1.2 0.1
v 0.1 1.2 0.1
v 0 1.2 0
v 0.1 1.2 0
v 0.2 1.2 0
v 0.1 1.2 -0.1
v 0.2 1.2 -0.1
v -0.1 1.3 0
v 0 1.3 0
v -0.1 1.3 -0.1
v 0 1.3 -0.1
v 0.1 1.3 -0.1
v 0 1.3 -0.2
v 0.1 1.3 -0.2
v 0 1.4 0.2
v 0.1 1.4 0.2
v 0 1.4 0.1
v 0.1 1.4 0.1
v -0.2 1.4 0
v -0.1 1.4 0
v 0.2 1.4 0
v 0.3 1.4 0
v -0.2 1.4 -0.1
v -0.1 1.4 -0.1
v 0.2 1.4 -0.1
v 0.3 1.4 -0.1
v 0 1.4 -0.2
v 0.1 1.4 -0.2
v 0 1.4 -0.3
v 0.1 1.4 -0.3
v 0 1.5 0
v 0.1 1.5 0
v 0 1.5 -0.1
v 0.1 1.5 -0.1

# faces
f 3/5/1 2/5/1 1/5/1
f 4/5/1 2/5/1 3/5/1
f 5/4/1 4/4/1 3/4/1
f 6/4/1 4/4/1 5/4/1
f 9/4/1 8/4/1 7/4/1
f 10/4/1 8/4/1 9/4/1
f 13/4/1 12/4/1 11/4/1
f 14/4/1 12/4/1 13/4/1
f 15/5/1 14/5/1 13/5/1
f 16/5/1 14/5/1 15/5/1
f 17/4/1 16/4/1 15/4/1
f 18/4/1 16/4/1 17/4/1
f 19/5/1 18/5/1 17/5/1
f 20/5/1 18/5/1 19/5/1
f 21/4/1 20/4/1 19/4/1
f 22/4/1 20/4/1 21/4/1
f 23/5/1 22/5/1 21/5/1
f 24/5/1 22/5/1 23/5/1
f 26/4/1 24/4/1 23/4/1
f 27/4/1 24/4/1 26/4/1
f 30/4/1 26/4/1 25/4/1
f 31/4/1 26/4/1 30/4/1
f 32/4/1 28/4/1 27/4/1
f 33/4/1 28/4/1 32/4/1
f 35/5/1 30/5/1 29/5/1
f 36/3/1 31/3/1 30/3/1
f 36/5/1 30/5/1 35/5/1
f 37/3/1 31/3/1 36/3/1
f 38/2/1 33/2/1 32/2/1
f 39/5/1 34/5/1 33/5/1
f 39/2/1 33/2/1 38/2/1
f 40/5/1 34/5/1 39/5/1
f 42/2/1 39/2/1 38/2/1
f 43/4/1 40/4/1 39/4/1
f 43/2/1 39/2/1 42/2/1
f 44/4/1 36/4/1 35/4/1
f 45/4/1 36/4/1 44/4/1
f 46/4/1 40/4/1 43/4/1
f 47/4/1 40/4/1 46/4/1
f 48/1/1 42/1/1 41/1/1
f 49/1/1 42/1/1 48/1/1
f 52/4/1 51/4/1 50/4/1
f 53/4/1 51/4/1 52/4/1
f 54/4/2 55/4/2 56/4/2
f 56/4/2 55/4/2 57/4/2
f 58/4/2 59/4/2 60/4/2
f 60/4/2 59/4/2 61/4/2
f 60/5/2 61/5/2 62/5/2
f 62/5/2 61/5/2 63/5/2
f 62/4/2 63/4/2 64/4/2
f 64/4/2 63/4/2 65/4/2
f 64/5/2 65/5/2 66/5/2
f 66/5/2 65/5/2 67/5/2
f 66/4/2 67/4/2 68/4/2
f 68/4/2 67/4/2 69/4/2
f 68/5/2 69/5/2 70/5/2
f 70/5/2 69/5/2 71/5/2
f 70/4/2 71/4/2 73/4/2
f 73/4/2 71/4/2 74/4/2
f 72/4/2 73/4/2 77/4/2
f 77/4/2 73/4/2 78/4/2
f 74/4/2 75/4/2 79/4/2
f 79/4/2 75/4/2 80/4/2
f 76/5/2 77/5/2 82/5/2
f 77/3/2 78/3/2 83/3/2
f 82/5/2 77/5/2 83/5/2
f 83/3/2 78/3/2 84/3/2
f 79/2/2 80/2/2 85/2/2
f 80/5/2 81/5/2 86/5/2
f 85/2/2 80/2/2 86/2/2
f 86/5/2 81/5/2 87/5/2
f 84/2/2 85/2/2 88/2/2
f 85/2/2 86/2/2 88/2/2
f 88/2/2 86/2/2 89/2/2
f 86/4/2 87/4/2 90/4/2
f 89/2/2 86/2/2 90/2/2
f 82/4/2 83/4/2 91/4/2
f 91/4/2 83/4/2 92/4/2
f 90/4/2 87/4/2 93/4/2
f 93/4/2 87/4/2 94/4/2
f 88/1/2 89/1/2 95/1/2
f 95/1/2 89/1/2 96/1/2
f 97/4/2 98/4/2 99/4/2
f 99/4/2 98/4/2 100/4/2
f 101/5/2 102/5/2 103/5/2
f 103/5/2 102/5/2 104/5/2
f 103/4/2 104/4/2 105/4/2
f 105/4/2 104/4/2 106/4/2
f 110/5/3 108/5/3 107/5/3
f 111/4/3 109/4/3 108/4/3
f 111/5/3 108/5/3 110/5/3
f 112/4/3 109/4/3 111/4/3
f 115/4/3 114/4/3 113/4/3
f 116/4/3 114/4/3 115/4/3
f 121/5/3 118/5/3 117/5/3
f 122/4/3 119/4/3 118/4/3
f 122/5/3 118/5/3 121/5/3
f 123/4/3 119/4/3 122/4/3
f 124/4/3 119/4/3 123/4/3
f 132/4/3 121/4/3 120/4/3
f 133/3/3 122/3/3 121/3/3
f 133/4/3 121/4/3 132/4/3
f 134/1/3 123/1/3 122/1/3
f 134/3/3 122/3/3 133/3/3
f 135/1/3 123/1/3 134/1/3
f 137/4/3 126/4/3 125/4/3
f 138/5/3 127/5/3 126/5/3
f 138/4/3 126/4/3 137/4/3
f 139/4/3 128/4/3 127/4/3
f 139/5/3 127/5/3 138/5/3
f 140/5/3 129/5/3 128/5/3
f 140/4/3 128/4/3 139/4/3
f 141/4/3 130/4/3 129/4/3
f 141/5/3 129/5/3 140/5/3
f 142/5/3 131/5/3 130/5/3
f 142/4/3 130/4/3 141/4/3
f 143/4/3 132/4/3 131/4/3
f 143/5/3 131/5/3 142/5/3
f 144/4/3 132/4/3 143/4/3
f 146/2/3 135/2/3 134/2/3
f 147/1/3 136/1/3 135/1/3
f 147/2/3 135/2/3 146/2/3
f 148/1/3 136/1/3 147/1/3
f 149/4/3 145/4/3 144/4/3
f 150/3/3 146/3/3 145/3/3
f 150/4/3 145/4/3 149/4/3
f 151/3/3 146/3/3 150/3/3
f 153/5/3 151/5/3 150/5/3
f 154/4/3 152/4/3 151/4/3
f 154/5/3 151/5/3 153/5/3
f 155/4/3 152/4/3 154/4/3
f 158/4/3 157/4/3 156/4/3
f 159/4/3 157/4/3 158/4/3
f 160/4/4 161/4/4 162/4/4
f 162/4/4 161/4/4 163/4/4
f 164/5/4 165/5/4 168/5/4
f 165/4/4 166/4/4 169/4/4
f 168/5/4 165/5/4 169/5/4
f 169/4/4 166/4/4 170/4/4
f 170/4/4 166/4/4 171/4/4
f 167/4/4 168/4/4 179/4/4
f 168/3/4 169/3/4 180/3/4
f 179/4/4 168/4/4 180/4/4
f 169/1/4 170/1/4 181/1/4
f 180/3/4 169/3/4 181/3/4
f 181/1/4 170/1/4 182/1/4
f 172/4/4 173/4/4 184/4/4
f 173/5/4 174/5/4 185/5/4
f 184/4/4 173/4/4 185/4/4
f 174/4/4 175/4/4 186/4/4
f 185/5/4 174/5/4 186/5/4
f 175/5/4 176/5/4 187/5/4
f 186/4/4 175/4/4 187/4/4
f 176/4/4 177/4/4 188/4/4
f 187/5/4 176/5/4 188/5/4
f 177/5/4 178/5/4 189/5/4
f 188/4/4 177/4/4 189/4/4
f 178/4/4 179/4/4 190/4/4
f 189/5/4 178/5/4 190/5/4
f 190/4/4 179/4/4 191/4/4
f 182/1/4 183/1/4 194/1/4
f 194/1/4 183/1/4 195/1/4
f 191/4/4 192/4/4 196/4/4
f 192/3/4 193/3/4 197/3/4
f 196/4/4 192/4/4 197/4/4
f 197/3/4 193/3/4 198/3/4
f 197/5/4 198/5/4 200/5/4
f 198/4/4 199/4/4 201/4/4
f 200/5/4 198/5/4 201/5/4
f 201/4/4 199/4/4 202/4/4
f 203/4/4 204/4/4 205/4/4
f 205/4/4 204/4/4 206/4/4
f 207/5/4 208/5/4 210/5/4
f 208/4/4 209/4/4 211/4/4
f 210/5/4 208/5/4 211/5/4
f 211/4/4 209/4/4 212/4/4
f 215/4/5 214/4/5 213/4/5
f 216/4/5 214/4/5 215/4/5
f 220/4/5 218/4/5 217/4/5
f 221/4/5 218/4/5 220/4/5
f 223/4/5 220/4/5 219/4/5
f 224/4/5 220/4/5 223/4/5
f 225/4/5 222/4/5 221/4/5
f 226/4/5 222/4/5 225/4/5
f 227/4/5 225/4/5 224/4/5
f 228/4/5 225/4/5 227/4/5
f 231/5/5 230/5/5 229/5/5
f 232/5/5 230/5/5 231/5/5
f 237/5/5 234/5/5 233/5/5
f 238/5/5 234/5/5 237/5/5
f 239/5/5 236/5/5 235/5/5
f 240/5/5 236/5/5 239/5/5
f 243/5/5 242/5/5 241/5/5
f 244/5/5 242/5/5 243/5/5
f 245/3/6 246/3/6 247/3/6
f 247/3/6 246/3/6 248/3/6
f 248/3/6 249/3/6 250/3/6
f 250/3/6 249/3/6 251/3/6
f 252/1/6 253/1/6 254/1/6
f 254/1/6 253/1/6 255/1/6
f 255/2/6 256/2/6 257/2/6
f 257/2/6 256/2/6 258/2/6
f 259/4/6 260/4/6 261/4/6
f 261/4/6 260/4/6 262/4/6
f 263/4/6 264/4/6 267/4/6
f 267/4/6 264/4/6 268/4/6
f 265/4/6 266/4/6 269/4/6
f 269/4/6 266/4/6 270/4/6
f 271/4/6 272/4/6 273/4/6
f 273/4/6 272/4/6 274/4/6
f 275/1/6 276/1/6 277/1/6
f 277/1/6 276/1/6 278/1/6
