# MagicaVoxel @ Ephtracy

# group
o 

# material
mtllib dragon_upper_mouth.mtl
usemtl palette

# normals
vn -1 0 0
vn 1 0 0
vn 0 0 1
vn 0 0 -1
vn 0 -1 0
vn 0 1 0

# texcoords
vt 0.0253906 0.5
vt 0.0292969 0.5
vt 0.853516 0.5
vt 0.966797 0.5

# verts
v -0.2 3.6 4.5
v -0.2 3.6 4.4
v -0.2 3.7 4.9
v -0.2 3.7 4.7
v -0.2 3.7 4.6
v -0.2 3.7 4.5
v -0.2 3.7 4.4
v -0.2 3.7 4.3
v -0.2 3.8 4.8
v -0.2 3.8 4.7
v -0.2 3.8 4.6
v -0.2 3.8 4.5
v -0.2 3.8 4.4
v -0.2 3.8 4.3
v -0.2 3.8 4.2
v -0.2 3.9 4.9
v -0.2 3.9 4.8
v -0.2 3.9 4.7
v -0.2 3.9 4.5
v -0.2 3.9 4.2
v -0.2 4 4.8
v -0.2 4 4.7
v -0.1 3.5 4.6
v -0.1 3.5 4.5
v -0.1 3.6 5
v -0.1 3.6 4.9
v -0.1 3.6 4.8
v -0.1 3.6 4.6
v -0.1 3.6 4.5
v -0.1 3.7 5
v -0.1 3.7 4.9
v -0.1 3.7 4.8
v -0.1 3.7 4.7
v -0.1 3.7 4.6
v -0.1 3.7 4.5
v -0.1 3.8 4.7
v -0.1 3.8 4.6
v -0.1 3.8 4.5
v -0.1 3.9 5
v -0.1 3.9 4.9
v -0.1 3.9 4.8
v -0.1 3.9 4.7
v -0.1 3.9 4.6
v -0.1 3.9 4.5
v -0.1 3.9 4.4
v -0.1 4 4.9
v -0.1 4 4.8
v -0.1 4 4.7
v -0.1 4 4.6
v -0.1 4 4.4
v -0.1 4.1 4.8
v -0.1 4.1 4.6
v 0 3.9 4.8
v 0 3.9 4.7
v 0 4 4.8
v 0 4 4.7
v 0.1 3.5 4.6
v 0.1 3.5 4.5
v 0.1 3.6 4.6
v 0.1 3.6 4.5
v 0.1 3.7 4.8
v 0.1 3.7 4.7
v 0.1 3.7 4.6
v 0.1 3.8 4.9
v 0.1 3.8 4.8
v 0.1 3.8 4.7
v 0.1 3.8 4.6
v 0.1 3.8 4.5
v 0.1 3.9 4.9
v 0.1 3.9 4.8
v 0.1 3.9 4.6
v 0.1 3.9 4.5
v 0.2 3.6 4.6
v 0.2 3.6 4.5
v 0.2 3.6 4.4
v 0.2 3.7 4.6
v 0.2 3.7 4.5
v 0.2 3.8 4.6
v 0.2 3.8 4.5
v 0.2 3.8 4.4
v 0.2 3.9 4.5
v 0.2 3.9 4.4
v 0.3 3.7 4.4
v 0.3 3.7 4.3
v 0.3 3.8 4.4
v 0.3 3.8 4.3
v -0.1 3.6 4.5
v -0.1 3.6 4.4
v -0.1 3.7 4.8
v -0.1 3.7 4.7
v -0.1 3.7 4.6
v -0.1 3.7 4.5
v -0.1 3.7 4.4
v -0.1 3.7 4.3
v -0.1 3.8 4.9
v -0.1 3.8 4.8
v -0.1 3.8 4.7
v -0.1 3.8 4.6
v -0.1 3.8 4.5
v -0.1 3.8 4.4
v -0.1 3.8 4.3
v -0.1 3.9 4.9
v -0.1 3.9 4.8
v -0.1 3.9 4.7
v -0.1 3.9 4.5
v -0.1 3.9 4.4
v -0.1 4 4.8
v -0.1 4 4.7
v 0 3.5 4.6
v 0 3.5 4.5
v 0 3.6 4.6
v 0 3.6 4.5
v 0 3.7 4.7
v 0 3.7 4.6
v 0 3.8 4.7
v 0 3.8 4.6
v 0 3.8 4.5
v 0 3.9 4.7
v 0 3.9 4.6
v 0 3.9 4.5
v 0.1 3.6 5
v 0.1 3.6 4.9
v 0.1 3.6 4.6
v 0.1 3.6 4.5
v 0.1 3.7 5
v 0.1 3.7 4.9
v 0.1 3.7 4.6
v 0.1 3.7 4.5
v 0.1 3.8 4.9
v 0.1 3.9 5
v 0.1 3.9 4.9
v 0.1 3.9 4.8
v 0.1 3.9 4.6
v 0.1 4 4.9
v 0.1 4 4.8
v 0.1 4 4.6
v 0.1 4.1 4.8
v 0.1 4.1 4.6
v 0.2 3.5 4.6
v 0.2 3.5 4.5
v 0.2 3.6 4.8
v 0.2 3.6 4.6
v 0.2 3.6 4.5
v 0.2 3.7 4.9
v 0.2 3.7 4.8
v 0.2 3.7 4.7
v 0.2 3.7 4.6
v 0.2 3.8 4.9
v 0.2 3.8 4.7
v 0.2 3.8 4.6
v 0.2 3.8 4.5
v 0.2 3.9 4.9
v 0.2 3.9 4.6
v 0.2 3.9 4.5
v 0.2 3.9 4.4
v 0.2 4 4.6
v 0.2 4 4.4
v 0.3 3.6 4.6
v 0.3 3.6 4.4
v 0.3 3.7 4.6
v 0.3 3.7 4.5
v 0.3 3.7 4.4
v 0.3 3.8 4.6
v 0.3 3.8 4.5
v 0.3 3.9 4.5
v 0.3 3.9 4.4
v 0.4 3.7 4.4
v 0.4 3.7 4.3
v 0.4 3.8 4.3
v 0.4 3.8 4.2
v 0.4 3.9 4.4
v 0.4 3.9 4.2
v -0.1 3.6 5
v -0.1 3.7 5
v -0.1 3.9 5
v 0.1 3.6 5
v 0.1 3.7 5
v 0.1 3.9 5
v -0.2 3.7 4.9
v -0.2 3.9 4.9
v -0.1 3.7 4.9
v -0.1 3.9 4.9
v -0.1 4 4.9
v 0.1 3.7 4.9
v 0.1 3.8 4.9
v 0.1 3.9 4.9
v 0.1 4 4.9
v 0.2 3.7 4.9
v 0.2 3.8 4.9
v 0.2 3.9 4.9
v -0.2 3.9 4.8
v -0.2 4 4.8
v -0.1 3.6 4.8
v -0.1 3.7 4.8
v -0.1 3.9 4.8
v -0.1 4 4.8
v -0.1 4.1 4.8
v 0.1 4 4.8
v 0.1 4.1 4.8
v 0.2 3.6 4.8
v 0.2 3.7 4.8
v -0.1 3.7 4.7
v -0.1 3.8 4.7
v -0.1 3.9 4.7
v -0.1 4 4.7
v 0 3.7 4.7
v 0 3.8 4.7
v 0 3.9 4.7
v 0 4 4.7
v -0.2 3.7 4.6
v -0.2 3.8 4.6
v -0.1 3.5 4.6
v -0.1 3.6 4.6
v -0.1 3.7 4.6
v -0.1 3.8 4.6
v 0 3.5 4.6
v 0 3.6 4.6
v 0.1 3.5 4.6
v 0.1 3.6 4.6
v 0.1 3.9 4.6
v 0.1 4 4.6
v 0.2 3.5 4.6
v 0.2 3.6 4.6
v 0.2 3.7 4.6
v 0.2 3.8 4.6
v 0.2 3.9 4.6
v 0.2 4 4.6
v 0.3 3.6 4.6
v 0.3 3.7 4.6
v 0.3 3.8 4.6
v -0.2 3.6 4.5
v -0.2 3.7 4.5
v -0.2 3.8 4.5
v -0.2 3.9 4.5
v -0.1 3.6 4.5
v -0.1 3.7 4.5
v -0.1 3.8 4.5
v -0.1 3.9 4.5
v 0.2 3.8 4.5
v 0.2 3.9 4.5
v 0.3 3.8 4.5
v 0.3 3.9 4.5
v -0.1 3.8 4.4
v -0.1 3.9 4.4
v 0.2 3.8 4.4
v 0.2 3.9 4.4
v 0.3 3.7 4.4
v 0.3 3.9 4.4
v 0.4 3.7 4.4
v 0.4 3.9 4.4
v -0.1 3.6 4.9
v -0.1 3.7 4.9
v -0.1 3.8 4.9
v -0.1 3.9 4.9
v 0.1 3.6 4.9
v 0.1 3.7 4.9
v 0.1 3.8 4.9
v 0.1 3.9 4.9
v -0.1 3.7 4.8
v -0.1 3.8 4.8
v -0.1 3.9 4.8
v -0.1 4 4.8
v 0 3.9 4.8
v 0 4 4.8
v 0.1 3.7 4.8
v 0.1 3.8 4.8
v -0.2 3.7 4.7
v -0.2 3.8 4.7
v -0.2 3.9 4.7
v -0.2 4 4.7
v -0.1 3.7 4.7
v -0.1 3.8 4.7
v -0.1 3.9 4.7
v -0.1 4 4.7
v -0.1 3.7 4.6
v -0.1 3.8 4.6
v -0.1 4 4.6
v -0.1 4.1 4.6
v 0 3.7 4.6
v 0 3.8 4.6
v 0.1 3.6 4.6
v 0.1 3.7 4.6
v 0.1 3.8 4.6
v 0.1 4 4.6
v 0.1 4.1 4.6
v 0.2 3.6 4.6
v 0.2 3.7 4.6
v 0.2 3.8 4.6
v -0.1 3.5 4.5
v -0.1 3.6 4.5
v -0.1 3.7 4.5
v -0.1 3.8 4.5
v -0.1 3.9 4.5
v 0 3.5 4.5
v 0 3.6 4.5
v 0 3.7 4.5
v 0 3.8 4.5
v 0 3.9 4.5
v 0.1 3.5 4.5
v 0.1 3.6 4.5
v 0.1 3.7 4.5
v 0.1 3.8 4.5
v 0.1 3.9 4.5
v 0.2 3.5 4.5
v 0.2 3.6 4.5
v 0.2 3.8 4.5
v 0.2 3.9 4.5
v -0.2 3.6 4.4
v -0.2 3.7 4.4
v -0.1 3.6 4.4
v -0.1 3.7 4.4
v -0.1 3.9 4.4
v -0.1 4 4.4
v 0.2 3.6 4.4
v 0.2 3.8 4.4
v 0.2 3.9 4.4
v 0.2 4 4.4
v 0.3 3.6 4.4
v 0.3 3.7 4.4
v 0.3 3.8 4.4
v -0.2 3.7 4.3
v -0.2 3.8 4.3
v -0.1 3.7 4.3
v -0.1 3.8 4.3
v 0.3 3.7 4.3
v 0.3 3.8 4.3
v 0.4 3.7 4.3
v 0.4 3.8 4.3
v -0.2 3.8 4.2
v -0.2 3.9 4.2
v 0.4 3.8 4.2
v 0.4 3.9 4.2
v -0.1 3.5 4.6
v 0 3.5 4.6
v 0.1 3.5 4.6
v 0.2 3.5 4.6
v -0.1 3.5 4.5
v 0 3.5 4.5
v 0.1 3.5 4.5
v 0.2 3.5 4.5
v -0.1 3.6 5
v 0.1 3.6 5
v -0.1 3.6 4.9
v 0.1 3.6 4.9
v -0.1 3.6 4.8
v 0.2 3.6 4.8
v 0 3.6 4.7
v 0.1 3.6 4.7
v -0.1 3.6 4.6
v 0 3.6 4.6
v 0.1 3.6 4.6
v 0.2 3.6 4.6
v 0.3 3.6 4.6
v -0.2 3.6 4.5
v -0.1 3.6 4.5
v 0 3.6 4.5
v 0.1 3.6 4.5
v 0.2 3.6 4.5
v -0.2 3.6 4.4
v -0.1 3.6 4.4
v 0.2 3.6 4.4
v 0.3 3.6 4.4
v -0.2 3.7 4.9
v -0.1 3.7 4.9
v 0.1 3.7 4.9
v 0.2 3.7 4.9
v -0.1 3.7 4.8
v 0.2 3.7 4.8
v -0.2 3.7 4.7
v -0.1 3.7 4.7
v -0.2 3.7 4.6
v -0.1 3.7 4.6
v -0.2 3.7 4.5
v -0.1 3.7 4.5
v -0.2 3.7 4.4
v -0.1 3.7 4.4
v 0.3 3.7 4.4
v 0.4 3.7 4.4
v -0.2 3.7 4.3
v -0.1 3.7 4.3
v 0.3 3.7 4.3
v 0.4 3.7 4.3
v -0.1 3.8 4.6
v 0 3.8 4.6
v 0.1 3.8 4.6
v 0.2 3.8 4.6
v -0.1 3.8 4.5
v 0 3.8 4.5
v 0.1 3.8 4.5
v 0.2 3.8 4.5
v -0.1 3.8 4.4
v 0.2 3.8 4.4
v 0.3 3.8 4.4
v -0.2 3.8 4.3
v -0.1 3.8 4.3
v 0.3 3.8 4.3
v 0.4 3.8 4.3
v -0.2 3.8 4.2
v 0.4 3.8 4.2
v -0.1 3.9 4.9
v 0.1 3.9 4.9
v -0.1 3.9 4.8
v 0 3.9 4.8
v 0.1 3.9 4.8
v 0 3.9 4.7
v 0 3.9 4.6
v 0.1 3.9 4.6
v -0.1 3.9 4.5
v 0 3.9 4.5
v 0.1 3.9 4.5
v 0.2 3.9 4.5
v -0.1 3.9 4.4
v 0.2 3.9 4.4
v -0.1 4 4.8
v 0 4 4.8
v -0.1 4 4.7
v 0 4 4.7
v 0.1 3.6 4.6
v 0.2 3.6 4.6
v 0.1 3.6 4.5
v 0.2 3.6 4.5
v -0.1 3.7 4.8
v 0.1 3.7 4.8
v -0.1 3.7 4.7
v 0 3.7 4.7
v 0.1 3.7 4.7
v -0.1 3.7 4.6
v 0 3.7 4.6
v 0.1 3.7 4.6
v -0.1 3.7 4.5
v 0 3.7 4.5
v 0.1 3.7 4.5
v -0.1 3.8 4.9
v 0.1 3.8 4.9
v -0.1 3.8 4.8
v 0.1 3.8 4.8
v -0.2 3.8 4.6
v -0.1 3.8 4.6
v 0.2 3.8 4.6
v 0.3 3.8 4.6
v -0.2 3.8 4.5
v -0.1 3.8 4.5
v 0.2 3.8 4.5
v 0.3 3.8 4.5
v -0.1 3.9 5
v 0.1 3.9 5
v -0.2 3.9 4.9
v -0.1 3.9 4.9
v 0.1 3.9 4.9
v 0.2 3.9 4.9
v -0.2 3.9 4.8
v -0.1 3.9 4.8
v 0.1 3.9 4.8
v 0.1 3.9 4.6
v 0.2 3.9 4.6
v -0.2 3.9 4.5
v -0.1 3.9 4.5
v 0.2 3.9 4.5
v 0.3 3.9 4.5
v -0.1 3.9 4.4
v 0.2 3.9 4.4
v 0.3 3.9 4.4
v 0.4 3.9 4.4
v -0.2 3.9 4.2
v 0.4 3.9 4.2
v -0.1 4 4.9
v 0.1 4 4.9
v -0.2 4 4.8
v -0.1 4 4.8
v 0.1 4 4.8
v -0.2 4 4.7
v -0.1 4 4.7
v -0.1 4 4.6
v 0.1 4 4.6
v 0.2 4 4.6
v -0.1 4 4.4
v 0.2 4 4.4
v -0.1 4.1 4.8
v 0.1 4.1 4.8
v -0.1 4.1 4.6
v 0.1 4.1 4.6

# faces
f 6/2/1 2/2/1 1/2/1
f 7/2/1 2/2/1 6/2/1
f 9/2/1 4/2/1 3/2/1
f 10/2/1 4/2/1 9/2/1
f 11/2/1 6/2/1 5/2/1
f 12/1/1 7/1/1 6/1/1
f 12/2/1 6/2/1 11/2/1
f 13/2/1 8/2/1 7/2/1
f 13/1/1 7/1/1 12/1/1
f 14/2/1 8/2/1 13/2/1
f 16/2/1 9/2/1 3/2/1
f 17/1/1 10/1/1 9/1/1
f 17/2/1 9/2/1 16/2/1
f 18/1/1 10/1/1 17/1/1
f 19/2/1 15/2/1 14/2/1
f 19/2/1 14/2/1 13/2/1
f 19/2/1 13/2/1 12/2/1
f 20/2/1 15/2/1 19/2/1
f 21/2/1 18/2/1 17/2/1
f 22/2/1 18/2/1 21/2/1
f 28/4/1 24/4/1 23/4/1
f 29/4/1 24/4/1 28/4/1
f 30/4/1 26/4/1 25/4/1
f 31/4/1 26/4/1 30/4/1
f 32/4/1 28/4/1 27/4/1
f 32/4/1 29/4/1 28/4/1
f 33/4/1 29/4/1 32/4/1
f 34/4/1 29/4/1 33/4/1
f 35/4/1 29/4/1 34/4/1
f 36/2/1 34/2/1 33/2/1
f 37/2/1 34/2/1 36/2/1
f 39/2/1 31/2/1 30/2/1
f 40/2/1 31/2/1 39/2/1
f 42/1/1 38/1/1 37/1/1
f 42/1/1 37/1/1 36/1/1
f 43/1/1 38/1/1 42/1/1
f 44/1/1 38/1/1 43/1/1
f 46/2/1 41/2/1 40/2/1
f 47/2/1 41/2/1 46/2/1
f 48/1/1 43/1/1 42/1/1
f 49/2/1 44/2/1 43/2/1
f 49/2/1 45/2/1 44/2/1
f 49/1/1 43/1/1 48/1/1
f 50/2/1 45/2/1 49/2/1
f 51/2/1 48/2/1 47/2/1
f 51/2/1 49/2/1 48/2/1
f 52/2/1 49/2/1 51/2/1
f 55/1/1 54/1/1 53/1/1
f 56/1/1 54/1/1 55/1/1
f 59/4/1 58/4/1 57/4/1
f 60/4/1 58/4/1 59/4/1
f 65/2/1 62/2/1 61/2/1
f 66/1/1 63/1/1 62/1/1
f 66/2/1 62/2/1 65/2/1
f 67/1/1 63/1/1 66/1/1
f 69/1/1 65/1/1 64/1/1
f 69/1/1 66/1/1 65/1/1
f 69/1/1 67/1/1 66/1/1
f 70/1/1 67/1/1 69/1/1
f 71/2/1 68/2/1 67/2/1
f 71/1/1 67/1/1 70/1/1
f 72/2/1 68/2/1 71/2/1
f 76/2/1 74/2/1 73/2/1
f 76/2/1 75/2/1 74/2/1
f 77/2/1 75/2/1 76/2/1
f 78/1/1 77/1/1 76/1/1
f 79/2/1 75/2/1 77/2/1
f 79/1/1 77/1/1 78/1/1
f 80/2/1 75/2/1 79/2/1
f 81/2/1 80/2/1 79/2/1
f 82/2/1 80/2/1 81/2/1
f 85/2/1 84/2/1 83/2/1
f 86/2/1 84/2/1 85/2/1
f 87/2/2 88/2/2 92/2/2
f 92/2/2 88/2/2 93/2/2
f 89/2/2 90/2/2 96/2/2
f 96/2/2 90/2/2 97/2/2
f 91/2/2 92/2/2 98/2/2
f 92/1/2 93/1/2 99/1/2
f 98/2/2 92/2/2 99/2/2
f 93/2/2 94/2/2 100/2/2
f 99/1/2 93/1/2 100/1/2
f 100/2/2 94/2/2 101/2/2
f 95/2/2 96/2/2 102/2/2
f 96/1/2 97/1/2 103/1/2
f 102/2/2 96/2/2 103/2/2
f 103/1/2 97/1/2 104/1/2
f 99/2/2 100/2/2 105/2/2
f 105/2/2 100/2/2 106/2/2
f 103/2/2 104/2/2 107/2/2
f 107/2/2 104/2/2 108/2/2
f 109/4/2 110/4/2 111/4/2
f 111/4/2 110/4/2 112/4/2
f 113/2/2 114/2/2 115/2/2
f 115/2/2 114/2/2 116/2/2
f 115/1/2 116/1/2 118/1/2
f 116/1/2 117/1/2 118/1/2
f 118/1/2 117/1/2 119/1/2
f 119/1/2 117/1/2 120/1/2
f 121/4/2 122/4/2 125/4/2
f 125/4/2 122/4/2 126/4/2
f 123/3/2 124/3/2 127/3/2
f 127/3/2 124/3/2 128/3/2
f 125/2/2 126/2/2 129/2/2
f 125/2/2 129/2/2 130/2/2
f 130/2/2 129/2/2 131/2/2
f 131/2/2 132/2/2 134/2/2
f 132/1/2 133/1/2 135/1/2
f 134/2/2 132/2/2 135/2/2
f 135/1/2 133/1/2 136/1/2
f 135/2/2 136/2/2 137/2/2
f 137/2/2 136/2/2 138/2/2
f 139/4/2 140/4/2 142/4/2
f 142/4/2 140/4/2 143/4/2
f 141/4/2 142/4/2 145/4/2
f 145/4/2 142/4/2 146/4/2
f 146/4/2 142/4/2 147/4/2
f 144/2/2 145/2/2 148/2/2
f 145/2/2 146/2/2 148/2/2
f 146/1/2 147/1/2 149/1/2
f 148/2/2 146/2/2 149/2/2
f 149/1/2 147/1/2 150/1/2
f 149/1/2 150/1/2 152/1/2
f 148/1/2 149/1/2 152/1/2
f 150/2/2 151/2/2 153/2/2
f 152/1/2 150/1/2 153/1/2
f 153/2/2 151/2/2 154/2/2
f 153/2/2 154/2/2 156/2/2
f 154/2/2 155/2/2 156/2/2
f 156/2/2 155/2/2 157/2/2
f 158/2/2 159/2/2 160/2/2
f 160/2/2 159/2/2 161/2/2
f 161/2/2 159/2/2 162/2/2
f 160/1/2 161/1/2 163/1/2
f 161/2/2 162/2/2 164/2/2
f 163/1/2 161/1/2 164/1/2
f 164/2/2 162/2/2 165/2/2
f 165/2/2 162/2/2 166/2/2
f 167/2/2 168/2/2 169/2/2
f 167/2/2 169/2/2 171/2/2
f 169/2/2 170/2/2 171/2/2
f 171/2/2 170/2/2 172/2/2
f 176/4/3 174/4/3 173/4/3
f 177/2/3 175/2/3 174/2/3
f 177/4/3 174/4/3 176/4/3
f 178/2/3 175/2/3 177/2/3
f 181/2/3 180/2/3 179/2/3
f 182/2/3 180/2/3 181/2/3
f 186/2/3 183/2/3 182/2/3
f 187/2/3 183/2/3 186/2/3
f 188/2/3 185/2/3 184/2/3
f 189/1/3 186/1/3 185/1/3
f 189/2/3 185/2/3 188/2/3
f 190/1/3 186/1/3 189/1/3
f 195/2/3 192/2/3 191/2/3
f 196/2/3 192/2/3 195/2/3
f 198/2/3 197/2/3 196/2/3
f 199/2/3 197/2/3 198/2/3
f 200/4/3 194/4/3 193/4/3
f 201/4/3 194/4/3 200/4/3
f 206/2/3 203/2/3 202/2/3
f 207/1/3 205/1/3 204/1/3
f 207/2/3 203/2/3 206/2/3
f 207/1/3 204/1/3 203/1/3
f 208/1/3 205/1/3 207/1/3
f 209/1/3 205/1/3 208/1/3
f 214/2/3 211/2/3 210/2/3
f 215/2/3 211/2/3 214/2/3
f 216/4/3 213/4/3 212/4/3
f 217/4/3 213/4/3 216/4/3
f 222/4/3 219/4/3 218/4/3
f 223/4/3 219/4/3 222/4/3
f 226/2/3 221/2/3 220/2/3
f 227/2/3 221/2/3 226/2/3
f 228/2/3 224/2/3 223/2/3
f 229/1/3 225/1/3 224/1/3
f 229/2/3 224/2/3 228/2/3
f 230/1/3 225/1/3 229/1/3
f 235/2/3 232/2/3 231/2/3
f 236/2/3 232/2/3 235/2/3
f 237/2/3 234/2/3 233/2/3
f 238/2/3 234/2/3 237/2/3
f 241/2/3 240/2/3 239/2/3
f 242/2/3 240/2/3 241/2/3
f 245/2/3 244/2/3 243/2/3
f 246/2/3 244/2/3 245/2/3
f 249/2/3 248/2/3 247/2/3
f 250/2/3 248/2/3 249/2/3
f 251/4/4 252/4/4 255/4/4
f 255/4/4 252/4/4 256/4/4
f 253/2/4 254/2/4 257/2/4
f 257/2/4 254/2/4 258/2/4
f 261/2/4 262/2/4 263/2/4
f 263/2/4 262/2/4 264/2/4
f 259/2/4 260/2/4 265/2/4
f 265/2/4 260/2/4 266/2/4
f 267/2/4 268/2/4 271/2/4
f 268/1/4 269/1/4 272/1/4
f 271/2/4 268/2/4 272/2/4
f 269/2/4 270/2/4 273/2/4
f 272/1/4 269/1/4 273/1/4
f 273/2/4 270/2/4 274/2/4
f 275/2/4 276/2/4 279/2/4
f 279/2/4 276/2/4 280/2/4
f 277/2/4 278/2/4 284/2/4
f 284/2/4 278/2/4 285/2/4
f 281/4/4 282/4/4 286/4/4
f 282/1/4 283/1/4 287/1/4
f 286/4/4 282/4/4 287/4/4
f 287/1/4 283/1/4 288/1/4
f 289/4/4 290/4/4 294/4/4
f 290/4/4 291/4/4 294/4/4
f 294/4/4 291/4/4 295/4/4
f 295/4/4 291/4/4 296/4/4
f 292/1/4 293/1/4 297/1/4
f 297/1/4 293/1/4 298/1/4
f 295/3/4 296/3/4 300/3/4
f 300/3/4 296/3/4 301/3/4
f 299/4/4 300/4/4 304/4/4
f 304/4/4 300/4/4 305/4/4
f 302/2/4 303/2/4 306/2/4
f 306/2/4 303/2/4 307/2/4
f 308/2/4 309/2/4 310/2/4
f 310/2/4 309/2/4 311/2/4
f 312/2/4 313/2/4 316/2/4
f 316/2/4 313/2/4 317/2/4
f 314/2/4 315/2/4 318/2/4
f 318/2/4 315/2/4 319/2/4
f 319/2/4 315/2/4 320/2/4
f 321/2/4 322/2/4 323/2/4
f 323/2/4 322/2/4 324/2/4
f 325/2/4 326/2/4 327/2/4
f 327/2/4 326/2/4 328/2/4
f 329/2/4 330/2/4 331/2/4
f 331/2/4 330/2/4 332/2/4
f 337/4/5 334/4/5 333/4/5
f 338/4/5 334/4/5 337/4/5
f 339/4/5 336/4/5 335/4/5
f 340/4/5 336/4/5 339/4/5
f 343/4/5 342/4/5 341/4/5
f 344/4/5 342/4/5 343/4/5
f 347/4/5 346/4/5 345/4/5
f 348/4/5 346/4/5 347/4/5
f 349/4/5 347/4/5 345/4/5
f 350/3/5 348/3/5 347/3/5
f 350/4/5 347/4/5 349/4/5
f 351/4/5 346/4/5 348/4/5
f 351/3/5 348/3/5 350/3/5
f 352/4/5 346/4/5 351/4/5
f 356/3/5 351/3/5 350/3/5
f 357/3/5 351/3/5 356/3/5
f 358/2/5 353/2/5 352/2/5
f 359/2/5 355/2/5 354/2/5
f 360/2/5 355/2/5 359/2/5
f 361/2/5 353/2/5 358/2/5
f 362/2/5 353/2/5 361/2/5
f 367/2/5 364/2/5 363/2/5
f 367/2/5 366/2/5 365/2/5
f 367/2/5 365/2/5 364/2/5
f 368/2/5 366/2/5 367/2/5
f 369/2/5 367/2/5 363/2/5
f 370/2/5 367/2/5 369/2/5
f 373/2/5 372/2/5 371/2/5
f 374/2/5 372/2/5 373/2/5
f 379/2/5 376/2/5 375/2/5
f 380/2/5 376/2/5 379/2/5
f 381/2/5 378/2/5 377/2/5
f 382/2/5 378/2/5 381/2/5
f 387/1/5 384/1/5 383/1/5
f 388/1/5 384/1/5 387/1/5
f 389/2/5 386/2/5 385/2/5
f 390/2/5 386/2/5 389/2/5
f 395/2/5 392/2/5 391/2/5
f 395/2/5 393/2/5 392/2/5
f 396/2/5 393/2/5 395/2/5
f 398/2/5 395/2/5 394/2/5
f 398/2/5 397/2/5 396/2/5
f 398/2/5 396/2/5 395/2/5
f 399/2/5 397/2/5 398/2/5
f 402/2/5 401/2/5 400/2/5
f 403/2/5 401/2/5 402/2/5
f 404/2/5 401/2/5 403/2/5
f 405/1/5 404/1/5 403/1/5
f 406/1/5 404/1/5 405/1/5
f 407/1/5 404/1/5 406/1/5
f 409/2/5 407/2/5 406/2/5
f 410/2/5 407/2/5 409/2/5
f 412/2/5 410/2/5 409/2/5
f 412/2/5 411/2/5 410/2/5
f 412/2/5 409/2/5 408/2/5
f 413/2/5 411/2/5 412/2/5
f 416/2/5 415/2/5 414/2/5
f 417/2/5 415/2/5 416/2/5
f 418/4/6 419/4/6 420/4/6
f 420/4/6 419/4/6 421/4/6
f 422/4/6 423/4/6 424/4/6
f 424/4/6 423/4/6 425/4/6
f 425/4/6 423/4/6 426/4/6
f 425/3/6 426/3/6 428/3/6
f 428/3/6 426/3/6 429/3/6
f 427/4/6 428/4/6 430/4/6
f 428/3/6 429/3/6 431/3/6
f 430/4/6 428/4/6 431/4/6
f 431/3/6 429/3/6 432/3/6
f 433/2/6 434/2/6 435/2/6
f 435/2/6 434/2/6 436/2/6
f 437/2/6 438/2/6 441/2/6
f 441/2/6 438/2/6 442/2/6
f 439/1/6 440/1/6 443/1/6
f 443/1/6 440/1/6 444/1/6
f 445/2/6 446/2/6 448/2/6
f 448/2/6 446/2/6 449/2/6
f 447/2/6 448/2/6 451/2/6
f 451/2/6 448/2/6 452/2/6
f 449/1/6 450/1/6 453/1/6
f 453/1/6 450/1/6 454/1/6
f 454/1/6 450/1/6 455/1/6
f 456/2/6 457/2/6 460/2/6
f 458/2/6 459/2/6 461/2/6
f 461/2/6 459/2/6 462/2/6
f 456/2/6 460/2/6 464/2/6
f 462/2/6 463/2/6 464/2/6
f 461/2/6 462/2/6 464/2/6
f 460/2/6 461/2/6 464/2/6
f 464/2/6 463/2/6 465/2/6
f 466/2/6 467/2/6 469/2/6
f 469/2/6 467/2/6 470/2/6
f 468/2/6 469/2/6 471/2/6
f 471/2/6 469/2/6 472/2/6
f 473/2/6 474/2/6 476/2/6
f 474/2/6 475/2/6 476/2/6
f 476/2/6 475/2/6 477/2/6
f 478/2/6 479/2/6 480/2/6
f 480/2/6 479/2/6 481/2/6
