# MagicaVoxel @ Ephtracy

# group
o 

# material
mtllib body.mtl
usemtl palette

# normals
vn -1 0 0
vn 1 0 0
vn 0 0 1
vn 0 0 -1
vn 0 -1 0
vn 0 1 0

# texcoords
vt 0.830078 0.5
vt 0.833984 0.5
vt 0.966797 0.5
vt 0.970703 0.5
vt 0.978516 0.5
vt 0.982422 0.5

# verts
v -0.3 0.5 0
v -0.3 0.5 -0.1
v -0.3 0.5 -0.2
v -0.3 0.6 0
v -0.3 0.6 -0.1
v -0.3 0.6 -0.2
v -0.2 0.2 0.1
v -0.2 0.2 0
v -0.2 0.2 -0.1
v -0.2 0.2 -0.2
v -0.2 0.3 0.1
v -0.2 0.3 0
v -0.2 0.3 -0.1
v -0.2 0.3 -0.2
v -0.2 0.4 0.1
v -0.2 0.4 0
v -0.2 0.4 -0.1
v -0.2 0.4 -0.2
v -0.2 0.5 0.1
v -0.2 0.5 0
v -0.2 0.5 -0.1
v -0.2 0.5 -0.2
v -0.2 0.6 0.1
v -0.2 0.6 0
v 0.2 0.2 0.1
v 0.2 0.2 0
v 0.2 0.2 -0.1
v 0.2 0.2 -0.2
v 0.2 0.3 0.1
v 0.2 0.3 0
v 0.2 0.3 -0.1
v 0.2 0.3 -0.2
v 0.2 0.4 0.1
v 0.2 0.4 0
v 0.2 0.4 -0.1
v 0.2 0.4 -0.2
v 0.2 0.5 0.1
v 0.2 0.5 0
v 0.2 0.5 -0.1
v 0.2 0.5 -0.2
v 0.2 0.6 0.1
v 0.2 0.6 0
v 0.3 0.5 0
v 0.3 0.5 -0.1
v 0.3 0.5 -0.2
v 0.3 0.6 0
v 0.3 0.6 -0.1
v 0.3 0.6 -0.2
v -0.2 0.2 0.1
v -0.2 0.3 0.1
v -0.2 0.4 0.1
v -0.2 0.5 0.1
v -0.2 0.6 0.1
v -0.1 0.2 0.1
v -0.1 0.3 0.1
v -0.1 0.4 0.1
v -0.1 0.5 0.1
v 0 0.2 0.1
v 0 0.3 0.1
v 0 0.4 0.1
v 0 0.5 0.1
v 0 0.6 0.1
v 0.2 0.2 0.1
v 0.2 0.3 0.1
v 0.2 0.4 0.1
v 0.2 0.5 0.1
v 0.2 0.6 0.1
v -0.3 0.5 0
v -0.3 0.6 0
v -0.2 0.5 0
v -0.2 0.6 0
v 0.2 0.5 0
v 0.2 0.6 0
v 0.3 0.5 0
v 0.3 0.6 0
v -0.3 0.5 -0.2
v -0.3 0.6 -0.2
v -0.2 0.2 -0.2
v -0.2 0.3 -0.2
v -0.2 0.4 -0.2
v -0.2 0.5 -0.2
v -0.2 0.6 -0.2
v 0.2 0.2 -0.2
v 0.2 0.3 -0.2
v 0.2 0.4 -0.2
v 0.2 0.5 -0.2
v 0.2 0.6 -0.2
v 0.3 0.5 -0.2
v 0.3 0.6 -0.2
v -0.2 0.2 0.1
v -0.1 0.2 0.1
v 0 0.2 0.1
v 0.2 0.2 0.1
v -0.2 0.2 0
v -0.1 0.2 0
v 0 0.2 0
v 0.1 0.2 0
v 0.2 0.2 0
v -0.2 0.2 -0.1
v -0.1 0.2 -0.1
v 0.1 0.2 -0.1
v 0.2 0.2 -0.1
v -0.2 0.2 -0.2
v 0.2 0.2 -0.2
v -0.3 0.5 0
v -0.2 0.5 0
v 0.2 0.5 0
v 0.3 0.5 0
v -0.3 0.5 -0.1
v -0.2 0.5 -0.1
v 0.2 0.5 -0.1
v 0.3 0.5 -0.1
v -0.3 0.5 -0.2
v -0.2 0.5 -0.2
v 0.2 0.5 -0.2
v 0.3 0.5 -0.2
v -0.2 0.6 0.1
v 0 0.6 0.1
v 0.2 0.6 0.1
v -0.3 0.6 0
v -0.2 0.6 0
v 0 0.6 0
v 0.2 0.6 0
v 0.3 0.6 0
v -0.3 0.6 -0.1
v -0.2 0.6 -0.1
v 0.2 0.6 -0.1
v 0.3 0.6 -0.1
v -0.3 0.6 -0.2
v -0.2 0.6 -0.2
v 0.2 0.6 -0.2
v 0.3 0.6 -0.2

# faces
f 4/4/1 2/4/1 1/4/1
f 5/3/1 3/3/1 2/3/1
f 5/4/1 2/4/1 4/4/1
f 6/3/1 3/3/1 5/3/1
f 11/2/1 8/2/1 7/2/1
f 12/6/1 9/6/1 8/6/1
f 12/2/1 8/2/1 11/2/1
f 13/2/1 10/2/1 9/2/1
f 13/6/1 9/6/1 12/6/1
f 14/2/1 10/2/1 13/2/1
f 15/5/1 12/5/1 11/5/1
f 16/6/1 13/6/1 12/6/1
f 16/5/1 12/5/1 15/5/1
f 17/5/1 14/5/1 13/5/1
f 17/6/1 13/6/1 16/6/1
f 18/5/1 14/5/1 17/5/1
f 19/3/1 16/3/1 15/3/1
f 20/6/1 17/6/1 16/6/1
f 20/3/1 16/3/1 19/3/1
f 21/2/1 18/2/1 17/2/1
f 21/6/1 17/6/1 20/6/1
f 22/2/1 18/2/1 21/2/1
f 23/6/1 20/6/1 19/6/1
f 24/6/1 20/6/1 23/6/1
f 25/2/2 26/2/2 29/2/2
f 26/6/2 27/6/2 30/6/2
f 29/2/2 26/2/2 30/2/2
f 27/2/2 28/2/2 31/2/2
f 30/6/2 27/6/2 31/6/2
f 31/2/2 28/2/2 32/2/2
f 29/6/2 30/6/2 33/6/2
f 30/6/2 31/6/2 33/6/2
f 33/6/2 31/6/2 34/6/2
f 31/5/2 32/5/2 35/5/2
f 34/6/2 31/6/2 35/6/2
f 35/5/2 32/5/2 36/5/2
f 33/2/2 34/2/2 37/2/2
f 34/6/2 35/6/2 38/6/2
f 37/2/2 34/2/2 38/2/2
f 35/2/2 36/2/2 39/2/2
f 38/6/2 35/6/2 39/6/2
f 39/2/2 36/2/2 40/2/2
f 37/1/2 38/1/2 41/1/2
f 41/1/2 38/1/2 42/1/2
f 43/4/2 44/4/2 46/4/2
f 44/3/2 45/3/2 47/3/2
f 46/4/2 44/4/2 47/4/2
f 47/3/2 45/3/2 48/3/2
f 54/2/3 50/2/3 49/2/3
f 55/5/3 51/5/3 50/5/3
f 55/2/3 50/2/3 54/2/3
f 56/3/3 52/3/3 51/3/3
f 56/5/3 51/5/3 55/5/3
f 57/6/3 53/6/3 52/6/3
f 57/3/3 52/3/3 56/3/3
f 58/3/3 56/3/3 55/3/3
f 58/3/3 55/3/3 54/3/3
f 59/3/3 56/3/3 58/3/3
f 60/2/3 57/2/3 56/2/3
f 60/3/3 56/3/3 59/3/3
f 61/6/3 53/6/3 57/6/3
f 61/2/3 57/2/3 60/2/3
f 62/6/3 53/6/3 61/6/3
f 63/2/3 59/2/3 58/2/3
f 64/6/3 60/6/3 59/6/3
f 64/2/3 59/2/3 63/2/3
f 65/2/3 61/2/3 60/2/3
f 65/6/3 60/6/3 64/6/3
f 66/1/3 62/1/3 61/1/3
f 66/2/3 61/2/3 65/2/3
f 67/1/3 62/1/3 66/1/3
f 70/4/3 69/4/3 68/4/3
f 71/4/3 69/4/3 70/4/3
f 74/4/3 73/4/3 72/4/3
f 75/4/3 73/4/3 74/4/3
f 76/3/4 77/3/4 81/3/4
f 81/3/4 77/3/4 82/3/4
f 78/2/4 79/2/4 83/2/4
f 79/5/4 80/5/4 84/5/4
f 83/2/4 79/2/4 84/2/4
f 80/2/4 81/2/4 85/2/4
f 84/5/4 80/5/4 85/5/4
f 81/6/4 82/6/4 86/6/4
f 85/2/4 81/2/4 86/2/4
f 86/6/4 82/6/4 87/6/4
f 86/3/4 87/3/4 88/3/4
f 88/3/4 87/3/4 89/3/4
f 94/2/5 91/2/5 90/2/5
f 95/3/5 92/3/5 91/3/5
f 95/2/5 91/2/5 94/2/5
f 96/2/5 93/2/5 92/2/5
f 96/3/5 92/3/5 95/3/5
f 97/2/5 93/2/5 96/2/5
f 98/2/5 93/2/5 97/2/5
f 99/6/5 95/6/5 94/6/5
f 100/2/5 96/2/5 95/2/5
f 100/6/5 95/6/5 99/6/5
f 100/2/5 97/2/5 96/2/5
f 101/6/5 98/6/5 97/6/5
f 101/2/5 97/2/5 100/2/5
f 102/6/5 98/6/5 101/6/5
f 103/2/5 100/2/5 99/2/5
f 103/2/5 101/2/5 100/2/5
f 103/2/5 102/2/5 101/2/5
f 104/2/5 102/2/5 103/2/5
f 109/4/5 106/4/5 105/4/5
f 110/4/5 106/4/5 109/4/5
f 111/4/5 108/4/5 107/4/5
f 112/4/5 108/4/5 111/4/5
f 113/3/5 110/3/5 109/3/5
f 114/3/5 110/3/5 113/3/5
f 115/3/5 112/3/5 111/3/5
f 116/3/5 112/3/5 115/3/5
f 117/6/6 118/6/6 121/6/6
f 118/1/6 119/1/6 122/1/6
f 121/6/6 118/6/6 122/6/6
f 122/1/6 119/1/6 123/1/6
f 120/4/6 121/4/6 125/4/6
f 121/6/6 122/6/6 126/6/6
f 125/4/6 121/4/6 126/4/6
f 122/6/6 123/6/6 126/6/6
f 123/4/6 124/4/6 127/4/6
f 126/6/6 123/6/6 127/6/6
f 127/4/6 124/4/6 128/4/6
f 125/3/6 126/3/6 129/3/6
f 126/6/6 127/6/6 130/6/6
f 129/3/6 126/3/6 130/3/6
f 127/3/6 128/3/6 131/3/6
f 130/6/6 127/6/6 131/6/6
f 131/3/6 128/3/6 132/3/6
