# MagicaVoxel @ Ephtracy

# group
o 

# material
mtllib head.mtl
usemtl palette

# normals
vn -1 0 0
vn 1 0 0
vn 0 0 1
vn 0 0 -1
vn 0 -1 0
vn 0 1 0

# texcoords
vt 0.0605469 0.5
vt 0.341797 0.5
vt 0.826172 0.5
vt 0.958984 0.5
vt 0.966797 0.5
vt 0.970703 0.5
vt 0.974609 0.5
vt 0.978516 0.5
vt 0.994141 0.5

# verts
v -0.6 1.5 0.1
v -0.6 1.5 0
v -0.6 1.6 0.1
v -0.6 1.6 0
v -0.6 1.7 0.1
v -0.6 1.7 0
v -0.5 1.3 0
v -0.5 1.3 -0.1
v -0.5 1.4 0
v -0.5 1.4 -0.1
v -0.5 1.5 0
v -0.5 1.5 -0.1
v -0.4 0.8 0.2
v -0.4 0.8 0.1
v -0.4 0.8 -0.2
v -0.4 0.9 0.2
v -0.4 0.9 0.1
v -0.4 0.9 0
v -0.4 0.9 -0.1
v -0.4 0.9 -0.2
v -0.4 0.9 -0.3
v -0.4 1 0.1
v -0.4 1 0
v -0.4 1 -0.1
v -0.4 1 -0.2
v -0.4 1.1 0.1
v -0.4 1.1 0
v -0.4 1.1 -0.1
v -0.4 1.1 -0.2
v -0.4 1.2 0.2
v -0.4 1.2 0.1
v -0.4 1.2 0
v -0.4 1.2 -0.1
v -0.4 1.2 -0.2
v -0.4 1.2 -0.3
v -0.4 1.3 0.1
v -0.4 1.3 0
v -0.4 1.3 -0.1
v -0.4 1.3 -0.2
v -0.3 0.7 0.2
v -0.3 0.7 0
v -0.3 0.7 -0.3
v -0.3 0.8 0.3
v -0.3 0.8 0.2
v -0.3 0.8 0.1
v -0.3 0.8 0
v -0.3 0.8 -0.2
v -0.3 0.8 -0.3
v -0.3 0.9 0.2
v -0.3 0.9 -0.2
v -0.3 0.9 -0.3
v -0.3 0.9 -0.4
v -0.3 1.2 0.3
v -0.3 1.2 0.2
v -0.3 1.2 0.1
v -0.3 1.2 -0.2
v -0.3 1.2 -0.3
v -0.3 1.2 -0.4
v -0.3 1.3 0.2
v -0.3 1.3 0.1
v -0.3 1.3 -0.2
v -0.3 1.3 -0.3
v -0.2 0.7 0.3
v -0.2 0.7 0.2
v -0.2 0.7 -0.3
v -0.2 0.7 -0.4
v -0.2 0.8 0.3
v -0.2 0.8 0.2
v -0.2 0.8 -0.3
v -0.2 0.8 -0.4
v -0.2 0.8 -0.5
v -0.2 0.9 -0.3
v -0.2 0.9 -0.4
v -0.2 1.1 -0.4
v -0.2 1.1 -0.5
v -0.2 1.3 0.1
v -0.2 1.3 -0.2
v -0.2 1.4 0.1
v -0.2 1.4 -0.2
v -0.1 0.9 0.3
v -0.1 0.9 0.2
v -0.1 1 0.3
v -0.1 1 0.2
v 0.1 0.7 -0.3
v 0.1 0.7 -0.4
v 0.1 0.8 0.3
v 0.1 0.8 0.2
v 0.1 0.8 -0.3
v 0.1 0.8 -0.4
v 0.1 0.8 -0.5
v 0.1 0.9 0.3
v 0.1 0.9 0.2
v 0.1 0.9 -0.3
v 0.1 0.9 -0.5
v 0.2 0.9 0.3
v 0.2 0.9 0.2
v 0.2 1 0.3
v 0.2 1 0.2
v 0.3 0.8 0.2
v 0.3 0.8 0.1
v 0.3 0.9 0.2
v 0.3 0.9 0.1
v 0.3 1 0.2
v 0.3 1 0.1
v 0.3 1.3 0
v 0.3 1.3 -0.1
v 0.3 1.4 0
v 0.3 1.4 -0.1
v 0.4 1.4 0
v 0.4 1.4 -0.1
v 0.4 1.5 0
v 0.4 1.5 -0.1
v 0.5 1.5 0.1
v 0.5 1.5 0
v 0.5 1.6 0.1
v 0.5 1.6 0
v 0.5 1.7 0.1
v 0.5 1.7 0
v -0.5 1.5 0.1
v -0.5 1.5 0
v -0.5 1.6 0.1
v -0.5 1.6 0
v -0.5 1.7 0.1
v -0.5 1.7 0
v -0.4 1.4 0
v -0.4 1.4 -0.1
v -0.4 1.5 0
v -0.4 1.5 -0.1
v -0.3 0.8 0.2
v -0.3 0.8 0.1
v -0.3 0.9 0.2
v -0.3 0.9 0.1
v -0.3 1 0.2
v -0.3 1 0.1
v -0.3 1.3 0
v -0.3 1.3 -0.1
v -0.3 1.4 0
v -0.3 1.4 -0.1
v -0.2 0.9 0.3
v -0.2 0.9 0.2
v -0.2 1 0.3
v -0.2 1 0.2
v -0.1 0.7 -0.3
v -0.1 0.7 -0.4
v -0.1 0.8 0.3
v -0.1 0.8 0.2
v -0.1 0.8 -0.3
v -0.1 0.8 -0.4
v -0.1 0.8 -0.5
v -0.1 0.9 0.3
v -0.1 0.9 0.2
v -0.1 0.9 -0.3
v -0.1 0.9 -0.5
v 0.1 0.9 0.3
v 0.1 0.9 0.2
v 0.1 1 0.3
v 0.1 1 0.2
v 0.2 0.7 0.3
v 0.2 0.7 0.2
v 0.2 0.7 -0.3
v 0.2 0.7 -0.4
v 0.2 0.8 0.3
v 0.2 0.8 0.2
v 0.2 0.8 -0.3
v 0.2 0.8 -0.4
v 0.2 0.8 -0.5
v 0.2 0.9 -0.3
v 0.2 0.9 -0.4
v 0.2 1.1 -0.4
v 0.2 1.1 -0.5
v 0.2 1.3 0.1
v 0.2 1.3 -0.1
v 0.2 1.3 -0.2
v 0.2 1.4 0.1
v 0.2 1.4 -0.2
v 0.3 0.7 0.2
v 0.3 0.7 0
v 0.3 0.7 -0.1
v 0.3 0.7 -0.2
v 0.3 0.7 -0.3
v 0.3 0.8 0.3
v 0.3 0.8 0.2
v 0.3 0.8 0.1
v 0.3 0.8 0
v 0.3 0.8 -0.1
v 0.3 0.8 -0.2
v 0.3 0.8 -0.3
v 0.3 0.9 0.2
v 0.3 0.9 -0.2
v 0.3 0.9 -0.3
v 0.3 0.9 -0.4
v 0.3 1 0.3
v 0.3 1 0.2
v 0.3 1.1 0.3
v 0.3 1.1 0.2
v 0.3 1.2 0.3
v 0.3 1.2 0.2
v 0.3 1.2 0.1
v 0.3 1.2 -0.2
v 0.3 1.2 -0.3
v 0.3 1.2 -0.4
v 0.3 1.3 0.2
v 0.3 1.3 0.1
v 0.3 1.3 -0.2
v 0.3 1.3 -0.3
v 0.4 0.7 -0.1
v 0.4 0.7 -0.2
v 0.4 0.8 0.2
v 0.4 0.8 0.1
v 0.4 0.8 -0.1
v 0.4 0.8 -0.2
v 0.4 0.9 0.2
v 0.4 0.9 0.1
v 0.4 0.9 0
v 0.4 0.9 -0.1
v 0.4 0.9 -0.2
v 0.4 0.9 -0.3
v 0.4 1 0.1
v 0.4 1 0
v 0.4 1 -0.1
v 0.4 1 -0.2
v 0.4 1.1 0.1
v 0.4 1.1 0
v 0.4 1.1 -0.1
v 0.4 1.1 -0.2
v 0.4 1.2 0.2
v 0.4 1.2 0.1
v 0.4 1.2 0
v 0.4 1.2 -0.1
v 0.4 1.2 -0.2
v 0.4 1.2 -0.3
v 0.4 1.3 0.1
v 0.4 1.3 0
v 0.4 1.3 -0.1
v 0.4 1.3 -0.2
v 0.5 1.3 0
v 0.5 1.3 -0.1
v 0.5 1.4 0
v 0.5 1.4 -0.1
v 0.5 1.5 0
v 0.5 1.5 -0.1
v 0.6 1.5 0.1
v 0.6 1.5 0
v 0.6 1.6 0.1
v 0.6 1.6 0
v 0.6 1.7 0.1
v 0.6 1.7 0
v -0.3 0.8 0.3
v -0.3 1.2 0.3
v -0.2 0.7 0.3
v -0.2 0.8 0.3
v -0.2 0.9 0.3
v -0.2 1 0.3
v -0.1 0.8 0.3
v -0.1 0.9 0.3
v -0.1 1 0.3
v -5.96046e-008 1 0.3
v -5.96046e-008 1.2 0.3
v 0.1 0.8 0.3
v 0.1 0.9 0.3
v 0.1 1 0.3
v 0.2 0.7 0.3
v 0.2 0.8 0.3
v 0.2 0.9 0.3
v 0.2 1 0.3
v 0.2 1.1 0.3
v 0.2 1.2 0.3
v 0.3 0.8 0.3
v 0.3 1 0.3
v 0.3 1.1 0.3
v 0.3 1.2 0.3
v -0.4 0.8 0.2
v -0.4 0.9 0.2
v -0.4 1.2 0.2
v -0.3 0.7 0.2
v -0.3 0.8 0.2
v -0.3 0.9 0.2
v -0.3 1.2 0.2
v -0.3 1.3 0.2
v -0.2 0.7 0.2
v -0.2 0.8 0.2
v -0.2 1.2 0.2
v -0.2 1.3 0.2
v -5.96046e-008 1.2 0.2
v 0.2 0.7 0.2
v 0.2 0.8 0.2
v 0.2 1.2 0.2
v 0.3 0.7 0.2
v 0.3 0.8 0.2
v 0.3 0.9 0.2
v 0.3 1 0.2
v 0.3 1.1 0.2
v 0.3 1.2 0.2
v 0.3 1.3 0.2
v 0.4 0.8 0.2
v 0.4 0.9 0.2
v 0.4 1.2 0.2
v -0.6 1.5 0.1
v -0.6 1.6 0.1
v -0.6 1.7 0.1
v -0.5 1.5 0.1
v -0.5 1.6 0.1
v -0.5 1.7 0.1
v -0.4 1.2 0.1
v -0.4 1.3 0.1
v -0.3 0.8 0.1
v -0.3 0.9 0.1
v -0.3 1 0.1
v -0.3 1.2 0.1
v -0.3 1.3 0.1
v -0.2 0.8 0.1
v -0.2 0.9 0.1
v -0.2 1 0.1
v -0.2 1.3 0.1
v -0.2 1.4 0.1
v -0.1 0.9 0.1
v -0.1 1 0.1
v -0.1 1.3 0.1
v -0.1 1.4 0.1
v -5.96046e-008 1 0.1
v 0.1 0.9 0.1
v 0.1 1 0.1
v 0.2 0.8 0.1
v 0.2 0.9 0.1
v 0.2 1 0.1
v 0.2 1.3 0.1
v 0.2 1.4 0.1
v 0.3 0.8 0.1
v 0.3 0.9 0.1
v 0.3 1 0.1
v 0.3 1.2 0.1
v 0.3 1.3 0.1
v 0.4 1.2 0.1
v 0.4 1.3 0.1
v 0.5 1.5 0.1
v 0.5 1.6 0.1
v 0.5 1.7 0.1
v 0.6 1.5 0.1
v 0.6 1.6 0.1
v 0.6 1.7 0.1
v -0.5 1.3 0
v -0.5 1.4 0
v -0.5 1.5 0
v -0.4 1.3 0
v -0.4 1.4 0
v -0.4 1.5 0
v -0.3 1.3 0
v -0.3 1.4 0
v 0.3 1.3 0
v 0.3 1.4 0
v 0.4 1.3 0
v 0.4 1.4 0
v 0.4 1.5 0
v 0.5 1.3 0
v 0.5 1.4 0
v 0.5 1.5 0
v 0.3 0.7 -0.1
v 0.3 0.8 -0.1
v 0.4 0.7 -0.1
v 0.4 0.8 -0.1
v -0.3 0.8 0.2
v -0.3 0.9 0.2
v -0.3 1 0.2
v -0.2 0.9 0.2
v -0.2 1 0.2
v -0.1 0.8 0.2
v -0.1 0.9 0.2
v -0.1 1 0.2
v -5.96046e-008 1 0.2
v 0.1 0.8 0.2
v 0.1 0.9 0.2
v 0.1 1 0.2
v 0.2 0.9 0.2
v 0.2 1 0.2
v 0.3 0.8 0.2
v 0.3 0.9 0.2
v 0.3 1 0.2
v -0.6 1.5 0
v -0.6 1.6 0
v -0.6 1.7 0
v -0.5 1.5 0
v -0.5 1.6 0
v -0.5 1.7 0
v 0.5 1.5 0
v 0.5 1.6 0
v 0.5 1.7 0
v 0.6 1.5 0
v 0.6 1.6 0
v 0.6 1.7 0
v -0.5 1.3 -0.1
v -0.5 1.4 -0.1
v -0.5 1.5 -0.1
v -0.4 1.3 -0.1
v -0.4 1.4 -0.1
v -0.4 1.5 -0.1
v -0.3 1.3 -0.1
v -0.3 1.4 -0.1
v 0.3 1.3 -0.1
v 0.3 1.4 -0.1
v 0.4 1.3 -0.1
v 0.4 1.4 -0.1
v 0.4 1.5 -0.1
v 0.5 1.3 -0.1
v 0.5 1.4 -0.1
v 0.5 1.5 -0.1
v -0.4 0.8 -0.2
v -0.4 0.9 -0.2
v -0.4 1.2 -0.2
v -0.4 1.3 -0.2
v -0.3 0.8 -0.2
v -0.3 0.9 -0.2
v -0.3 1.2 -0.2
v -0.3 1.3 -0.2
v -0.2 1.3 -0.2
v -0.2 1.4 -0.2
v -0.1 1.3 -0.2
v -0.1 1.4 -0.2
v 0.2 1.3 -0.2
v 0.2 1.4 -0.2
v 0.3 0.7 -0.2
v 0.3 0.8 -0.2
v 0.3 0.9 -0.2
v 0.3 1.2 -0.2
v 0.3 1.3 -0.2
v 0.4 0.7 -0.2
v 0.4 0.8 -0.2
v 0.4 0.9 -0.2
v 0.4 1.2 -0.2
v 0.4 1.3 -0.2
v -0.4 0.9 -0.3
v -0.4 1.2 -0.3
v -0.3 0.7 -0.3
v -0.3 0.8 -0.3
v -0.3 0.9 -0.3
v -0.3 1.2 -0.3
v -0.3 1.3 -0.3
v -0.2 0.7 -0.3
v -0.2 0.8 -0.3
v -0.2 0.9 -0.3
v -0.1 0.7 -0.3
v -0.1 0.8 -0.3
v -0.1 0.9 -0.3
v 0.1 0.7 -0.3
v 0.1 0.8 -0.3
v 0.1 0.9 -0.3
v 0.2 0.7 -0.3
v 0.2 0.8 -0.3
v 0.2 0.9 -0.3
v 0.3 0.7 -0.3
v 0.3 0.8 -0.3
v 0.3 0.9 -0.3
v 0.3 1.2 -0.3
v 0.3 1.3 -0.3
v 0.4 0.9 -0.3
v 0.4 1.2 -0.3
v -0.3 0.9 -0.4
v -0.3 1.2 -0.4
v -0.2 0.7 -0.4
v -0.2 0.8 -0.4
v -0.2 0.9 -0.4
v -0.2 1.1 -0.4
v -0.1 0.7 -0.4
v -0.1 0.8 -0.4
v 0.1 0.7 -0.4
v 0.1 0.8 -0.4
v 0.2 0.7 -0.4
v 0.2 0.8 -0.4
v 0.2 0.9 -0.4
v 0.2 1.1 -0.4
v 0.3 0.9 -0.4
v 0.3 1.2 -0.4
v -0.2 0.8 -0.5
v -0.2 1.1 -0.5
v -0.1 0.8 -0.5
v -0.1 0.9 -0.5
v 0.1 0.8 -0.5
v 0.1 0.9 -0.5
v 0.2 0.8 -0.5
v 0.2 1.1 -0.5
v -0.2 0.7 0.3
v 0.2 0.7 0.3
v -0.3 0.7 0.2
v -0.2 0.7 0.2
v 0.2 0.7 0.2
v 0.3 0.7 0.2
v -0.2 0.7 0.1
v -5.96046e-008 0.7 0.1
v 0.2 0.7 0.1
v -0.3 0.7 0
v -0.2 0.7 0
v -5.96046e-008 0.7 0
v 0.2 0.7 0
v 0.3 0.7 0
v 0.3 0.7 -0.1
v 0.4 0.7 -0.1
v 0.3 0.7 -0.2
v 0.4 0.7 -0.2
v -0.3 0.7 -0.3
v -0.2 0.7 -0.3
v -0.1 0.7 -0.3
v 0.1 0.7 -0.3
v 0.2 0.7 -0.3
v 0.3 0.7 -0.3
v -0.2 0.7 -0.4
v -0.1 0.7 -0.4
v 0.1 0.7 -0.4
v 0.2 0.7 -0.4
v -0.3 0.8 0.3
v -0.2 0.8 0.3
v 0.2 0.8 0.3
v 0.3 0.8 0.3
v -0.4 0.8 0.2
v -0.3 0.8 0.2
v -0.2 0.8 0.2
v 0.2 0.8 0.2
v 0.3 0.8 0.2
v 0.4 0.8 0.2
v -0.4 0.8 0.1
v -0.3 0.8 0.1
v 0.3 0.8 0.1
v 0.4 0.8 0.1
v -0.3 0.8 0
v 0.3 0.8 0
v 0.3 0.8 -0.1
v 0.4 0.8 -0.1
v -0.4 0.8 -0.2
v -0.3 0.8 -0.2
v -0.2 0.8 -0.4
v -0.1 0.8 -0.4
v 0.1 0.8 -0.4
v 0.2 0.8 -0.4
v -0.2 0.8 -0.5
v -0.1 0.8 -0.5
v 0.1 0.8 -0.5
v 0.2 0.8 -0.5
v -0.1 0.9 0.3
v 0.1 0.9 0.3
v -0.1 0.9 0.2
v 0.1 0.9 0.2
v -0.4 0.9 -0.2
v -0.3 0.9 -0.2
v 0.3 0.9 -0.2
v 0.4 0.9 -0.2
v -0.4 0.9 -0.3
v -0.3 0.9 -0.3
v -0.2 0.9 -0.3
v -0.1 0.9 -0.3
v 0.1 0.9 -0.3
v 0.2 0.9 -0.3
v 0.3 0.9 -0.3
v 0.4 0.9 -0.3
v -0.3 0.9 -0.4
v -0.2 0.9 -0.4
v 0.2 0.9 -0.4
v 0.3 0.9 -0.4
v -0.1 0.9 -0.5
v 0.1 0.9 -0.5
v -0.2 1 0.3
v -0.1 1 0.3
v 0.1 1 0.3
v 0.2 1 0.3
v -0.3 1 0.2
v -0.2 1 0.2
v -0.1 1 0.2
v -5.96046e-008 1 0.2
v 0.1 1 0.2
v 0.2 1 0.2
v 0.3 1 0.2
v -0.3 1 0.1
v -0.2 1 0.1
v -0.1 1 0.1
v -5.96046e-008 1 0.1
v 0.1 1 0.1
v 0.2 1 0.1
v 0.3 1 0.1
v -0.5 1.3 0
v -0.4 1.3 0
v 0.4 1.3 0
v 0.5 1.3 0
v -0.5 1.3 -0.1
v -0.4 1.3 -0.1
v 0.4 1.3 -0.1
v 0.5 1.3 -0.1
v -0.6 1.5 0.1
v -0.5 1.5 0.1
v 0.5 1.5 0.1
v 0.6 1.5 0.1
v -0.6 1.5 0
v -0.5 1.5 0
v 0.5 1.5 0
v 0.6 1.5 0
v -0.1 0.8 0.3
v 0.1 0.8 0.3
v -0.3 0.8 0.2
v -0.1 0.8 0.2
v 0.1 0.8 0.2
v 0.3 0.8 0.2
v -0.3 0.8 0.1
v -0.2 0.8 0.1
v 0.2 0.8 0.1
v 0.3 0.8 0.1
v -0.2 0.9 0.3
v -0.1 0.9 0.3
v 0.1 0.9 0.3
v 0.2 0.9 0.3
v -0.2 0.9 0.2
v -0.1 0.9 0.2
v 0.1 0.9 0.2
v 0.2 0.9 0.2
v -0.2 1.1 -0.4
v 0.2 1.1 -0.4
v -0.2 1.1 -0.5
v 0.2 1.1 -0.5
v -0.3 1.2 0.3
v -5.96046e-008 1.2 0.3
v 0.2 1.2 0.3
v 0.3 1.2 0.3
v -0.4 1.2 0.2
v -0.3 1.2 0.2
v -0.2 1.2 0.2
v -5.96046e-008 1.2 0.2
v 0.2 1.2 0.2
v 0.3 1.2 0.2
v 0.4 1.2 0.2
v -0.4 1.2 0.1
v -0.3 1.2 0.1
v 0.3 1.2 0.1
v 0.4 1.2 0.1
v -0.4 1.2 -0.2
v -0.3 1.2 -0.2
v 0.3 1.2 -0.2
v 0.4 1.2 -0.2
v -0.4 1.2 -0.3
v -0.3 1.2 -0.3
v 0.3 1.2 -0.3
v 0.4 1.2 -0.3
v -0.3 1.2 -0.4
v 0.3 1.2 -0.4
v -0.3 1.3 0.2
v -0.2 1.3 0.2
v 0.3 1.3 0.2
v -0.4 1.3 0.1
v -0.3 1.3 0.1
v -0.2 1.3 0.1
v -0.1 1.3 0.1
v 0.2 1.3 0.1
v 0.3 1.3 0.1
v 0.4 1.3 0.1
v -0.4 1.3 0
v -0.3 1.3 0
v 0.3 1.3 0
v 0.4 1.3 0
v -0.4 1.3 -0.1
v -0.3 1.3 -0.1
v 0.2 1.3 -0.1
v 0.3 1.3 -0.1
v 0.4 1.3 -0.1
v -0.4 1.3 -0.2
v -0.3 1.3 -0.2
v -0.2 1.3 -0.2
v -0.1 1.3 -0.2
v 0.2 1.3 -0.2
v 0.3 1.3 -0.2
v 0.4 1.3 -0.2
v -0.3 1.3 -0.3
v 0.3 1.3 -0.3
v -0.2 1.4 0.1
v -0.1 1.4 0.1
v 0.2 1.4 0.1
v -0.4 1.4 0
v -0.3 1.4 0
v 0.3 1.4 0
v 0.4 1.4 0
v -0.4 1.4 -0.1
v -0.3 1.4 -0.1
v 0.3 1.4 -0.1
v 0.4 1.4 -0.1
v -0.2 1.4 -0.2
v -0.1 1.4 -0.2
v 0.2 1.4 -0.2
v -0.5 1.5 0
v -0.4 1.5 0
v 0.4 1.5 0
v 0.5 1.5 0
v -0.5 1.5 -0.1
v -0.4 1.5 -0.1
v 0.4 1.5 -0.1
v 0.5 1.5 -0.1
v -0.6 1.7 0.1
v -0.5 1.7 0.1
v 0.5 1.7 0.1
v 0.6 1.7 0.1
v -0.6 1.7 0
v -0.5 1.7 0
v 0.5 1.7 0
v 0.6 1.7 0

# faces
f 3/7/1 2/7/1 1/7/1
f 4/7/1 2/7/1 3/7/1
f 5/3/1 4/3/1 3/3/1
f 6/3/1 4/3/1 5/3/1
f 9/8/1 8/8/1 7/8/1
f 10/8/1 8/8/1 9/8/1
f 11/7/1 10/7/1 9/7/1
f 12/7/1 10/7/1 11/7/1
f 16/6/1 14/6/1 13/6/1
f 17/8/1 15/8/1 14/8/1
f 17/6/1 14/6/1 16/6/1
f 18/8/1 15/8/1 17/8/1
f 19/8/1 15/8/1 18/8/1
f 20/8/1 15/8/1 19/8/1
f 22/8/1 17/8/1 16/8/1
f 22/6/1 18/6/1 17/6/1
f 23/8/1 19/8/1 18/8/1
f 23/6/1 18/6/1 22/6/1
f 24/6/1 20/6/1 19/6/1
f 24/8/1 19/8/1 23/8/1
f 25/8/1 21/8/1 20/8/1
f 25/6/1 20/6/1 24/6/1
f 26/8/1 23/8/1 22/8/1
f 26/8/1 22/8/1 16/8/1
f 27/6/1 24/6/1 23/6/1
f 27/8/1 23/8/1 26/8/1
f 28/8/1 25/8/1 24/8/1
f 28/6/1 24/6/1 27/6/1
f 29/8/1 21/8/1 25/8/1
f 29/8/1 25/8/1 28/8/1
f 30/8/1 26/8/1 16/8/1
f 31/6/1 27/6/1 26/6/1
f 31/8/1 26/8/1 30/8/1
f 32/8/1 28/8/1 27/8/1
f 32/6/1 27/6/1 31/6/1
f 33/6/1 29/6/1 28/6/1
f 33/8/1 28/8/1 32/8/1
f 34/8/1 21/8/1 29/8/1
f 34/6/1 29/6/1 33/6/1
f 35/8/1 21/8/1 34/8/1
f 36/8/1 33/8/1 32/8/1
f 36/8/1 34/8/1 33/8/1
f 36/8/1 32/8/1 31/8/1
f 37/8/1 34/8/1 36/8/1
f 38/8/1 34/8/1 37/8/1
f 39/8/1 34/8/1 38/8/1
f 44/6/1 41/6/1 40/6/1
f 45/6/1 41/6/1 44/6/1
f 46/5/1 42/5/1 41/5/1
f 46/6/1 41/6/1 45/6/1
f 47/5/1 42/5/1 46/5/1
f 48/5/1 42/5/1 47/5/1
f 49/6/1 44/6/1 43/6/1
f 50/7/1 48/7/1 47/7/1
f 51/7/1 48/7/1 50/7/1
f 53/6/1 49/6/1 43/6/1
f 54/6/1 49/6/1 53/6/1
f 57/8/1 52/8/1 51/8/1
f 58/8/1 52/8/1 57/8/1
f 59/8/1 55/8/1 54/8/1
f 60/8/1 55/8/1 59/8/1
f 61/8/1 57/8/1 56/8/1
f 62/8/1 57/8/1 61/8/1
f 67/6/1 64/6/1 63/6/1
f 68/6/1 64/6/1 67/6/1
f 69/5/1 66/5/1 65/5/1
f 70/5/1 66/5/1 69/5/1
f 72/8/1 71/8/1 70/8/1
f 72/8/1 70/8/1 69/8/1
f 73/8/1 71/8/1 72/8/1
f 74/8/1 71/8/1 73/8/1
f 75/8/1 71/8/1 74/8/1
f 78/8/1 77/8/1 76/8/1
f 79/8/1 77/8/1 78/8/1
f 82/6/1 81/6/1 80/6/1
f 83/6/1 81/6/1 82/6/1
f 88/5/1 85/5/1 84/5/1
f 89/5/1 85/5/1 88/5/1
f 91/6/1 87/6/1 86/6/1
f 92/6/1 87/6/1 91/6/1
f 93/8/1 90/8/1 89/8/1
f 93/8/1 89/8/1 88/8/1
f 94/8/1 90/8/1 93/8/1
f 97/6/1 96/6/1 95/6/1
f 98/6/1 96/6/1 97/6/1
f 101/6/1 100/6/1 99/6/1
f 102/6/1 100/6/1 101/6/1
f 103/7/1 102/7/1 101/7/1
f 104/7/1 102/7/1 103/7/1
f 107/7/1 106/7/1 105/7/1
f 108/7/1 106/7/1 107/7/1
f 111/6/1 110/6/1 109/6/1
f 112/6/1 110/6/1 111/6/1
f 115/7/1 114/7/1 113/7/1
f 116/7/1 114/7/1 115/7/1
f 117/3/1 116/3/1 115/3/1
f 118/3/1 116/3/1 117/3/1
f 119/7/2 120/7/2 121/7/2
f 121/7/2 120/7/2 122/7/2
f 121/3/2 122/3/2 123/3/2
f 123/3/2 122/3/2 124/3/2
f 125/7/2 126/7/2 127/7/2
f 127/7/2 126/7/2 128/7/2
f 129/6/2 130/6/2 131/6/2
f 131/6/2 130/6/2 132/6/2
f 131/8/2 132/8/2 133/8/2
f 133/8/2 132/8/2 134/8/2
f 135/8/2 136/8/2 137/8/2
f 137/8/2 136/8/2 138/8/2
f 139/6/2 140/6/2 141/6/2
f 141/6/2 140/6/2 142/6/2
f 143/5/2 144/5/2 147/5/2
f 147/5/2 144/5/2 148/5/2
f 145/6/2 146/6/2 150/6/2
f 150/6/2 146/6/2 151/6/2
f 148/8/2 149/8/2 152/8/2
f 147/8/2 148/8/2 152/8/2
f 152/8/2 149/8/2 153/8/2
f 154/6/2 155/6/2 156/6/2
f 156/6/2 155/6/2 157/6/2
f 158/6/2 159/6/2 162/6/2
f 162/6/2 159/6/2 163/6/2
f 160/5/2 161/5/2 164/5/2
f 164/5/2 161/5/2 165/5/2
f 165/8/2 166/8/2 167/8/2
f 164/8/2 165/8/2 167/8/2
f 167/8/2 166/8/2 168/8/2
f 168/8/2 166/8/2 169/8/2
f 169/8/2 166/8/2 170/8/2
f 171/7/2 172/7/2 174/7/2
f 172/7/2 173/7/2 174/7/2
f 174/7/2 173/7/2 175/7/2
f 176/6/2 177/6/2 182/6/2
f 182/6/2 177/6/2 183/6/2
f 177/5/2 178/5/2 184/5/2
f 183/6/2 177/6/2 184/6/2
f 184/5/2 178/5/2 185/5/2
f 179/5/2 180/5/2 186/5/2
f 186/5/2 180/5/2 187/5/2
f 181/6/2 182/6/2 188/6/2
f 186/7/2 187/7/2 189/7/2
f 189/7/2 187/7/2 190/7/2
f 181/6/2 188/6/2 192/6/2
f 192/6/2 188/6/2 193/6/2
f 192/5/2 193/5/2 194/5/2
f 194/5/2 193/5/2 195/5/2
f 194/4/2 195/4/2 196/4/2
f 196/4/2 195/4/2 197/4/2
f 190/8/2 191/8/2 200/8/2
f 200/8/2 191/8/2 201/8/2
f 197/7/2 198/7/2 202/7/2
f 202/7/2 198/7/2 203/7/2
f 199/8/2 200/8/2 204/8/2
f 204/8/2 200/8/2 205/8/2
f 206/5/2 207/5/2 210/5/2
f 210/5/2 207/5/2 211/5/2
f 208/6/2 209/6/2 212/6/2
f 209/7/2 210/7/2 213/7/2
f 212/6/2 209/6/2 213/6/2
f 210/7/2 211/7/2 213/7/2
f 213/7/2 211/7/2 214/7/2
f 214/7/2 211/7/2 215/7/2
f 215/7/2 211/7/2 216/7/2
f 212/7/2 213/7/2 218/7/2
f 213/6/2 214/6/2 218/6/2
f 214/7/2 215/7/2 219/7/2
f 218/6/2 214/6/2 219/6/2
f 215/6/2 216/6/2 220/6/2
f 219/7/2 215/7/2 220/7/2
f 216/7/2 217/7/2 221/7/2
f 220/6/2 216/6/2 221/6/2
f 218/7/2 219/7/2 222/7/2
f 212/7/2 218/7/2 222/7/2
f 219/6/2 220/6/2 223/6/2
f 222/7/2 219/7/2 223/7/2
f 220/7/2 221/7/2 224/7/2
f 223/6/2 220/6/2 224/6/2
f 221/7/2 217/7/2 225/7/2
f 224/7/2 221/7/2 225/7/2
f 212/7/2 222/7/2 226/7/2
f 222/6/2 223/6/2 227/6/2
f 226/7/2 222/7/2 227/7/2
f 223/7/2 224/7/2 228/7/2
f 227/6/2 223/6/2 228/6/2
f 224/6/2 225/6/2 229/6/2
f 228/7/2 224/7/2 229/7/2
f 225/7/2 217/7/2 230/7/2
f 229/6/2 225/6/2 230/6/2
f 230/7/2 217/7/2 231/7/2
f 228/7/2 229/7/2 232/7/2
f 229/7/2 230/7/2 232/7/2
f 227/7/2 228/7/2 232/7/2
f 232/7/2 230/7/2 233/7/2
f 233/7/2 230/7/2 234/7/2
f 234/7/2 230/7/2 235/7/2
f 236/7/2 237/7/2 238/7/2
f 238/7/2 237/7/2 239/7/2
f 238/6/2 239/6/2 240/6/2
f 240/6/2 239/6/2 241/6/2
f 242/7/2 243/7/2 244/7/2
f 244/7/2 243/7/2 245/7/2
f 244/3/2 245/3/2 246/3/2
f 246/3/2 245/3/2 247/3/2
f 251/6/3 249/6/3 248/6/3
f 252/6/3 249/6/3 251/6/3
f 253/6/3 249/6/3 252/6/3
f 254/6/3 251/6/3 250/6/3
f 254/6/3 252/6/3 251/6/3
f 255/6/3 252/6/3 254/6/3
f 256/6/3 249/6/3 253/6/3
f 257/6/3 256/6/3 255/6/3
f 257/6/3 249/6/3 256/6/3
f 258/6/3 249/6/3 257/6/3
f 259/6/3 254/6/3 250/6/3
f 260/6/3 257/6/3 255/6/3
f 261/5/3 258/5/3 257/5/3
f 261/6/3 257/6/3 260/6/3
f 262/6/3 259/6/3 250/6/3
f 262/6/3 260/6/3 259/6/3
f 263/6/3 260/6/3 262/6/3
f 264/6/3 260/6/3 263/6/3
f 265/5/3 258/5/3 261/5/3
f 266/5/3 258/5/3 265/5/3
f 267/5/3 258/5/3 266/5/3
f 268/6/3 264/6/3 263/6/3
f 268/6/3 265/6/3 264/6/3
f 269/5/3 266/5/3 265/5/3
f 269/6/3 265/6/3 268/6/3
f 270/4/3 267/4/3 266/4/3
f 270/5/3 266/5/3 269/5/3
f 271/4/3 267/4/3 270/4/3
f 276/6/3 273/6/3 272/6/3
f 277/8/3 274/8/3 273/8/3
f 277/6/3 273/6/3 276/6/3
f 278/8/3 274/8/3 277/8/3
f 280/6/3 276/6/3 275/6/3
f 281/6/3 276/6/3 280/6/3
f 282/8/3 279/8/3 278/8/3
f 283/8/3 279/8/3 282/8/3
f 284/7/3 283/7/3 282/7/3
f 287/7/3 283/7/3 284/7/3
f 288/6/3 286/6/3 285/6/3
f 289/6/3 286/6/3 288/6/3
f 293/7/3 283/7/3 287/7/3
f 294/7/3 283/7/3 293/7/3
f 295/6/3 290/6/3 289/6/3
f 296/7/3 292/7/3 291/7/3
f 296/6/3 290/6/3 295/6/3
f 296/7/3 293/7/3 292/7/3
f 296/7/3 291/7/3 290/7/3
f 297/7/3 293/7/3 296/7/3
f 301/7/3 299/7/3 298/7/3
f 302/3/3 300/3/3 299/3/3
f 302/7/3 299/7/3 301/7/3
f 303/3/3 300/3/3 302/3/3
f 309/8/3 305/8/3 304/8/3
f 310/8/3 305/8/3 309/8/3
f 311/5/3 308/5/3 307/5/3
f 311/5/3 307/5/3 306/5/3
f 312/5/3 308/5/3 311/5/3
f 313/5/3 308/5/3 312/5/3
f 316/9/3 313/9/3 312/9/3
f 316/2/3 312/2/3 311/2/3
f 317/9/3 313/9/3 316/9/3
f 318/8/3 315/8/3 314/8/3
f 319/8/3 315/8/3 318/8/3
f 320/2/3 317/2/3 316/2/3
f 321/2/3 316/2/3 311/2/3
f 321/2/3 320/2/3 316/2/3
f 322/2/3 320/2/3 321/2/3
f 323/2/3 321/2/3 311/2/3
f 324/9/3 322/9/3 321/9/3
f 324/2/3 321/2/3 323/2/3
f 325/9/3 322/9/3 324/9/3
f 326/7/3 319/7/3 318/7/3
f 327/7/3 319/7/3 326/7/3
f 328/5/3 325/5/3 324/5/3
f 328/5/3 324/5/3 323/5/3
f 329/5/3 325/5/3 328/5/3
f 330/5/3 325/5/3 329/5/3
f 333/7/3 332/7/3 331/7/3
f 334/7/3 332/7/3 333/7/3
f 338/7/3 336/7/3 335/7/3
f 339/3/3 337/3/3 336/3/3
f 339/7/3 336/7/3 338/7/3
f 340/3/3 337/3/3 339/3/3
f 344/8/3 342/8/3 341/8/3
f 345/7/3 343/7/3 342/7/3
f 345/8/3 342/8/3 344/8/3
f 346/7/3 343/7/3 345/7/3
f 347/8/3 345/8/3 344/8/3
f 348/8/3 345/8/3 347/8/3
f 351/7/3 350/7/3 349/7/3
f 352/7/3 350/7/3 351/7/3
f 354/7/3 352/7/3 351/7/3
f 355/6/3 353/6/3 352/6/3
f 355/7/3 352/7/3 354/7/3
f 356/6/3 353/6/3 355/6/3
f 359/5/3 358/5/3 357/5/3
f 360/5/3 358/5/3 359/5/3
f 361/6/4 362/6/4 364/6/4
f 362/6/4 363/6/4 364/6/4
f 364/6/4 363/6/4 365/6/4
f 361/6/4 364/6/4 366/6/4
f 366/6/4 364/6/4 367/6/4
f 367/6/4 368/6/4 369/6/4
f 367/6/4 369/6/4 371/6/4
f 371/6/4 369/6/4 372/6/4
f 370/6/4 371/6/4 373/6/4
f 370/6/4 373/6/4 375/6/4
f 373/6/4 374/6/4 375/6/4
f 375/6/4 374/6/4 376/6/4
f 376/6/4 374/6/4 377/6/4
f 378/7/4 379/7/4 381/7/4
f 379/3/4 380/3/4 382/3/4
f 381/7/4 379/7/4 382/7/4
f 382/3/4 380/3/4 383/3/4
f 384/7/4 385/7/4 387/7/4
f 385/3/4 386/3/4 388/3/4
f 387/7/4 385/7/4 388/7/4
f 388/3/4 386/3/4 389/3/4
f 390/8/4 391/8/4 393/8/4
f 391/7/4 392/7/4 394/7/4
f 393/8/4 391/8/4 394/8/4
f 394/7/4 392/7/4 395/7/4
f 393/8/4 394/8/4 396/8/4
f 396/8/4 394/8/4 397/8/4
f 398/7/4 399/7/4 400/7/4
f 400/7/4 399/7/4 401/7/4
f 400/7/4 401/7/4 403/7/4
f 401/6/4 402/6/4 404/6/4
f 403/7/4 401/7/4 404/7/4
f 404/6/4 402/6/4 405/6/4
f 406/8/4 407/8/4 410/8/4
f 410/8/4 407/8/4 411/8/4
f 408/8/4 409/8/4 412/8/4
f 412/8/4 409/8/4 413/8/4
f 414/8/4 415/8/4 416/8/4
f 416/8/4 415/8/4 417/8/4
f 416/7/4 417/7/4 418/7/4
f 418/7/4 417/7/4 419/7/4
f 420/5/4 421/5/4 425/5/4
f 421/7/4 422/7/4 426/7/4
f 425/5/4 421/5/4 426/5/4
f 426/7/4 422/7/4 427/7/4
f 423/7/4 424/7/4 428/7/4
f 428/7/4 424/7/4 429/7/4
f 430/8/4 431/8/4 434/8/4
f 434/8/4 431/8/4 435/8/4
f 432/5/4 433/5/4 437/5/4
f 433/7/4 434/7/4 438/7/4
f 437/5/4 433/5/4 438/5/4
f 438/7/4 434/7/4 439/7/4
f 440/5/4 441/5/4 443/5/4
f 441/8/4 442/8/4 444/8/4
f 443/5/4 441/5/4 444/5/4
f 444/8/4 442/8/4 445/8/4
f 446/5/4 447/5/4 449/5/4
f 447/7/4 448/7/4 450/7/4
f 449/5/4 447/5/4 450/5/4
f 450/7/4 448/7/4 451/7/4
f 435/8/4 436/8/4 452/8/4
f 452/8/4 436/8/4 453/8/4
f 451/7/4 452/7/4 454/7/4
f 454/7/4 452/7/4 455/7/4
f 456/8/4 457/8/4 460/8/4
f 460/8/4 457/8/4 461/8/4
f 458/5/4 459/5/4 462/5/4
f 462/5/4 459/5/4 463/5/4
f 464/5/4 465/5/4 466/5/4
f 466/5/4 465/5/4 467/5/4
f 461/8/4 457/8/4 469/8/4
f 468/8/4 469/8/4 470/8/4
f 469/8/4 457/8/4 471/8/4
f 470/8/4 469/8/4 471/8/4
f 472/8/4 473/8/4 474/8/4
f 474/8/4 473/8/4 475/8/4
f 475/8/4 473/8/4 477/8/4
f 476/8/4 477/8/4 478/8/4
f 477/8/4 473/8/4 479/8/4
f 478/8/4 477/8/4 479/8/4
f 483/6/5 481/6/5 480/6/5
f 484/6/5 481/6/5 483/6/5
f 486/6/5 483/6/5 482/6/5
f 486/6/5 485/6/5 484/6/5
f 486/6/5 484/6/5 483/6/5
f 487/6/5 485/6/5 486/6/5
f 488/6/5 485/6/5 487/6/5
f 489/6/5 486/6/5 482/6/5
f 490/1/5 487/1/5 486/1/5
f 490/6/5 486/6/5 489/6/5
f 491/2/5 488/2/5 487/2/5
f 491/1/5 487/1/5 490/1/5
f 492/6/5 485/6/5 488/6/5
f 492/2/5 488/2/5 491/2/5
f 493/6/5 485/6/5 492/6/5
f 494/5/5 491/5/5 490/5/5
f 494/5/5 490/5/5 489/5/5
f 494/5/5 493/5/5 492/5/5
f 494/5/5 492/5/5 491/5/5
f 496/5/5 494/5/5 489/5/5
f 496/5/5 495/5/5 494/5/5
f 497/5/5 495/5/5 496/5/5
f 498/5/5 496/5/5 489/5/5
f 499/5/5 496/5/5 498/5/5
f 500/5/5 496/5/5 499/5/5
f 501/5/5 496/5/5 500/5/5
f 502/5/5 496/5/5 501/5/5
f 503/5/5 496/5/5 502/5/5
f 504/5/5 500/5/5 499/5/5
f 505/5/5 500/5/5 504/5/5
f 506/5/5 502/5/5 501/5/5
f 507/5/5 502/5/5 506/5/5
f 513/6/5 509/6/5 508/6/5
f 514/6/5 509/6/5 513/6/5
f 515/6/5 511/6/5 510/6/5
f 516/6/5 511/6/5 515/6/5
f 518/6/5 513/6/5 512/6/5
f 519/6/5 513/6/5 518/6/5
f 520/6/5 517/6/5 516/6/5
f 521/6/5 517/6/5 520/6/5
f 522/8/5 519/8/5 518/8/5
f 523/7/5 521/7/5 520/7/5
f 524/7/5 521/7/5 523/7/5
f 525/7/5 521/7/5 524/7/5
f 526/8/5 522/8/5 518/8/5
f 527/8/5 522/8/5 526/8/5
f 532/8/5 529/8/5 528/8/5
f 533/8/5 529/8/5 532/8/5
f 534/8/5 531/8/5 530/8/5
f 535/8/5 531/8/5 534/8/5
f 538/6/5 537/6/5 536/6/5
f 539/6/5 537/6/5 538/6/5
f 544/8/5 541/8/5 540/8/5
f 545/8/5 541/8/5 544/8/5
f 550/7/5 543/7/5 542/7/5
f 551/7/5 543/7/5 550/7/5
f 552/8/5 546/8/5 545/8/5
f 553/8/5 546/8/5 552/8/5
f 554/8/5 550/8/5 549/8/5
f 555/8/5 550/8/5 554/8/5
f 556/8/5 548/8/5 547/8/5
f 557/8/5 548/8/5 556/8/5
f 563/6/5 559/6/5 558/6/5
f 564/6/5 559/6/5 563/6/5
f 566/5/5 561/5/5 560/5/5
f 567/5/5 561/5/5 566/5/5
f 569/5/5 563/5/5 562/5/5
f 570/7/5 564/7/5 563/7/5
f 570/5/5 563/5/5 569/5/5
f 571/5/5 565/5/5 564/5/5
f 571/7/5 564/7/5 570/7/5
f 572/7/5 566/7/5 565/7/5
f 572/5/5 565/5/5 571/5/5
f 572/7/5 567/7/5 566/7/5
f 573/7/5 567/7/5 572/7/5
f 574/5/5 568/5/5 567/5/5
f 574/7/5 567/7/5 573/7/5
f 575/5/5 568/5/5 574/5/5
f 580/8/5 577/8/5 576/8/5
f 581/8/5 577/8/5 580/8/5
f 582/7/5 579/7/5 578/7/5
f 583/7/5 579/7/5 582/7/5
f 588/7/5 585/7/5 584/7/5
f 589/7/5 585/7/5 588/7/5
f 590/7/5 587/7/5 586/7/5
f 591/7/5 587/7/5 590/7/5
f 592/6/6 593/6/6 595/6/6
f 595/6/6 593/6/6 596/6/6
f 594/6/6 595/6/6 598/6/6
f 596/6/6 597/6/6 598/6/6
f 595/6/6 596/6/6 598/6/6
f 598/6/6 597/6/6 599/6/6
f 599/6/6 597/6/6 600/6/6
f 600/6/6 597/6/6 601/6/6
f 602/6/6 603/6/6 606/6/6
f 606/6/6 603/6/6 607/6/6
f 604/6/6 605/6/6 608/6/6
f 608/6/6 605/6/6 609/6/6
f 610/8/6 611/8/6 612/8/6
f 612/8/6 611/8/6 613/8/6
f 614/6/6 615/6/6 619/6/6
f 619/6/6 615/6/6 620/6/6
f 615/5/6 616/5/6 621/5/6
f 620/6/6 615/6/6 621/6/6
f 616/4/6 617/4/6 622/4/6
f 621/5/6 616/5/6 622/5/6
f 622/4/6 617/4/6 623/4/6
f 618/8/6 619/8/6 625/8/6
f 625/8/6 619/8/6 626/8/6
f 623/7/6 624/7/6 627/7/6
f 627/7/6 624/7/6 628/7/6
f 629/8/6 630/8/6 633/8/6
f 633/8/6 630/8/6 634/8/6
f 631/7/6 632/7/6 635/7/6
f 635/7/6 632/7/6 636/7/6
f 634/8/6 635/8/6 637/8/6
f 637/8/6 635/8/6 638/8/6
f 639/8/6 640/8/6 643/8/6
f 640/7/6 641/7/6 644/7/6
f 643/8/6 640/8/6 644/8/6
f 644/7/6 641/7/6 645/7/6
f 645/7/6 641/7/6 646/7/6
f 646/7/6 641/7/6 647/7/6
f 642/8/6 643/8/6 649/8/6
f 643/8/6 644/8/6 649/8/6
f 649/8/6 644/8/6 650/8/6
f 647/7/6 648/7/6 651/7/6
f 646/7/6 647/7/6 651/7/6
f 651/7/6 648/7/6 652/7/6
f 650/8/6 644/8/6 654/8/6
f 646/7/6 651/7/6 655/7/6
f 655/7/6 651/7/6 656/7/6
f 653/8/6 654/8/6 658/8/6
f 654/8/6 644/8/6 659/8/6
f 658/8/6 654/8/6 659/8/6
f 659/8/6 644/8/6 660/8/6
f 655/8/6 656/8/6 662/8/6
f 656/7/6 657/7/6 663/7/6
f 662/8/6 656/8/6 663/8/6
f 663/7/6 657/7/6 664/7/6
f 661/8/6 662/8/6 665/8/6
f 660/8/6 661/8/6 665/8/6
f 662/8/6 663/8/6 665/8/6
f 659/8/6 660/8/6 665/8/6
f 665/8/6 663/8/6 666/8/6
f 670/8/6 671/8/6 674/8/6
f 674/8/6 671/8/6 675/8/6
f 672/7/6 673/7/6 676/7/6
f 676/7/6 673/7/6 677/7/6
f 667/8/6 668/8/6 678/8/6
f 668/7/6 669/7/6 679/7/6
f 678/8/6 668/8/6 679/8/6
f 679/7/6 669/7/6 680/7/6
f 681/7/6 682/7/6 685/7/6
f 685/7/6 682/7/6 686/7/6
f 683/6/6 684/6/6 687/6/6
f 687/6/6 684/6/6 688/6/6
f 689/3/6 690/3/6 693/3/6
f 693/3/6 690/3/6 694/3/6
f 691/3/6 692/3/6 695/3/6
f 695/3/6 692/3/6 696/3/6
