# MagicaVoxel @ Ephtracy

# group
o 

# material
mtllib sword.mtl
usemtl palette

# normals
vn -1 0 0
vn 1 0 0
vn 0 0 1
vn 0 0 -1
vn 0 -1 0
vn 0 1 0

# texcoords
vt 0.958984 0.5
vt 0.986328 0.5

# verts
v 0.2 0.1 0.1
v 0.2 0.1 5.96046e-008
v 0.2 0.2 0.6
v 0.2 0.2 0.2
v 0.2 0.2 0.1
v 0.2 0.2 5.96046e-008
v 0.2 0.2 -0.1
v 0.2 0.3 0.6
v 0.2 0.3 0.2
v 0.2 0.3 0.1
v 0.2 0.3 5.96046e-008
v 0.2 0.3 -0.1
v 0.2 0.4 0.1
v 0.2 0.4 5.96046e-008
v 0.3 0.1 0.1
v 0.3 0.1 5.96046e-008
v 0.3 0.2 0.6
v 0.3 0.2 0.2
v 0.3 0.2 0.1
v 0.3 0.2 5.96046e-008
v 0.3 0.2 -0.1
v 0.3 0.3 0.6
v 0.3 0.3 0.2
v 0.3 0.3 0.1
v 0.3 0.3 5.96046e-008
v 0.3 0.3 -0.1
v 0.3 0.4 0.1
v 0.3 0.4 5.96046e-008
v 0.2 0.2 0.6
v 0.2 0.3 0.6
v 0.3 0.2 0.6
v 0.3 0.3 0.6
v 0.2 0.1 0.1
v 0.2 0.2 0.1
v 0.2 0.3 0.1
v 0.2 0.4 0.1
v 0.3 0.1 0.1
v 0.3 0.2 0.1
v 0.3 0.3 0.1
v 0.3 0.4 0.1
v 0.2 0.1 5.96046e-008
v 0.2 0.2 5.96046e-008
v 0.2 0.3 5.96046e-008
v 0.2 0.4 5.96046e-008
v 0.3 0.1 5.96046e-008
v 0.3 0.2 5.96046e-008
v 0.3 0.3 5.96046e-008
v 0.3 0.4 5.96046e-008
v 0.2 0.2 -0.1
v 0.2 0.3 -0.1
v 0.3 0.2 -0.1
v 0.3 0.3 -0.1
v 0.2 0.1 0.1
v 0.3 0.1 0.1
v 0.2 0.1 5.96046e-008
v 0.3 0.1 5.96046e-008
v 0.2 0.2 0.6
v 0.3 0.2 0.6
v 0.2 0.2 0.2
v 0.3 0.2 0.2
v 0.2 0.2 0.1
v 0.3 0.2 0.1
v 0.2 0.2 5.96046e-008
v 0.3 0.2 5.96046e-008
v 0.2 0.2 -0.1
v 0.3 0.2 -0.1
v 0.2 0.3 0.6
v 0.3 0.3 0.6
v 0.2 0.3 0.2
v 0.3 0.3 0.2
v 0.2 0.3 0.1
v 0.3 0.3 0.1
v 0.2 0.3 5.96046e-008
v 0.3 0.3 5.96046e-008
v 0.2 0.3 -0.1
v 0.3 0.3 -0.1
v 0.2 0.4 0.1
v 0.3 0.4 0.1
v 0.2 0.4 5.96046e-008
v 0.3 0.4 5.96046e-008

# faces
f 5/2/1 2/2/1 1/2/1
f 6/2/1 2/2/1 5/2/1
f 8/1/1 4/1/1 3/1/1
f 9/2/1 5/2/1 4/2/1
f 9/1/1 4/1/1 8/1/1
f 10/1/1 6/1/1 5/1/1
f 10/2/1 5/2/1 9/2/1
f 11/2/1 7/2/1 6/2/1
f 11/1/1 6/1/1 10/1/1
f 12/2/1 7/2/1 11/2/1
f 13/2/1 11/2/1 10/2/1
f 14/2/1 11/2/1 13/2/1
f 15/2/2 16/2/2 19/2/2
f 19/2/2 16/2/2 20/2/2
f 17/1/2 18/1/2 22/1/2
f 18/2/2 19/2/2 23/2/2
f 22/1/2 18/1/2 23/1/2
f 19/1/2 20/1/2 24/1/2
f 23/2/2 19/2/2 24/2/2
f 20/2/2 21/2/2 25/2/2
f 24/1/2 20/1/2 25/1/2
f 25/2/2 21/2/2 26/2/2
f 24/2/2 25/2/2 27/2/2
f 27/2/2 25/2/2 28/2/2
f 31/1/3 30/1/3 29/1/3
f 32/1/3 30/1/3 31/1/3
f 37/2/3 34/2/3 33/2/3
f 38/2/3 34/2/3 37/2/3
f 39/2/3 36/2/3 35/2/3
f 40/2/3 36/2/3 39/2/3
f 41/2/4 42/2/4 45/2/4
f 45/2/4 42/2/4 46/2/4
f 43/2/4 44/2/4 47/2/4
f 47/2/4 44/2/4 48/2/4
f 49/2/4 50/2/4 51/2/4
f 51/2/4 50/2/4 52/2/4
f 55/2/5 54/2/5 53/2/5
f 56/2/5 54/2/5 55/2/5
f 59/1/5 58/1/5 57/1/5
f 60/1/5 58/1/5 59/1/5
f 61/2/5 60/2/5 59/2/5
f 62/2/5 60/2/5 61/2/5
f 65/2/5 64/2/5 63/2/5
f 66/2/5 64/2/5 65/2/5
f 67/1/6 68/1/6 69/1/6
f 69/1/6 68/1/6 70/1/6
f 69/2/6 70/2/6 71/2/6
f 71/2/6 70/2/6 72/2/6
f 73/2/6 74/2/6 75/2/6
f 75/2/6 74/2/6 76/2/6
f 77/2/6 78/2/6 79/2/6
f 79/2/6 78/2/6 80/2/6
