# MagicaVoxel @ Ephtracy

# group
o 

# material
mtllib HealingPotion.mtl
usemtl palette

# normals
vn -1 0 0
vn 1 0 0
vn 0 0 1
vn 0 0 -1
vn 0 -1 0
vn 0 1 0

# texcoords
vt 0.841797 0.5
vt 0.849609 0.5
vt 0.857422 0.5
vt 0.861328 0.5
vt 0.865234 0.5
vt 0.962891 0.5
vt 0.966797 0.5
vt 0.982422 0.5

# verts
v -0.4 0.1 0.2
v -0.4 0.1 0.1
v -0.4 0.1 0
v -0.4 0.1 -0.1
v -0.4 0.2 0.1
v -0.4 0.2 0
v -0.4 0.2 -0.1
v -0.4 0.3 0.2
v -0.4 0.3 0.1
v -0.4 0.3 0
v -0.4 0.4 0.2
v -0.4 0.4 0.1
v -0.4 0.4 0
v -0.4 0.4 -0.1
v -0.3 0 0.2
v -0.3 0 0.1
v -0.3 0 0
v -0.3 0 -0.1
v -0.3 0.1 0.3
v -0.3 0.1 0.2
v -0.3 0.1 0.1
v -0.3 0.1 0
v -0.3 0.1 -0.1
v -0.3 0.1 -0.2
v -0.3 0.2 -0.1
v -0.3 0.3 0.3
v -0.3 0.3 0.2
v -0.3 0.3 -0.1
v -0.3 0.3 -0.2
v -0.3 0.4 0.3
v -0.3 0.4 0.2
v -0.3 0.4 0.1
v -0.3 0.4 0
v -0.3 0.4 -0.1
v -0.3 0.4 -0.2
v -0.3 0.5 0.2
v -0.3 0.5 0.1
v -0.3 0.5 0
v -0.3 0.5 -0.1
v -0.3 0.7 0.2
v -0.3 0.7 0.1
v -0.3 0.7 0
v -0.3 0.7 -0.1
v -0.2 0 0.3
v -0.2 0 0.2
v -0.2 0 -0.1
v -0.2 0 -0.2
v -0.2 0.1 0.4
v -0.2 0.1 0.3
v -0.2 0.1 0.2
v -0.2 0.1 -0.1
v -0.2 0.1 -0.2
v -0.2 0.1 -0.3
v -0.2 0.2 0.4
v -0.2 0.2 0.3
v -0.2 0.3 0.3
v -0.2 0.3 -0.2
v -0.2 0.3 -0.3
v -0.2 0.4 0.4
v -0.2 0.4 0.3
v -0.2 0.4 0.2
v -0.2 0.4 -0.1
v -0.2 0.4 -0.2
v -0.2 0.4 -0.3
v -0.2 0.5 0.3
v -0.2 0.5 0.2
v -0.2 0.5 -0.1
v -0.2 0.5 -0.2
v -0.2 0.7 0.3
v -0.2 0.7 0.2
v -0.2 0.7 0.1
v -0.2 0.7 0
v -0.2 0.7 -0.1
v -0.2 0.7 -0.2
v -0.2 0.8 0.2
v -0.2 0.8 0.1
v -0.2 0.8 0
v -0.2 0.8 -0.1
v -0.2 0.9 0.1
v -0.2 0.9 0
v -0.2 1 0.1
v -0.2 1 0
v -0.2 1.1 0.1
v -0.2 1.1 0
v -0.1 0.8 0.2
v -0.1 0.8 0.1
v -0.1 0.8 0
v -0.1 0.8 -0.1
v -0.1 0.9 0.2
v -0.1 0.9 0.1
v -0.1 0.9 0
v -0.1 0.9 -0.1
v -0.1 1 0.2
v -0.1 1 0.1
v -0.1 1 0
v -0.1 1 -0.1
v -0.1 1.1 0.2
v -0.1 1.1 0.1
v -0.1 1.1 0
v -0.1 1.1 -0.1
v -0.1 1.2 0.1
v -0.1 1.2 0
v 0 0.8 0.2
v 0 0.8 0.1
v 0 0.8 0
v 0 0.8 -0.1
v 0 0.9 0.2
v 0 0.9 0.1
v 0 0.9 0
v 0 0.9 -0.1
v 0 1 0.2
v 0 1 0.1
v 0 1 0
v 0 1 -0.1
v 0 1.1 0.2
v 0 1.1 0.1
v 0 1.1 0
v 0 1.1 -0.1
v 0 1.2 0.1
v 0 1.2 0
v 0.1 0 0.3
v 0.1 0 0.2
v 0.1 0 -0.1
v 0.1 0 -0.2
v 0.1 0.1 0.4
v 0.1 0.1 0.3
v 0.1 0.1 0.2
v 0.1 0.1 -0.1
v 0.1 0.1 -0.2
v 0.1 0.1 -0.3
v 0.1 0.2 -0.2
v 0.1 0.2 -0.3
v 0.1 0.3 0.4
v 0.1 0.3 0.3
v 0.1 0.3 -0.2
v 0.1 0.4 0.4
v 0.1 0.4 0.3
v 0.1 0.4 0.2
v 0.1 0.4 -0.1
v 0.1 0.4 -0.2
v 0.1 0.4 -0.3
v 0.1 0.5 0.3
v 0.1 0.5 0.2
v 0.1 0.5 -0.1
v 0.1 0.5 -0.2
v 0.1 0.7 0.3
v 0.1 0.7 0.2
v 0.1 0.7 0.1
v 0.1 0.7 0
v 0.1 0.7 -0.1
v 0.1 0.7 -0.2
v 0.1 0.8 0.2
v 0.1 0.8 0.1
v 0.1 0.8 0
v 0.1 0.8 -0.1
v 0.1 0.9 0.1
v 0.1 0.9 0
v 0.1 1 0.1
v 0.1 1 0
v 0.1 1.1 0.1
v 0.1 1.1 0
v 0.2 0 0.2
v 0.2 0 0.1
v 0.2 0 0
v 0.2 0 -0.1
v 0.2 0.1 0.3
v 0.2 0.1 0.2
v 0.2 0.1 0.1
v 0.2 0.1 0
v 0.2 0.1 -0.1
v 0.2 0.1 -0.2
v 0.2 0.2 0.2
v 0.2 0.3 0.3
v 0.2 0.3 0.2
v 0.2 0.3 -0.1
v 0.2 0.3 -0.2
v 0.2 0.4 0.3
v 0.2 0.4 0.2
v 0.2 0.4 0.1
v 0.2 0.4 0
v 0.2 0.4 -0.1
v 0.2 0.4 -0.2
v 0.2 0.5 0.2
v 0.2 0.5 0.1
v 0.2 0.5 0
v 0.2 0.5 -0.1
v 0.2 0.7 0.2
v 0.2 0.7 0.1
v 0.2 0.7 0
v 0.2 0.7 -0.1
v 0.3 0.1 0.2
v 0.3 0.1 0.1
v 0.3 0.1 0
v 0.3 0.1 -0.1
v 0.3 0.2 0.2
v 0.3 0.2 0.1
v 0.3 0.2 0
v 0.3 0.3 0.1
v 0.3 0.3 0
v 0.3 0.3 -0.1
v 0.3 0.4 0.2
v 0.3 0.4 0.1
v 0.3 0.4 0
v 0.3 0.4 -0.1
v -0.2 0.1 0.4
v -0.2 0.2 0.4
v -0.2 0.4 0.4
v -0.1 0.1 0.4
v -0.1 0.2 0.4
v -0.1 0.3 0.4
v -0.1 0.4 0.4
v 0 0.1 0.4
v 0 0.2 0.4
v 0 0.3 0.4
v 0 0.4 0.4
v 0.1 0.1 0.4
v 0.1 0.3 0.4
v 0.1 0.4 0.4
v -0.3 0.1 0.3
v -0.3 0.3 0.3
v -0.3 0.4 0.3
v -0.2 0 0.3
v -0.2 0.1 0.3
v -0.2 0.2 0.3
v -0.2 0.3 0.3
v -0.2 0.4 0.3
v -0.2 0.5 0.3
v -0.2 0.7 0.3
v -0.1 0 0.3
v -0.1 0.1 0.3
v -0.1 0.4 0.3
v -0.1 0.5 0.3
v -0.1 0.7 0.3
v 0 0 0.3
v 0 0.1 0.3
v 0 0.4 0.3
v 0 0.5 0.3
v 0 0.7 0.3
v 0.1 0 0.3
v 0.1 0.1 0.3
v 0.1 0.3 0.3
v 0.1 0.4 0.3
v 0.1 0.5 0.3
v 0.1 0.7 0.3
v 0.2 0.1 0.3
v 0.2 0.3 0.3
v 0.2 0.4 0.3
v -0.4 0.1 0.2
v -0.4 0.3 0.2
v -0.4 0.4 0.2
v -0.3 0 0.2
v -0.3 0.1 0.2
v -0.3 0.3 0.2
v -0.3 0.4 0.2
v -0.3 0.5 0.2
v -0.3 0.7 0.2
v -0.2 0 0.2
v -0.2 0.1 0.2
v -0.2 0.4 0.2
v -0.2 0.5 0.2
v -0.2 0.7 0.2
v -0.2 0.8 0.2
v -0.1 0.7 0.2
v -0.1 0.8 0.2
v -0.1 0.9 0.2
v -0.1 1 0.2
v -0.1 1.1 0.2
v 0 0.7 0.2
v 0 0.8 0.2
v 0 0.9 0.2
v 0 1 0.2
v 0 1.1 0.2
v 0.1 0 0.2
v 0.1 0.1 0.2
v 0.1 0.4 0.2
v 0.1 0.5 0.2
v 0.1 0.7 0.2
v 0.1 0.8 0.2
v 0.2 0 0.2
v 0.2 0.1 0.2
v 0.2 0.2 0.2
v 0.2 0.3 0.2
v 0.2 0.4 0.2
v 0.2 0.5 0.2
v 0.2 0.7 0.2
v 0.3 0.1 0.2
v 0.3 0.2 0.2
v 0.3 0.4 0.2
v -0.2 0.8 0.1
v -0.2 0.9 0.1
v -0.2 1 0.1
v -0.2 1.1 0.1
v -0.1 0.8 0.1
v -0.1 0.9 0.1
v -0.1 1 0.1
v -0.1 1.1 0.1
v -0.1 1.2 0.1
v 0 0.8 0.1
v 0 0.9 0.1
v 0 1 0.1
v 0 1.1 0.1
v 0 1.2 0.1
v 0.1 0.8 0.1
v 0.1 0.9 0.1
v 0.1 1 0.1
v 0.1 1.1 0.1
v -0.2 0.8 0
v -0.2 0.9 0
v -0.2 1 0
v -0.2 1.1 0
v -0.1 0.8 0
v -0.1 0.9 0
v -0.1 1 0
v -0.1 1.1 0
v -0.1 1.2 0
v 0 0.8 0
v 0 0.9 0
v 0 1 0
v 0 1.1 0
v 0 1.2 0
v 0.1 0.8 0
v 0.1 0.9 0
v 0.1 1 0
v 0.1 1.1 0
v -0.4 0.1 -0.1
v -0.4 0.2 -0.1
v -0.4 0.4 -0.1
v -0.3 0 -0.1
v -0.3 0.1 -0.1
v -0.3 0.2 -0.1
v -0.3 0.3 -0.1
v -0.3 0.4 -0.1
v -0.3 0.5 -0.1
v -0.3 0.7 -0.1
v -0.2 0 -0.1
v -0.2 0.1 -0.1
v -0.2 0.4 -0.1
v -0.2 0.5 -0.1
v -0.2 0.7 -0.1
v -0.2 0.8 -0.1
v -0.1 0.7 -0.1
v -0.1 0.8 -0.1
v -0.1 0.9 -0.1
v -0.1 1 -0.1
v -0.1 1.1 -0.1
v 0 0.7 -0.1
v 0 0.8 -0.1
v 0 0.9 -0.1
v 0 1 -0.1
v 0 1.1 -0.1
v 0.1 0 -0.1
v 0.1 0.1 -0.1
v 0.1 0.4 -0.1
v 0.1 0.5 -0.1
v 0.1 0.7 -0.1
v 0.1 0.8 -0.1
v 0.2 0 -0.1
v 0.2 0.1 -0.1
v 0.2 0.3 -0.1
v 0.2 0.4 -0.1
v 0.2 0.5 -0.1
v 0.2 0.7 -0.1
v 0.3 0.1 -0.1
v 0.3 0.3 -0.1
v 0.3 0.4 -0.1
v -0.3 0.1 -0.2
v -0.3 0.3 -0.2
v -0.3 0.4 -0.2
v -0.2 0 -0.2
v -0.2 0.1 -0.2
v -0.2 0.3 -0.2
v -0.2 0.4 -0.2
v -0.2 0.5 -0.2
v -0.2 0.7 -0.2
v -0.1 0 -0.2
v -0.1 0.1 -0.2
v -0.1 0.4 -0.2
v -0.1 0.5 -0.2
v -0.1 0.7 -0.2
v 0 0 -0.2
v 0 0.1 -0.2
v 0 0.4 -0.2
v 0 0.5 -0.2
v 0 0.7 -0.2
v 0.1 0 -0.2
v 0.1 0.1 -0.2
v 0.1 0.2 -0.2
v 0.1 0.3 -0.2
v 0.1 0.4 -0.2
v 0.1 0.5 -0.2
v 0.1 0.7 -0.2
v 0.2 0.1 -0.2
v 0.2 0.3 -0.2
v 0.2 0.4 -0.2
v -0.2 0.1 -0.3
v -0.2 0.3 -0.3
v -0.2 0.4 -0.3
v -0.1 0.1 -0.3
v -0.1 0.2 -0.3
v -0.1 0.3 -0.3
v -0.1 0.4 -0.3
v 0 0.1 -0.3
v 0 0.2 -0.3
v 0 0.3 -0.3
v 0 0.4 -0.3
v 0.1 0.1 -0.3
v 0.1 0.2 -0.3
v 0.1 0.4 -0.3
v -0.2 0 0.3
v -0.1 0 0.3
v 0 0 0.3
v 0.1 0 0.3
v -0.3 0 0.2
v -0.2 0 0.2
v -0.1 0 0.2
v 0 0 0.2
v 0.1 0 0.2
v 0.2 0 0.2
v -0.3 0 0.1
v -0.2 0 0.1
v 0.1 0 0.1
v 0.2 0 0.1
v -0.3 0 0
v -0.2 0 0
v 0.1 0 0
v 0.2 0 0
v -0.3 0 -0.1
v -0.2 0 -0.1
v -0.1 0 -0.1
v 0 0 -0.1
v 0.1 0 -0.1
v 0.2 0 -0.1
v -0.2 0 -0.2
v -0.1 0 -0.2
v 0 0 -0.2
v 0.1 0 -0.2
v -0.2 0.1 0.4
v -0.1 0.1 0.4
v 0 0.1 0.4
v 0.1 0.1 0.4
v -0.3 0.1 0.3
v -0.2 0.1 0.3
v -0.1 0.1 0.3
v 0 0.1 0.3
v 0.1 0.1 0.3
v 0.2 0.1 0.3
v -0.4 0.1 0.2
v -0.3 0.1 0.2
v -0.2 0.1 0.2
v 0.1 0.1 0.2
v 0.2 0.1 0.2
v 0.3 0.1 0.2
v -0.4 0.1 0.1
v -0.3 0.1 0.1
v 0.2 0.1 0.1
v 0.3 0.1 0.1
v -0.4 0.1 0
v -0.3 0.1 0
v 0.2 0.1 0
v 0.3 0.1 0
v -0.4 0.1 -0.1
v -0.3 0.1 -0.1
v -0.2 0.1 -0.1
v 0.1 0.1 -0.1
v 0.2 0.1 -0.1
v 0.3 0.1 -0.1
v -0.3 0.1 -0.2
v -0.2 0.1 -0.2
v -0.1 0.1 -0.2
v 0 0.1 -0.2
v 0.1 0.1 -0.2
v 0.2 0.1 -0.2
v -0.2 0.1 -0.3
v -0.1 0.1 -0.3
v 0 0.1 -0.3
v 0.1 0.1 -0.3
v -0.1 1 0.2
v 0 1 0.2
v -0.2 1 0.1
v -0.1 1 0.1
v 0 1 0.1
v 0.1 1 0.1
v -0.2 1 0
v -0.1 1 0
v 0 1 0
v 0.1 1 0
v -0.1 1 -0.1
v 0 1 -0.1
v -0.2 0.4 0.4
v -0.1 0.4 0.4
v 0 0.4 0.4
v 0.1 0.4 0.4
v -0.3 0.4 0.3
v -0.2 0.4 0.3
v -0.1 0.4 0.3
v 0 0.4 0.3
v 0.1 0.4 0.3
v 0.2 0.4 0.3
v -0.4 0.4 0.2
v -0.3 0.4 0.2
v -0.2 0.4 0.2
v 0.1 0.4 0.2
v 0.2 0.4 0.2
v 0.3 0.4 0.2
v -0.4 0.4 0.1
v -0.3 0.4 0.1
v 0.2 0.4 0.1
v 0.3 0.4 0.1
v -0.4 0.4 0
v -0.3 0.4 0
v 0.2 0.4 0
v 0.3 0.4 0
v -0.4 0.4 -0.1
v -0.3 0.4 -0.1
v -0.2 0.4 -0.1
v 0.1 0.4 -0.1
v 0.2 0.4 -0.1
v 0.3 0.4 -0.1
v -0.3 0.4 -0.2
v -0.2 0.4 -0.2
v -0.1 0.4 -0.2
v 0 0.4 -0.2
v 0.1 0.4 -0.2
v 0.2 0.4 -0.2
v -0.2 0.4 -0.3
v -0.1 0.4 -0.3
v 0 0.4 -0.3
v 0.1 0.4 -0.3
v -0.2 0.7 0.3
v -0.1 0.7 0.3
v 0 0.7 0.3
v 0.1 0.7 0.3
v -0.3 0.7 0.2
v -0.2 0.7 0.2
v -0.1 0.7 0.2
v 0 0.7 0.2
v 0.1 0.7 0.2
v 0.2 0.7 0.2
v -0.3 0.7 0.1
v -0.2 0.7 0.1
v 0.1 0.7 0.1
v 0.2 0.7 0.1
v -0.3 0.7 0
v -0.2 0.7 0
v 0.1 0.7 0
v 0.2 0.7 0
v -0.3 0.7 -0.1
v -0.2 0.7 -0.1
v -0.1 0.7 -0.1
v 0 0.7 -0.1
v 0.1 0.7 -0.1
v 0.2 0.7 -0.1
v -0.2 0.7 -0.2
v -0.1 0.7 -0.2
v 0 0.7 -0.2
v 0.1 0.7 -0.2
v -0.2 0.8 0.2
v -0.1 0.8 0.2
v 0 0.8 0.2
v 0.1 0.8 0.2
v -0.2 0.8 0.1
v -0.1 0.8 0.1
v 0 0.8 0.1
v 0.1 0.8 0.1
v -0.2 0.8 0
v -0.1 0.8 0
v 0 0.8 0
v 0.1 0.8 0
v -0.2 0.8 -0.1
v -0.1 0.8 -0.1
v 0 0.8 -0.1
v 0.1 0.8 -0.1
v -0.1 0.9 0.2
v 0 0.9 0.2
v -0.2 0.9 0.1
v -0.1 0.9 0.1
v 0 0.9 0.1
v 0.1 0.9 0.1
v -0.2 0.9 0
v -0.1 0.9 0
v 0 0.9 0
v 0.1 0.9 0
v -0.1 0.9 -0.1
v 0 0.9 -0.1
v -0.1 1.1 0.2
v 0 1.1 0.2
v -0.2 1.1 0.1
v -0.1 1.1 0.1
v 0 1.1 0.1
v 0.1 1.1 0.1
v -0.2 1.1 0
v -0.1 1.1 0
v 0 1.1 0
v 0.1 1.1 0
v -0.1 1.1 -0.1
v 0 1.1 -0.1
v -0.1 1.2 0.1
v 0 1.2 0.1
v -0.1 1.2 0
v 0 1.2 0

# faces
f 5/1/1 2/1/1 1/1/1
f 5/5/1 3/5/1 2/5/1
f 6/4/1 4/4/1 3/4/1
f 6/5/1 3/5/1 5/5/1
f 7/4/1 4/4/1 6/4/1
f 8/1/1 5/1/1 1/1/1
f 9/4/1 6/4/1 5/4/1
f 9/1/1 5/1/1 8/1/1
f 10/3/1 7/3/1 6/3/1
f 10/4/1 6/4/1 9/4/1
f 11/2/1 9/2/1 8/2/1
f 12/1/1 10/1/1 9/1/1
f 12/2/1 9/2/1 11/2/1
f 13/3/1 7/3/1 10/3/1
f 13/1/1 10/1/1 12/1/1
f 14/3/1 7/3/1 13/3/1
f 20/3/1 16/3/1 15/3/1
f 21/5/1 17/5/1 16/5/1
f 21/3/1 16/3/1 20/3/1
f 22/3/1 18/3/1 17/3/1
f 22/5/1 17/5/1 21/5/1
f 23/3/1 18/3/1 22/3/1
f 25/2/1 24/2/1 23/2/1
f 26/2/1 20/2/1 19/2/1
f 27/2/1 20/2/1 26/2/1
f 28/2/1 24/2/1 25/2/1
f 29/2/1 24/2/1 28/2/1
f 30/3/1 27/3/1 26/3/1
f 31/3/1 27/3/1 30/3/1
f 34/3/1 29/3/1 28/3/1
f 35/3/1 29/3/1 34/3/1
f 36/2/1 32/2/1 31/2/1
f 37/1/1 33/1/1 32/1/1
f 37/2/1 32/2/1 36/2/1
f 38/3/1 34/3/1 33/3/1
f 38/1/1 33/1/1 37/1/1
f 39/3/1 34/3/1 38/3/1
f 40/3/1 37/3/1 36/3/1
f 41/2/1 38/2/1 37/2/1
f 41/3/1 37/3/1 40/3/1
f 42/1/1 39/1/1 38/1/1
f 42/2/1 38/2/1 41/2/1
f 43/1/1 39/1/1 42/1/1
f 49/4/1 45/4/1 44/4/1
f 50/4/1 45/4/1 49/4/1
f 51/4/1 47/4/1 46/4/1
f 52/4/1 47/4/1 51/4/1
f 54/4/1 49/4/1 48/4/1
f 55/4/1 49/4/1 54/4/1
f 56/3/1 55/3/1 54/3/1
f 57/1/1 53/1/1 52/1/1
f 58/1/1 53/1/1 57/1/1
f 59/3/1 56/3/1 54/3/1
f 60/3/1 56/3/1 59/3/1
f 63/2/1 58/2/1 57/2/1
f 64/2/1 58/2/1 63/2/1
f 65/3/1 61/3/1 60/3/1
f 66/3/1 61/3/1 65/3/1
f 67/2/1 63/2/1 62/2/1
f 68/2/1 63/2/1 67/2/1
f 69/1/1 66/1/1 65/1/1
f 70/1/1 66/1/1 69/1/1
f 73/3/1 68/3/1 67/3/1
f 74/3/1 68/3/1 73/3/1
f 75/1/1 71/1/1 70/1/1
f 76/3/1 72/3/1 71/3/1
f 76/1/1 71/1/1 75/1/1
f 77/1/1 73/1/1 72/1/1
f 77/3/1 72/3/1 76/3/1
f 78/1/1 73/1/1 77/1/1
f 79/3/1 77/3/1 76/3/1
f 80/3/1 77/3/1 79/3/1
f 83/6/1 82/6/1 81/6/1
f 84/6/1 82/6/1 83/6/1
f 89/3/1 86/3/1 85/3/1
f 90/3/1 86/3/1 89/3/1
f 91/3/1 88/3/1 87/3/1
f 92/3/1 88/3/1 91/3/1
f 94/7/1 91/7/1 90/7/1
f 95/7/1 91/7/1 94/7/1
f 97/7/1 94/7/1 93/7/1
f 98/7/1 94/7/1 97/7/1
f 99/7/1 96/7/1 95/7/1
f 100/7/1 96/7/1 99/7/1
f 101/6/1 99/6/1 98/6/1
f 102/6/1 99/6/1 101/6/1
f 103/3/2 104/3/2 107/3/2
f 107/3/2 104/3/2 108/3/2
f 105/3/2 106/3/2 109/3/2
f 109/3/2 106/3/2 110/3/2
f 108/7/2 109/7/2 112/7/2
f 112/7/2 109/7/2 113/7/2
f 111/7/2 112/7/2 115/7/2
f 115/7/2 112/7/2 116/7/2
f 113/7/2 114/7/2 117/7/2
f 117/7/2 114/7/2 118/7/2
f 116/6/2 117/6/2 119/6/2
f 119/6/2 117/6/2 120/6/2
f 121/4/2 122/4/2 126/4/2
f 126/4/2 122/4/2 127/4/2
f 123/4/2 124/4/2 128/4/2
f 128/4/2 124/4/2 129/4/2
f 129/4/2 130/4/2 131/4/2
f 131/4/2 130/4/2 132/4/2
f 125/1/2 126/1/2 133/1/2
f 133/1/2 126/1/2 134/1/2
f 131/3/2 132/3/2 135/3/2
f 133/2/2 134/2/2 136/2/2
f 136/2/2 134/2/2 137/2/2
f 135/3/2 132/3/2 140/3/2
f 140/3/2 132/3/2 141/3/2
f 137/2/2 138/2/2 142/2/2
f 142/2/2 138/2/2 143/2/2
f 139/3/2 140/3/2 144/3/2
f 144/3/2 140/3/2 145/3/2
f 142/3/2 143/3/2 146/3/2
f 146/3/2 143/3/2 147/3/2
f 144/1/2 145/1/2 150/1/2
f 150/1/2 145/1/2 151/1/2
f 147/1/2 148/1/2 152/1/2
f 148/3/2 149/3/2 153/3/2
f 152/1/2 148/1/2 153/1/2
f 149/1/2 150/1/2 154/1/2
f 153/3/2 149/3/2 154/3/2
f 154/1/2 150/1/2 155/1/2
f 153/3/2 154/3/2 156/3/2
f 156/3/2 154/3/2 157/3/2
f 158/6/2 159/6/2 160/6/2
f 160/6/2 159/6/2 161/6/2
f 162/3/2 163/3/2 167/3/2
f 163/5/2 164/5/2 168/5/2
f 167/3/2 163/3/2 168/3/2
f 164/3/2 165/3/2 169/3/2
f 168/5/2 164/5/2 169/5/2
f 169/3/2 165/3/2 170/3/2
f 166/2/2 167/2/2 172/2/2
f 166/2/2 172/2/2 173/2/2
f 173/2/2 172/2/2 174/2/2
f 170/2/2 171/2/2 175/2/2
f 175/2/2 171/2/2 176/2/2
f 173/3/2 174/3/2 177/3/2
f 177/3/2 174/3/2 178/3/2
f 175/3/2 176/3/2 181/3/2
f 181/3/2 176/3/2 182/3/2
f 178/3/2 179/3/2 183/3/2
f 179/1/2 180/1/2 184/1/2
f 183/3/2 179/3/2 184/3/2
f 180/2/2 181/2/2 185/2/2
f 184/1/2 180/1/2 185/1/2
f 185/2/2 181/2/2 186/2/2
f 183/1/2 184/1/2 187/1/2
f 184/2/2 185/2/2 188/2/2
f 187/1/2 184/1/2 188/1/2
f 185/3/2 186/3/2 189/3/2
f 188/2/2 185/2/2 189/2/2
f 189/3/2 186/3/2 190/3/2
f 191/4/2 192/4/2 195/4/2
f 192/5/2 193/5/2 196/5/2
f 195/4/2 192/4/2 196/4/2
f 193/1/2 194/1/2 197/1/2
f 196/5/2 193/5/2 197/5/2
f 195/3/2 196/3/2 198/3/2
f 196/4/2 197/4/2 198/4/2
f 197/1/2 194/1/2 199/1/2
f 198/4/2 197/4/2 199/4/2
f 199/1/2 194/1/2 200/1/2
f 195/3/2 198/3/2 201/3/2
f 198/1/2 199/1/2 202/1/2
f 201/3/2 198/3/2 202/3/2
f 199/2/2 200/2/2 203/2/2
f 202/1/2 199/1/2 203/1/2
f 203/2/2 200/2/2 204/2/2
f 208/4/3 206/4/3 205/4/3
f 209/3/3 207/3/3 206/3/3
f 209/4/3 206/4/3 208/4/3
f 210/3/3 207/3/3 209/3/3
f 211/3/3 207/3/3 210/3/3
f 212/5/3 209/5/3 208/5/3
f 213/4/3 210/4/3 209/4/3
f 213/5/3 209/5/3 212/5/3
f 214/1/3 211/1/3 210/1/3
f 214/4/3 210/4/3 213/4/3
f 215/1/3 211/1/3 214/1/3
f 216/1/3 213/1/3 212/1/3
f 216/1/3 214/1/3 213/1/3
f 217/2/3 215/2/3 214/2/3
f 217/1/3 214/1/3 216/1/3
f 218/2/3 215/2/3 217/2/3
f 223/2/3 220/2/3 219/2/3
f 224/2/3 220/2/3 223/2/3
f 225/3/3 221/3/3 220/3/3
f 225/2/3 220/2/3 224/2/3
f 226/3/3 221/3/3 225/3/3
f 229/4/3 223/4/3 222/4/3
f 230/4/3 223/4/3 229/4/3
f 231/3/3 227/3/3 226/3/3
f 232/1/3 228/1/3 227/1/3
f 232/3/3 227/3/3 231/3/3
f 233/1/3 228/1/3 232/1/3
f 234/5/3 230/5/3 229/5/3
f 235/5/3 230/5/3 234/5/3
f 236/1/3 232/1/3 231/1/3
f 237/2/3 233/2/3 232/2/3
f 237/1/3 232/1/3 236/1/3
f 238/2/3 233/2/3 237/2/3
f 239/4/3 235/4/3 234/4/3
f 240/4/3 235/4/3 239/4/3
f 242/2/3 237/2/3 236/2/3
f 243/3/3 238/3/3 237/3/3
f 243/2/3 237/2/3 242/2/3
f 244/3/3 238/3/3 243/3/3
f 245/2/3 241/2/3 240/2/3
f 246/3/3 242/3/3 241/3/3
f 246/2/3 241/2/3 245/2/3
f 247/3/3 242/3/3 246/3/3
f 252/1/3 249/1/3 248/1/3
f 253/2/3 250/2/3 249/2/3
f 253/1/3 249/1/3 252/1/3
f 254/2/3 250/2/3 253/2/3
f 257/3/3 252/3/3 251/3/3
f 258/3/3 252/3/3 257/3/3
f 259/2/3 255/2/3 254/2/3
f 260/3/3 256/3/3 255/3/3
f 260/2/3 255/2/3 259/2/3
f 261/3/3 256/3/3 260/3/3
f 263/1/3 262/1/3 261/1/3
f 264/1/3 262/1/3 263/1/3
f 268/3/3 264/3/3 263/3/3
f 268/3/3 265/3/3 264/3/3
f 269/3/3 265/3/3 268/3/3
f 270/3/3 265/3/3 269/3/3
f 271/7/3 267/7/3 266/7/3
f 272/7/3 267/7/3 271/7/3
f 277/1/3 269/1/3 268/1/3
f 278/1/3 269/1/3 277/1/3
f 279/3/3 274/3/3 273/3/3
f 280/3/3 274/3/3 279/3/3
f 283/3/3 276/3/3 275/3/3
f 284/1/3 277/1/3 276/1/3
f 284/3/3 276/3/3 283/3/3
f 285/1/3 277/1/3 284/1/3
f 286/4/3 281/4/3 280/4/3
f 287/3/3 282/3/3 281/3/3
f 287/4/3 281/4/3 286/4/3
f 287/3/3 283/3/3 282/3/3
f 288/3/3 283/3/3 287/3/3
f 293/3/3 290/3/3 289/3/3
f 294/3/3 290/3/3 293/3/3
f 295/6/3 292/6/3 291/6/3
f 296/6/3 292/6/3 295/6/3
f 299/7/3 295/7/3 294/7/3
f 300/7/3 295/7/3 299/7/3
f 301/6/3 297/6/3 296/6/3
f 302/6/3 297/6/3 301/6/3
f 303/3/3 299/3/3 298/3/3
f 304/3/3 299/3/3 303/3/3
f 305/6/3 301/6/3 300/6/3
f 306/6/3 301/6/3 305/6/3
f 307/3/4 308/3/4 311/3/4
f 311/3/4 308/3/4 312/3/4
f 309/6/4 310/6/4 313/6/4
f 313/6/4 310/6/4 314/6/4
f 312/7/4 313/7/4 317/7/4
f 317/7/4 313/7/4 318/7/4
f 314/6/4 315/6/4 319/6/4
f 319/6/4 315/6/4 320/6/4
f 316/3/4 317/3/4 321/3/4
f 321/3/4 317/3/4 322/3/4
f 318/6/4 319/6/4 323/6/4
f 323/6/4 319/6/4 324/6/4
f 325/4/4 326/4/4 329/4/4
f 326/3/4 327/3/4 330/3/4
f 329/4/4 326/4/4 330/4/4
f 330/3/4 327/3/4 331/3/4
f 331/3/4 327/3/4 332/3/4
f 328/3/4 329/3/4 335/3/4
f 335/3/4 329/3/4 336/3/4
f 332/3/4 333/3/4 337/3/4
f 333/1/4 334/1/4 338/1/4
f 337/3/4 333/3/4 338/3/4
f 338/1/4 334/1/4 339/1/4
f 339/1/4 340/1/4 341/1/4
f 341/1/4 340/1/4 342/1/4
f 341/3/4 342/3/4 346/3/4
f 342/3/4 343/3/4 346/3/4
f 346/3/4 343/3/4 347/3/4
f 347/3/4 343/3/4 348/3/4
f 344/7/4 345/7/4 349/7/4
f 349/7/4 345/7/4 350/7/4
f 346/1/4 347/1/4 355/1/4
f 355/1/4 347/1/4 356/1/4
f 351/3/4 352/3/4 357/3/4
f 357/3/4 352/3/4 358/3/4
f 353/2/4 354/2/4 360/2/4
f 354/3/4 355/3/4 361/3/4
f 360/2/4 354/2/4 361/2/4
f 361/3/4 355/3/4 362/3/4
f 358/1/4 359/1/4 363/1/4
f 359/2/4 360/2/4 364/2/4
f 363/1/4 359/1/4 364/1/4
f 364/2/4 360/2/4 365/2/4
f 366/2/4 367/2/4 370/2/4
f 367/3/4 368/3/4 371/3/4
f 370/2/4 367/2/4 371/2/4
f 371/3/4 368/3/4 372/3/4
f 369/4/4 370/4/4 375/4/4
f 375/4/4 370/4/4 376/4/4
f 372/2/4 373/2/4 377/2/4
f 373/3/4 374/3/4 378/3/4
f 377/2/4 373/2/4 378/2/4
f 378/3/4 374/3/4 379/3/4
f 375/5/4 376/5/4 380/5/4
f 380/5/4 376/5/4 381/5/4
f 377/1/4 378/1/4 382/1/4
f 378/2/4 379/2/4 383/2/4
f 382/1/4 378/1/4 383/1/4
f 383/2/4 379/2/4 384/2/4
f 380/4/4 381/4/4 385/4/4
f 385/4/4 381/4/4 386/4/4
f 382/3/4 383/3/4 389/3/4
f 383/1/4 384/1/4 390/1/4
f 389/3/4 383/3/4 390/3/4
f 390/1/4 384/1/4 391/1/4
f 387/2/4 388/2/4 392/2/4
f 386/2/4 387/2/4 392/2/4
f 388/3/4 389/3/4 393/3/4
f 392/2/4 388/2/4 393/2/4
f 393/3/4 389/3/4 394/3/4
f 395/1/4 396/1/4 398/1/4
f 398/1/4 396/1/4 399/1/4
f 396/2/4 397/2/4 400/2/4
f 399/1/4 396/1/4 400/1/4
f 400/2/4 397/2/4 401/2/4
f 398/5/4 399/5/4 402/5/4
f 399/4/4 400/4/4 403/4/4
f 402/5/4 399/5/4 403/5/4
f 400/1/4 401/1/4 404/1/4
f 403/4/4 400/4/4 404/4/4
f 404/1/4 401/1/4 405/1/4
f 402/4/4 403/4/4 406/4/4
f 403/3/4 404/3/4 407/3/4
f 406/4/4 403/4/4 407/4/4
f 404/3/4 405/3/4 407/3/4
f 407/3/4 405/3/4 408/3/4
f 414/4/5 410/4/5 409/4/5
f 415/5/5 411/5/5 410/5/5
f 415/4/5 410/4/5 414/4/5
f 416/4/5 412/4/5 411/4/5
f 416/5/5 411/5/5 415/5/5
f 417/4/5 412/4/5 416/4/5
f 419/3/5 414/3/5 413/3/5
f 420/5/5 415/5/5 414/5/5
f 420/3/5 414/3/5 419/3/5
f 420/5/5 416/5/5 415/5/5
f 420/5/5 417/5/5 416/5/5
f 421/3/5 418/3/5 417/3/5
f 421/5/5 417/5/5 420/5/5
f 422/3/5 418/3/5 421/3/5
f 423/5/5 420/5/5 419/5/5
f 423/5/5 421/5/5 420/5/5
f 423/5/5 422/5/5 421/5/5
f 424/5/5 422/5/5 423/5/5
f 425/5/5 422/5/5 424/5/5
f 426/5/5 422/5/5 425/5/5
f 427/3/5 424/3/5 423/3/5
f 428/5/5 425/5/5 424/5/5
f 428/3/5 424/3/5 427/3/5
f 429/5/5 425/5/5 428/5/5
f 430/5/5 425/5/5 429/5/5
f 431/3/5 426/3/5 425/3/5
f 431/5/5 425/5/5 430/5/5
f 432/3/5 426/3/5 431/3/5
f 433/4/5 429/4/5 428/4/5
f 434/5/5 430/5/5 429/5/5
f 434/4/5 429/4/5 433/4/5
f 435/4/5 431/4/5 430/4/5
f 435/5/5 430/5/5 434/5/5
f 436/4/5 431/4/5 435/4/5
f 442/4/5 438/4/5 437/4/5
f 443/5/5 439/5/5 438/5/5
f 443/4/5 438/4/5 442/4/5
f 444/1/5 440/1/5 439/1/5
f 444/5/5 439/5/5 443/5/5
f 445/1/5 440/1/5 444/1/5
f 448/2/5 442/2/5 441/2/5
f 449/2/5 442/2/5 448/2/5
f 450/2/5 446/2/5 445/2/5
f 451/2/5 446/2/5 450/2/5
f 453/1/5 448/1/5 447/1/5
f 454/1/5 448/1/5 453/1/5
f 455/4/5 452/4/5 451/4/5
f 456/4/5 452/4/5 455/4/5
f 457/5/5 454/5/5 453/5/5
f 458/5/5 454/5/5 457/5/5
f 459/5/5 456/5/5 455/5/5
f 460/5/5 456/5/5 459/5/5
f 461/4/5 458/4/5 457/4/5
f 462/4/5 458/4/5 461/4/5
f 465/1/5 460/1/5 459/1/5
f 466/1/5 460/1/5 465/1/5
f 467/2/5 463/2/5 462/2/5
f 468/2/5 463/2/5 467/2/5
f 471/2/5 465/2/5 464/2/5
f 472/2/5 465/2/5 471/2/5
f 473/1/5 469/1/5 468/1/5
f 474/5/5 470/5/5 469/5/5
f 474/1/5 469/1/5 473/1/5
f 475/4/5 471/4/5 470/4/5
f 475/5/5 470/5/5 474/5/5
f 476/4/5 471/4/5 475/4/5
f 480/7/5 478/7/5 477/7/5
f 481/7/5 478/7/5 480/7/5
f 483/6/5 480/6/5 479/6/5
f 484/6/5 480/6/5 483/6/5
f 485/6/5 482/6/5 481/6/5
f 486/6/5 482/6/5 485/6/5
f 487/7/5 485/7/5 484/7/5
f 488/7/5 485/7/5 487/7/5
f 489/3/6 490/3/6 494/3/6
f 490/1/6 491/1/6 495/1/6
f 494/3/6 490/3/6 495/3/6
f 491/2/6 492/2/6 496/2/6
f 495/1/6 491/1/6 496/1/6
f 496/2/6 492/2/6 497/2/6
f 493/3/6 494/3/6 500/3/6
f 500/3/6 494/3/6 501/3/6
f 497/3/6 498/3/6 502/3/6
f 502/3/6 498/3/6 503/3/6
f 499/2/6 500/2/6 505/2/6
f 505/2/6 500/2/6 506/2/6
f 503/3/6 504/3/6 507/3/6
f 507/3/6 504/3/6 508/3/6
f 505/1/6 506/1/6 509/1/6
f 509/1/6 506/1/6 510/1/6
f 507/1/6 508/1/6 511/1/6
f 511/1/6 508/1/6 512/1/6
f 509/3/6 510/3/6 513/3/6
f 513/3/6 510/3/6 514/3/6
f 511/2/6 512/2/6 517/2/6
f 517/2/6 512/2/6 518/2/6
f 514/3/6 515/3/6 519/3/6
f 519/3/6 515/3/6 520/3/6
f 516/3/6 517/3/6 523/3/6
f 523/3/6 517/3/6 524/3/6
f 520/2/6 521/2/6 525/2/6
f 521/1/6 522/1/6 526/1/6
f 525/2/6 521/2/6 526/2/6
f 522/3/6 523/3/6 527/3/6
f 526/1/6 522/1/6 527/1/6
f 527/3/6 523/3/6 528/3/6
f 529/1/6 530/1/6 534/1/6
f 530/2/6 531/2/6 535/2/6
f 534/1/6 530/1/6 535/1/6
f 531/3/6 532/3/6 536/3/6
f 535/2/6 531/2/6 536/2/6
f 536/3/6 532/3/6 537/3/6
f 533/3/6 534/3/6 539/3/6
f 539/3/6 534/3/6 540/3/6
f 537/1/6 538/1/6 541/1/6
f 541/1/6 538/1/6 542/1/6
f 539/2/6 540/2/6 543/2/6
f 543/2/6 540/2/6 544/2/6
f 541/2/6 542/2/6 545/2/6
f 545/2/6 542/2/6 546/2/6
f 543/1/6 544/1/6 547/1/6
f 547/1/6 544/1/6 548/1/6
f 545/3/6 546/3/6 551/3/6
f 551/3/6 546/3/6 552/3/6
f 548/3/6 549/3/6 553/3/6
f 549/2/6 550/2/6 554/2/6
f 553/3/6 549/3/6 554/3/6
f 550/1/6 551/1/6 555/1/6
f 554/2/6 550/2/6 555/2/6
f 555/1/6 551/1/6 556/1/6
f 557/1/6 558/1/6 561/1/6
f 561/1/6 558/1/6 562/1/6
f 559/1/6 560/1/6 563/1/6
f 563/1/6 560/1/6 564/1/6
f 565/1/6 566/1/6 569/1/6
f 569/1/6 566/1/6 570/1/6
f 567/1/6 568/1/6 571/1/6
f 571/1/6 568/1/6 572/1/6
f 573/3/6 574/3/6 576/3/6
f 576/3/6 574/3/6 577/3/6
f 575/3/6 576/3/6 579/3/6
f 579/3/6 576/3/6 580/3/6
f 577/3/6 578/3/6 581/3/6
f 581/3/6 578/3/6 582/3/6
f 580/3/6 581/3/6 583/3/6
f 583/3/6 581/3/6 584/3/6
f 585/7/6 586/7/6 588/7/6
f 588/7/6 586/7/6 589/7/6
f 587/6/6 588/6/6 591/6/6
f 591/6/6 588/6/6 592/6/6
f 589/6/6 590/6/6 593/6/6
f 593/6/6 590/6/6 594/6/6
f 592/7/6 593/7/6 595/7/6
f 595/7/6 593/7/6 596/7/6
f 597/6/6 598/6/6 599/6/6
f 599/6/6 598/6/6 600/6/6
