# MagicaVoxel @ Ephtracy

# group
o 

# material
mtllib DamagedBrickWindow1IronBar.mtl
usemtl palette

# normals
vn -1 0 0
vn 1 0 0
vn 0 0 1
vn 0 0 -1
vn 0 -1 0
vn 0 1 0

# texcoords
vt 0.970703 0.5
vt 0.974609 0.5

# verts
v -1.5 0.1 0.4
v -1.5 0.1 0.2
v -1.5 0.1 -5.96046e-008
v -1.5 0.1 -0.2
v -1.5 0.1 -0.4
v -1.5 0.1 -0.6
v -1.5 0.2 0.4
v -1.5 0.2 0.2
v -1.5 0.2 -5.96046e-008
v -1.5 0.2 -0.2
v -1.5 0.2 -0.4
v -1.5 0.2 -0.6
v -1.3 0.1 0.2
v -1.3 0.1 -5.96046e-008
v -1.3 0.1 -0.2
v -1.3 0.1 -0.4
v -1.3 0.2 0.4
v -1.3 0.2 0.2
v -1.3 0.2 -5.96046e-008
v -1.3 0.2 -0.2
v -1.3 0.2 -0.4
v -1.3 0.2 -0.6
v -1.3 0.3 0.4
v -1.3 0.3 0.2
v -1.3 0.3 -5.96046e-008
v -1.3 0.3 -0.2
v -1.3 0.3 -0.4
v -1.3 0.3 -0.6
v -0.8 0.1 0.2
v -0.8 0.1 -5.96046e-008
v -0.8 0.1 -0.2
v -0.8 0.1 -0.4
v -0.8 0.2 0.4
v -0.8 0.2 0.2
v -0.8 0.2 -5.96046e-008
v -0.8 0.2 -0.2
v -0.8 0.2 -0.4
v -0.8 0.2 -0.6
v -0.8 0.3 0.4
v -0.8 0.3 0.2
v -0.8 0.3 -5.96046e-008
v -0.8 0.3 -0.2
v -0.8 0.3 -0.4
v -0.8 0.3 -0.6
v -0.3 0.1 0.2
v -0.3 0.1 -5.96046e-008
v -0.3 0.1 -0.2
v -0.3 0.1 -0.4
v -0.3 0.2 0.4
v -0.3 0.2 0.2
v -0.3 0.2 -5.96046e-008
v -0.3 0.2 -0.2
v -0.3 0.2 -0.4
v -0.3 0.2 -0.6
v -0.3 0.3 0.4
v -0.3 0.3 0.2
v -0.3 0.3 -5.96046e-008
v -0.3 0.3 -0.2
v -0.3 0.3 -0.4
v -0.3 0.3 -0.6
v 0.2 0.1 0.2
v 0.2 0.1 -5.96046e-008
v 0.2 0.1 -0.2
v 0.2 0.1 -0.4
v 0.2 0.2 0.3
v 0.2 0.2 0.2
v 0.2 0.2 -5.96046e-008
v 0.2 0.2 -0.2
v 0.2 0.2 -0.4
v 0.2 0.2 -0.5
v 0.2 0.3 0.3
v 0.2 0.3 0.2
v 0.2 0.3 -5.96046e-008
v 0.2 0.3 -0.2
v 0.2 0.3 -0.4
v 0.2 0.3 -0.5
v -1.2 0.1 0.2
v -1.2 0.1 -5.96046e-008
v -1.2 0.1 -0.2
v -1.2 0.1 -0.4
v -1.2 0.2 0.4
v -1.2 0.2 0.2
v -1.2 0.2 -5.96046e-008
v -1.2 0.2 -0.2
v -1.2 0.2 -0.4
v -1.2 0.2 -0.6
v -1.2 0.3 0.4
v -1.2 0.3 0.2
v -1.2 0.3 -5.96046e-008
v -1.2 0.3 -0.2
v -1.2 0.3 -0.4
v -1.2 0.3 -0.6
v -0.7 0.1 0.2
v -0.7 0.1 -5.96046e-008
v -0.7 0.1 -0.2
v -0.7 0.1 -0.4
v -0.7 0.2 0.4
v -0.7 0.2 0.2
v -0.7 0.2 -5.96046e-008
v -0.7 0.2 -0.2
v -0.7 0.2 -0.4
v -0.7 0.2 -0.6
v -0.7 0.3 0.4
v -0.7 0.3 0.2
v -0.7 0.3 -5.96046e-008
v -0.7 0.3 -0.2
v -0.7 0.3 -0.4
v -0.7 0.3 -0.6
v -0.2 0.1 0.2
v -0.2 0.1 -5.96046e-008
v -0.2 0.1 -0.2
v -0.2 0.1 -0.4
v -0.2 0.2 0.4
v -0.2 0.2 0.2
v -0.2 0.2 -5.96046e-008
v -0.2 0.2 -0.2
v -0.2 0.2 -0.4
v -0.2 0.2 -0.6
v -0.2 0.3 0.4
v -0.2 0.3 0.2
v -0.2 0.3 -5.96046e-008
v -0.2 0.3 -0.2
v -0.2 0.3 -0.4
v -0.2 0.3 -0.6
v 0.1 0.1 -0.5
v 0.1 0.1 -0.6
v 0.1 0.2 -0.5
v 0.1 0.2 -0.6
v 0.2 0.1 0.4
v 0.2 0.1 0.3
v 0.2 0.2 0.4
v 0.2 0.2 0.3
v 0.3 0.1 0.2
v 0.3 0.1 -5.96046e-008
v 0.3 0.1 -0.2
v 0.3 0.1 -0.4
v 0.3 0.2 0.3
v 0.3 0.2 0.2
v 0.3 0.2 -5.96046e-008
v 0.3 0.2 -0.2
v 0.3 0.2 -0.4
v 0.3 0.2 -0.5
v 0.3 0.3 0.3
v 0.3 0.3 0.2
v 0.3 0.3 -5.96046e-008
v 0.3 0.3 -0.2
v 0.3 0.3 -0.4
v 0.3 0.3 -0.5
v 0.4 0.1 0.3
v 0.4 0.1 0.2
v 0.4 0.1 -0.4
v 0.4 0.1 -0.5
v 0.4 0.2 0.3
v 0.4 0.2 0.2
v 0.4 0.2 -0.4
v 0.4 0.2 -0.5
v 0.5 0.1 -5.96046e-008
v 0.5 0.1 -0.2
v 0.5 0.2 -5.96046e-008
v 0.5 0.2 -0.2
v -1.5 0.1 0.4
v -1.5 0.2 0.4
v -1.3 0.2 0.4
v -1.3 0.3 0.4
v -1.2 0.2 0.4
v -1.2 0.3 0.4
v -0.8 0.2 0.4
v -0.8 0.3 0.4
v -0.7 0.2 0.4
v -0.7 0.3 0.4
v -0.3 0.2 0.4
v -0.3 0.3 0.4
v -0.2 0.2 0.4
v -0.2 0.3 0.4
v 0.2 0.1 0.4
v 0.2 0.2 0.4
v 0.2 0.1 0.3
v 0.2 0.2 0.3
v 0.2 0.3 0.3
v 0.3 0.1 0.3
v 0.3 0.2 0.3
v 0.3 0.3 0.3
v 0.4 0.1 0.3
v 0.4 0.2 0.3
v -1.5 0.1 -5.96046e-008
v -1.5 0.2 -5.96046e-008
v -1.3 0.1 -5.96046e-008
v -1.3 0.2 -5.96046e-008
v -1.3 0.3 -5.96046e-008
v -1.2 0.1 -5.96046e-008
v -1.2 0.2 -5.96046e-008
v -1.2 0.3 -5.96046e-008
v -0.8 0.1 -5.96046e-008
v -0.8 0.2 -5.96046e-008
v -0.8 0.3 -5.96046e-008
v -0.7 0.1 -5.96046e-008
v -0.7 0.2 -5.96046e-008
v -0.7 0.3 -5.96046e-008
v -0.3 0.1 -5.96046e-008
v -0.3 0.2 -5.96046e-008
v -0.3 0.3 -5.96046e-008
v -0.2 0.1 -5.96046e-008
v -0.2 0.2 -5.96046e-008
v -0.2 0.3 -5.96046e-008
v 0.2 0.1 -5.96046e-008
v 0.2 0.2 -5.96046e-008
v 0.2 0.3 -5.96046e-008
v 0.3 0.1 -5.96046e-008
v 0.3 0.2 -5.96046e-008
v 0.3 0.3 -5.96046e-008
v 0.5 0.1 -5.96046e-008
v 0.5 0.2 -5.96046e-008
v -1.5 0.1 -0.4
v -1.5 0.2 -0.4
v -1.3 0.1 -0.4
v -1.3 0.2 -0.4
v -1.3 0.3 -0.4
v -1.2 0.1 -0.4
v -1.2 0.2 -0.4
v -1.2 0.3 -0.4
v -0.8 0.1 -0.4
v -0.8 0.2 -0.4
v -0.8 0.3 -0.4
v -0.7 0.1 -0.4
v -0.7 0.2 -0.4
v -0.7 0.3 -0.4
v -0.3 0.1 -0.4
v -0.3 0.2 -0.4
v -0.3 0.3 -0.4
v -0.2 0.1 -0.4
v -0.2 0.2 -0.4
v -0.2 0.3 -0.4
v 0.2 0.1 -0.4
v 0.2 0.2 -0.4
v 0.2 0.3 -0.4
v 0.3 0.1 -0.4
v 0.3 0.2 -0.4
v 0.3 0.3 -0.4
v 0.4 0.1 -0.4
v 0.4 0.2 -0.4
v -1.5 0.1 0.2
v -1.5 0.2 0.2
v -1.3 0.1 0.2
v -1.3 0.2 0.2
v -1.3 0.3 0.2
v -1.2 0.1 0.2
v -1.2 0.2 0.2
v -1.2 0.3 0.2
v -0.8 0.1 0.2
v -0.8 0.2 0.2
v -0.8 0.3 0.2
v -0.7 0.1 0.2
v -0.7 0.2 0.2
v -0.7 0.3 0.2
v -0.3 0.1 0.2
v -0.3 0.2 0.2
v -0.3 0.3 0.2
v -0.2 0.1 0.2
v -0.2 0.2 0.2
v -0.2 0.3 0.2
v 0.2 0.1 0.2
v 0.2 0.2 0.2
v 0.2 0.3 0.2
v 0.3 0.1 0.2
v 0.3 0.2 0.2
v 0.3 0.3 0.2
v 0.4 0.1 0.2
v 0.4 0.2 0.2
v -1.5 0.1 -0.2
v -1.5 0.2 -0.2
v -1.3 0.1 -0.2
v -1.3 0.2 -0.2
v -1.3 0.3 -0.2
v -1.2 0.1 -0.2
v -1.2 0.2 -0.2
v -1.2 0.3 -0.2
v -0.8 0.1 -0.2
v -0.8 0.2 -0.2
v -0.8 0.3 -0.2
v -0.7 0.1 -0.2
v -0.7 0.2 -0.2
v -0.7 0.3 -0.2
v -0.3 0.1 -0.2
v -0.3 0.2 -0.2
v -0.3 0.3 -0.2
v -0.2 0.1 -0.2
v -0.2 0.2 -0.2
v -0.2 0.3 -0.2
v 0.2 0.1 -0.2
v 0.2 0.2 -0.2
v 0.2 0.3 -0.2
v 0.3 0.1 -0.2
v 0.3 0.2 -0.2
v 0.3 0.3 -0.2
v 0.5 0.1 -0.2
v 0.5 0.2 -0.2
v 0.1 0.1 -0.5
v 0.1 0.2 -0.5
v 0.2 0.1 -0.5
v 0.2 0.2 -0.5
v 0.2 0.3 -0.5
v 0.3 0.1 -0.5
v 0.3 0.2 -0.5
v 0.3 0.3 -0.5
v 0.4 0.1 -0.5
v 0.4 0.2 -0.5
v -1.5 0.1 -0.6
v -1.5 0.2 -0.6
v -1.3 0.2 -0.6
v -1.3 0.3 -0.6
v -1.2 0.2 -0.6
v -1.2 0.3 -0.6
v -0.8 0.2 -0.6
v -0.8 0.3 -0.6
v -0.7 0.2 -0.6
v -0.7 0.3 -0.6
v -0.3 0.2 -0.6
v -0.3 0.3 -0.6
v -0.2 0.2 -0.6
v -0.2 0.3 -0.6
v 0.1 0.1 -0.6
v 0.1 0.2 -0.6
v -1.5 0.1 0.4
v 0.2 0.1 0.4
v -1.3 0.1 0.3
v -1.2 0.1 0.3
v -0.8 0.1 0.3
v -0.7 0.1 0.3
v -0.3 0.1 0.3
v -0.2 0.1 0.3
v 0.2 0.1 0.3
v 0.3 0.1 0.3
v 0.4 0.1 0.3
v -1.5 0.1 0.2
v -1.3 0.1 0.2
v -1.2 0.1 0.2
v -0.8 0.1 0.2
v -0.7 0.1 0.2
v -0.3 0.1 0.2
v -0.2 0.1 0.2
v 0.2 0.1 0.2
v 0.3 0.1 0.2
v 0.4 0.1 0.2
v -1.5 0.1 -5.96046e-008
v -1.3 0.1 -5.96046e-008
v -1.2 0.1 -5.96046e-008
v -0.8 0.1 -5.96046e-008
v -0.7 0.1 -5.96046e-008
v -0.3 0.1 -5.96046e-008
v -0.2 0.1 -5.96046e-008
v 0.2 0.1 -5.96046e-008
v 0.3 0.1 -5.96046e-008
v 0.5 0.1 -5.96046e-008
v -1.5 0.1 -0.2
v -1.3 0.1 -0.2
v -1.2 0.1 -0.2
v -0.8 0.1 -0.2
v -0.7 0.1 -0.2
v -0.3 0.1 -0.2
v -0.2 0.1 -0.2
v 0.2 0.1 -0.2
v 0.3 0.1 -0.2
v 0.5 0.1 -0.2
v -1.5 0.1 -0.4
v -1.3 0.1 -0.4
v -1.2 0.1 -0.4
v -0.8 0.1 -0.4
v -0.7 0.1 -0.4
v -0.3 0.1 -0.4
v -0.2 0.1 -0.4
v 0.2 0.1 -0.4
v 0.3 0.1 -0.4
v 0.4 0.1 -0.4
v -1.3 0.1 -0.5
v -1.2 0.1 -0.5
v -0.8 0.1 -0.5
v -0.7 0.1 -0.5
v -0.3 0.1 -0.5
v -0.2 0.1 -0.5
v 0.1 0.1 -0.5
v 0.2 0.1 -0.5
v 0.3 0.1 -0.5
v 0.4 0.1 -0.5
v -1.5 0.1 -0.6
v 0.1 0.1 -0.6
v -1.5 0.2 0.4
v -1.3 0.2 0.4
v -1.2 0.2 0.4
v -0.8 0.2 0.4
v -0.7 0.2 0.4
v -0.3 0.2 0.4
v -0.2 0.2 0.4
v 0.2 0.2 0.4
v 0.2 0.2 0.3
v 0.3 0.2 0.3
v 0.4 0.2 0.3
v -1.5 0.2 0.2
v -1.3 0.2 0.2
v -1.2 0.2 0.2
v -0.8 0.2 0.2
v -0.7 0.2 0.2
v -0.3 0.2 0.2
v -0.2 0.2 0.2
v 0.2 0.2 0.2
v 0.3 0.2 0.2
v 0.4 0.2 0.2
v -1.5 0.2 -5.96046e-008
v -1.3 0.2 -5.96046e-008
v -1.2 0.2 -5.96046e-008
v -0.8 0.2 -5.96046e-008
v -0.7 0.2 -5.96046e-008
v -0.3 0.2 -5.96046e-008
v -0.2 0.2 -5.96046e-008
v 0.2 0.2 -5.96046e-008
v 0.3 0.2 -5.96046e-008
v 0.5 0.2 -5.96046e-008
v -1.5 0.2 -0.2
v -1.3 0.2 -0.2
v -1.2 0.2 -0.2
v -0.8 0.2 -0.2
v -0.7 0.2 -0.2
v -0.3 0.2 -0.2
v -0.2 0.2 -0.2
v 0.2 0.2 -0.2
v 0.3 0.2 -0.2
v 0.5 0.2 -0.2
v -1.5 0.2 -0.4
v -1.3 0.2 -0.4
v -1.2 0.2 -0.4
v -0.8 0.2 -0.4
v -0.7 0.2 -0.4
v -0.3 0.2 -0.4
v -0.2 0.2 -0.4
v 0.2 0.2 -0.4
v 0.3 0.2 -0.4
v 0.4 0.2 -0.4
v 0.1 0.2 -0.5
v 0.2 0.2 -0.5
v 0.3 0.2 -0.5
v 0.4 0.2 -0.5
v -1.5 0.2 -0.6
v -1.3 0.2 -0.6
v -1.2 0.2 -0.6
v -0.8 0.2 -0.6
v -0.7 0.2 -0.6
v -0.3 0.2 -0.6
v -0.2 0.2 -0.6
v 0.1 0.2 -0.6
v -1.3 0.3 0.4
v -1.2 0.3 0.4
v -0.8 0.3 0.4
v -0.7 0.3 0.4
v -0.3 0.3 0.4
v -0.2 0.3 0.4
v 0.2 0.3 0.3
v 0.3 0.3 0.3
v -1.3 0.3 0.2
v -1.2 0.3 0.2
v -0.8 0.3 0.2
v -0.7 0.3 0.2
v -0.3 0.3 0.2
v -0.2 0.3 0.2
v 0.2 0.3 0.2
v 0.3 0.3 0.2
v -1.3 0.3 -5.96046e-008
v -1.2 0.3 -5.96046e-008
v -0.8 0.3 -5.96046e-008
v -0.7 0.3 -5.96046e-008
v -0.3 0.3 -5.96046e-008
v -0.2 0.3 -5.96046e-008
v 0.2 0.3 -5.96046e-008
v 0.3 0.3 -5.96046e-008
v -1.3 0.3 -0.2
v -1.2 0.3 -0.2
v -0.8 0.3 -0.2
v -0.7 0.3 -0.2
v -0.3 0.3 -0.2
v -0.2 0.3 -0.2
v 0.2 0.3 -0.2
v 0.3 0.3 -0.2
v -1.3 0.3 -0.4
v -1.2 0.3 -0.4
v -0.8 0.3 -0.4
v -0.7 0.3 -0.4
v -0.3 0.3 -0.4
v -0.2 0.3 -0.4
v 0.2 0.3 -0.4
v 0.3 0.3 -0.4
v 0.2 0.3 -0.5
v 0.3 0.3 -0.5
v -1.3 0.3 -0.6
v -1.2 0.3 -0.6
v -0.8 0.3 -0.6
v -0.7 0.3 -0.6
v -0.3 0.3 -0.6
v -0.2 0.3 -0.6

# faces
f 7/2/1 2/2/1 1/2/1
f 8/2/1 2/2/1 7/2/1
f 9/2/1 4/2/1 3/2/1
f 10/2/1 4/2/1 9/2/1
f 11/2/1 6/2/1 5/2/1
f 12/2/1 6/2/1 11/2/1
f 18/2/1 14/2/1 13/2/1
f 19/2/1 14/2/1 18/2/1
f 20/2/1 16/2/1 15/2/1
f 21/2/1 16/2/1 20/2/1
f 23/1/1 18/1/1 17/1/1
f 24/1/1 18/1/1 23/1/1
f 25/1/1 20/1/1 19/1/1
f 26/1/1 20/1/1 25/1/1
f 27/1/1 22/1/1 21/1/1
f 28/1/1 22/1/1 27/1/1
f 34/2/1 30/2/1 29/2/1
f 35/2/1 30/2/1 34/2/1
f 36/2/1 32/2/1 31/2/1
f 37/2/1 32/2/1 36/2/1
f 39/1/1 34/1/1 33/1/1
f 40/1/1 34/1/1 39/1/1
f 41/1/1 36/1/1 35/1/1
f 42/1/1 36/1/1 41/1/1
f 43/1/1 38/1/1 37/1/1
f 44/1/1 38/1/1 43/1/1
f 50/2/1 46/2/1 45/2/1
f 51/2/1 46/2/1 50/2/1
f 52/2/1 48/2/1 47/2/1
f 53/2/1 48/2/1 52/2/1
f 55/1/1 50/1/1 49/1/1
f 56/1/1 50/1/1 55/1/1
f 57/1/1 52/1/1 51/1/1
f 58/1/1 52/1/1 57/1/1
f 59/1/1 54/1/1 53/1/1
f 60/1/1 54/1/1 59/1/1
f 66/2/1 62/2/1 61/2/1
f 67/2/1 62/2/1 66/2/1
f 68/2/1 64/2/1 63/2/1
f 69/2/1 64/2/1 68/2/1
f 71/1/1 66/1/1 65/1/1
f 72/1/1 66/1/1 71/1/1
f 73/1/1 68/1/1 67/1/1
f 74/1/1 68/1/1 73/1/1
f 75/1/1 70/1/1 69/1/1
f 76/1/1 70/1/1 75/1/1
f 77/2/2 78/2/2 82/2/2
f 82/2/2 78/2/2 83/2/2
f 79/2/2 80/2/2 84/2/2
f 84/2/2 80/2/2 85/2/2
f 81/1/2 82/1/2 87/1/2
f 87/1/2 82/1/2 88/1/2
f 83/1/2 84/1/2 89/1/2
f 89/1/2 84/1/2 90/1/2
f 85/1/2 86/1/2 91/1/2
f 91/1/2 86/1/2 92/1/2
f 93/2/2 94/2/2 98/2/2
f 98/2/2 94/2/2 99/2/2
f 95/2/2 96/2/2 100/2/2
f 100/2/2 96/2/2 101/2/2
f 97/1/2 98/1/2 103/1/2
f 103/1/2 98/1/2 104/1/2
f 99/1/2 100/1/2 105/1/2
f 105/1/2 100/1/2 106/1/2
f 101/1/2 102/1/2 107/1/2
f 107/1/2 102/1/2 108/1/2
f 109/2/2 110/2/2 114/2/2
f 114/2/2 110/2/2 115/2/2
f 111/2/2 112/2/2 116/2/2
f 116/2/2 112/2/2 117/2/2
f 113/1/2 114/1/2 119/1/2
f 119/1/2 114/1/2 120/1/2
f 115/1/2 116/1/2 121/1/2
f 121/1/2 116/1/2 122/1/2
f 117/1/2 118/1/2 123/1/2
f 123/1/2 118/1/2 124/1/2
f 125/2/2 126/2/2 127/2/2
f 127/2/2 126/2/2 128/2/2
f 129/2/2 130/2/2 131/2/2
f 131/2/2 130/2/2 132/2/2
f 133/2/2 134/2/2 138/2/2
f 138/2/2 134/2/2 139/2/2
f 135/2/2 136/2/2 140/2/2
f 140/2/2 136/2/2 141/2/2
f 137/1/2 138/1/2 143/1/2
f 143/1/2 138/1/2 144/1/2
f 139/1/2 140/1/2 145/1/2
f 145/1/2 140/1/2 146/1/2
f 141/1/2 142/1/2 147/1/2
f 147/1/2 142/1/2 148/1/2
f 149/2/2 150/2/2 153/2/2
f 153/2/2 150/2/2 154/2/2
f 151/2/2 152/2/2 155/2/2
f 155/2/2 152/2/2 156/2/2
f 157/2/2 158/2/2 159/2/2
f 159/2/2 158/2/2 160/2/2
f 163/2/3 162/2/3 161/2/3
f 165/2/3 163/2/3 161/2/3
f 165/1/3 164/1/3 163/1/3
f 166/1/3 164/1/3 165/1/3
f 167/2/3 165/2/3 161/2/3
f 169/2/3 167/2/3 161/2/3
f 169/1/3 168/1/3 167/1/3
f 170/1/3 168/1/3 169/1/3
f 171/2/3 169/2/3 161/2/3
f 173/2/3 171/2/3 161/2/3
f 173/1/3 172/1/3 171/1/3
f 174/1/3 172/1/3 173/1/3
f 175/2/3 173/2/3 161/2/3
f 176/2/3 173/2/3 175/2/3
f 180/1/3 178/1/3 177/1/3
f 180/1/3 179/1/3 178/1/3
f 181/1/3 179/1/3 180/1/3
f 182/1/3 179/1/3 181/1/3
f 183/2/3 181/2/3 180/2/3
f 184/2/3 181/2/3 183/2/3
f 187/2/3 186/2/3 185/2/3
f 188/2/3 186/2/3 187/2/3
f 191/1/3 189/1/3 188/1/3
f 192/1/3 189/1/3 191/1/3
f 193/2/3 191/2/3 190/2/3
f 194/2/3 191/2/3 193/2/3
f 197/1/3 195/1/3 194/1/3
f 198/1/3 195/1/3 197/1/3
f 199/2/3 197/2/3 196/2/3
f 200/2/3 197/2/3 199/2/3
f 203/1/3 201/1/3 200/1/3
f 204/1/3 201/1/3 203/1/3
f 205/2/3 203/2/3 202/2/3
f 206/2/3 203/2/3 205/2/3
f 209/1/3 207/1/3 206/1/3
f 210/1/3 207/1/3 209/1/3
f 211/2/3 209/2/3 208/2/3
f 212/2/3 209/2/3 211/2/3
f 215/2/3 214/2/3 213/2/3
f 216/2/3 214/2/3 215/2/3
f 219/1/3 217/1/3 216/1/3
f 220/1/3 217/1/3 219/1/3
f 221/2/3 219/2/3 218/2/3
f 222/2/3 219/2/3 221/2/3
f 225/1/3 223/1/3 222/1/3
f 226/1/3 223/1/3 225/1/3
f 227/2/3 225/2/3 224/2/3
f 228/2/3 225/2/3 227/2/3
f 231/1/3 229/1/3 228/1/3
f 232/1/3 229/1/3 231/1/3
f 233/2/3 231/2/3 230/2/3
f 234/2/3 231/2/3 233/2/3
f 237/1/3 235/1/3 234/1/3
f 238/1/3 235/1/3 237/1/3
f 239/2/3 237/2/3 236/2/3
f 240/2/3 237/2/3 239/2/3
f 241/2/4 242/2/4 243/2/4
f 243/2/4 242/2/4 244/2/4
f 244/1/4 245/1/4 247/1/4
f 247/1/4 245/1/4 248/1/4
f 246/2/4 247/2/4 249/2/4
f 249/2/4 247/2/4 250/2/4
f 250/1/4 251/1/4 253/1/4
f 253/1/4 251/1/4 254/1/4
f 252/2/4 253/2/4 255/2/4
f 255/2/4 253/2/4 256/2/4
f 256/1/4 257/1/4 259/1/4
f 259/1/4 257/1/4 260/1/4
f 258/2/4 259/2/4 261/2/4
f 261/2/4 259/2/4 262/2/4
f 262/1/4 263/1/4 265/1/4
f 265/1/4 263/1/4 266/1/4
f 264/2/4 265/2/4 267/2/4
f 267/2/4 265/2/4 268/2/4
f 269/2/4 270/2/4 271/2/4
f 271/2/4 270/2/4 272/2/4
f 272/1/4 273/1/4 275/1/4
f 275/1/4 273/1/4 276/1/4
f 274/2/4 275/2/4 277/2/4
f 277/2/4 275/2/4 278/2/4
f 278/1/4 279/1/4 281/1/4
f 281/1/4 279/1/4 282/1/4
f 280/2/4 281/2/4 283/2/4
f 283/2/4 281/2/4 284/2/4
f 284/1/4 285/1/4 287/1/4
f 287/1/4 285/1/4 288/1/4
f 286/2/4 287/2/4 289/2/4
f 289/2/4 287/2/4 290/2/4
f 290/1/4 291/1/4 293/1/4
f 293/1/4 291/1/4 294/1/4
f 292/2/4 293/2/4 295/2/4
f 295/2/4 293/2/4 296/2/4
f 297/2/4 298/2/4 299/2/4
f 299/2/4 298/2/4 300/2/4
f 299/1/4 300/1/4 302/1/4
f 300/1/4 301/1/4 302/1/4
f 302/1/4 301/1/4 303/1/4
f 303/1/4 301/1/4 304/1/4
f 302/2/4 303/2/4 305/2/4
f 305/2/4 303/2/4 306/2/4
f 307/2/4 308/2/4 309/2/4
f 307/2/4 309/2/4 311/2/4
f 309/1/4 310/1/4 311/1/4
f 311/1/4 310/1/4 312/1/4
f 307/2/4 311/2/4 313/2/4
f 307/2/4 313/2/4 315/2/4
f 313/1/4 314/1/4 315/1/4
f 315/1/4 314/1/4 316/1/4
f 307/2/4 315/2/4 317/2/4
f 307/2/4 317/2/4 319/2/4
f 317/1/4 318/1/4 319/1/4
f 319/1/4 318/1/4 320/1/4
f 307/2/4 319/2/4 321/2/4
f 321/2/4 319/2/4 322/2/4
f 325/2/5 324/2/5 323/2/5
f 326/2/5 324/2/5 325/2/5
f 327/2/5 324/2/5 326/2/5
f 328/2/5 324/2/5 327/2/5
f 329/2/5 324/2/5 328/2/5
f 330/2/5 324/2/5 329/2/5
f 331/2/5 324/2/5 330/2/5
f 334/2/5 325/2/5 323/2/5
f 335/1/5 326/1/5 325/1/5
f 335/2/5 325/2/5 334/2/5
f 336/2/5 327/2/5 326/2/5
f 336/1/5 326/1/5 335/1/5
f 337/1/5 328/1/5 327/1/5
f 337/2/5 327/2/5 336/2/5
f 338/2/5 329/2/5 328/2/5
f 338/1/5 328/1/5 337/1/5
f 339/1/5 330/1/5 329/1/5
f 339/2/5 329/2/5 338/2/5
f 340/2/5 331/2/5 330/2/5
f 340/1/5 330/1/5 339/1/5
f 341/1/5 332/1/5 331/1/5
f 341/2/5 331/2/5 340/2/5
f 342/2/5 333/2/5 332/2/5
f 342/1/5 332/1/5 341/1/5
f 343/2/5 333/2/5 342/2/5
f 345/2/5 336/2/5 335/2/5
f 346/2/5 336/2/5 345/2/5
f 347/2/5 338/2/5 337/2/5
f 348/2/5 338/2/5 347/2/5
f 349/2/5 340/2/5 339/2/5
f 350/2/5 340/2/5 349/2/5
f 351/2/5 342/2/5 341/2/5
f 352/2/5 342/2/5 351/2/5
f 354/2/5 345/2/5 344/2/5
f 355/1/5 346/1/5 345/1/5
f 355/2/5 345/2/5 354/2/5
f 356/2/5 347/2/5 346/2/5
f 356/1/5 346/1/5 355/1/5
f 357/1/5 348/1/5 347/1/5
f 357/2/5 347/2/5 356/2/5
f 358/2/5 349/2/5 348/2/5
f 358/1/5 348/1/5 357/1/5
f 359/1/5 350/1/5 349/1/5
f 359/2/5 349/2/5 358/2/5
f 360/2/5 351/2/5 350/2/5
f 360/1/5 350/1/5 359/1/5
f 361/1/5 352/1/5 351/1/5
f 361/2/5 351/2/5 360/2/5
f 362/2/5 353/2/5 352/2/5
f 362/1/5 352/1/5 361/1/5
f 363/2/5 353/2/5 362/2/5
f 365/2/5 356/2/5 355/2/5
f 366/2/5 356/2/5 365/2/5
f 367/2/5 358/2/5 357/2/5
f 368/2/5 358/2/5 367/2/5
f 369/2/5 360/2/5 359/2/5
f 370/2/5 360/2/5 369/2/5
f 371/2/5 362/2/5 361/2/5
f 372/2/5 362/2/5 371/2/5
f 374/1/5 366/1/5 365/1/5
f 374/2/5 365/2/5 364/2/5
f 375/2/5 367/2/5 366/2/5
f 375/1/5 366/1/5 374/1/5
f 376/1/5 368/1/5 367/1/5
f 376/2/5 367/2/5 375/2/5
f 377/2/5 369/2/5 368/2/5
f 377/1/5 368/1/5 376/1/5
f 378/1/5 370/1/5 369/1/5
f 378/2/5 369/2/5 377/2/5
f 379/2/5 371/2/5 370/2/5
f 379/1/5 370/1/5 378/1/5
f 380/2/5 371/2/5 379/2/5
f 381/1/5 372/1/5 371/1/5
f 381/2/5 371/2/5 380/2/5
f 382/2/5 373/2/5 372/2/5
f 382/1/5 372/1/5 381/1/5
f 383/2/5 373/2/5 382/2/5
f 384/2/5 375/2/5 374/2/5
f 384/2/5 379/2/5 378/2/5
f 384/2/5 378/2/5 377/2/5
f 384/2/5 377/2/5 376/2/5
f 384/2/5 376/2/5 375/2/5
f 384/2/5 380/2/5 379/2/5
f 384/2/5 374/2/5 364/2/5
f 385/2/5 380/2/5 384/2/5
f 392/2/6 393/2/6 394/2/6
f 386/2/6 387/2/6 397/2/6
f 397/2/6 387/2/6 398/2/6
f 388/2/6 389/2/6 399/2/6
f 399/2/6 389/2/6 400/2/6
f 390/2/6 391/2/6 401/2/6
f 401/2/6 391/2/6 402/2/6
f 392/2/6 394/2/6 403/2/6
f 403/2/6 394/2/6 404/2/6
f 395/2/6 396/2/6 405/2/6
f 405/2/6 396/2/6 406/2/6
f 398/2/6 399/2/6 408/2/6
f 408/2/6 399/2/6 409/2/6
f 400/2/6 401/2/6 410/2/6
f 410/2/6 401/2/6 411/2/6
f 402/2/6 403/2/6 412/2/6
f 412/2/6 403/2/6 413/2/6
f 404/2/6 405/2/6 414/2/6
f 414/2/6 405/2/6 415/2/6
f 407/2/6 408/2/6 417/2/6
f 417/2/6 408/2/6 418/2/6
f 409/2/6 410/2/6 419/2/6
f 419/2/6 410/2/6 420/2/6
f 411/2/6 412/2/6 421/2/6
f 421/2/6 412/2/6 422/2/6
f 413/2/6 414/2/6 423/2/6
f 423/2/6 414/2/6 424/2/6
f 415/2/6 416/2/6 425/2/6
f 425/2/6 416/2/6 426/2/6
f 418/2/6 419/2/6 428/2/6
f 428/2/6 419/2/6 429/2/6
f 420/2/6 421/2/6 430/2/6
f 430/2/6 421/2/6 431/2/6
f 422/2/6 423/2/6 432/2/6
f 432/2/6 423/2/6 433/2/6
f 424/2/6 425/2/6 434/2/6
f 434/2/6 425/2/6 435/2/6
f 433/2/6 434/2/6 437/2/6
f 437/2/6 434/2/6 438/2/6
f 435/2/6 436/2/6 439/2/6
f 439/2/6 436/2/6 440/2/6
f 427/2/6 428/2/6 441/2/6
f 441/2/6 428/2/6 442/2/6
f 429/2/6 430/2/6 443/2/6
f 443/2/6 430/2/6 444/2/6
f 431/2/6 432/2/6 445/2/6
f 445/2/6 432/2/6 446/2/6
f 433/2/6 437/2/6 447/2/6
f 447/2/6 437/2/6 448/2/6
f 449/1/6 450/1/6 457/1/6
f 457/1/6 450/1/6 458/1/6
f 451/1/6 452/1/6 459/1/6
f 459/1/6 452/1/6 460/1/6
f 453/1/6 454/1/6 461/1/6
f 461/1/6 454/1/6 462/1/6
f 455/1/6 456/1/6 463/1/6
f 463/1/6 456/1/6 464/1/6
f 465/1/6 466/1/6 473/1/6
f 473/1/6 466/1/6 474/1/6
f 467/1/6 468/1/6 475/1/6
f 475/1/6 468/1/6 476/1/6
f 469/1/6 470/1/6 477/1/6
f 477/1/6 470/1/6 478/1/6
f 471/1/6 472/1/6 479/1/6
f 479/1/6 472/1/6 480/1/6
f 487/1/6 488/1/6 489/1/6
f 489/1/6 488/1/6 490/1/6
f 481/1/6 482/1/6 491/1/6
f 491/1/6 482/1/6 492/1/6
f 483/1/6 484/1/6 493/1/6
f 493/1/6 484/1/6 494/1/6
f 485/1/6 486/1/6 495/1/6
f 495/1/6 486/1/6 496/1/6
