# MagicaVoxel @ Ephtracy

# group
o 

# material
mtllib head.mtl
usemtl palette

# normals
vn -1 0 0
vn 1 0 0
vn 0 0 1
vn 0 0 -1
vn 0 -1 0
vn 0 1 0

# texcoords
vt 0.0332031 0.5
vt 0.966797 0.5
vt 0.970703 0.5
vt 0.982422 0.5
vt 0.986328 0.5
vt 0.994141 0.5

# verts
v -0.4 0.8 0
v -0.4 0.8 -0.1
v -0.4 0.9 -0.1
v -0.4 0.9 -0.2
v -0.4 1 0.1
v -0.4 1 0
v -0.4 1 -0.1
v -0.4 1 -0.2
v -0.4 1.1 0.1
v -0.4 1.1 0
v -0.4 1.1 -0.1
v -0.4 1.1 -0.2
v -0.4 1.2 0
v -0.4 1.2 -0.1
v -0.3 0.6 0.1
v -0.3 0.6 0
v -0.3 0.6 -0.1
v -0.3 0.6 -0.3
v -0.3 0.7 0.2
v -0.3 0.7 0.1
v -0.3 0.7 0
v -0.3 0.7 -0.1
v -0.3 0.7 -0.3
v -0.3 0.8 0.2
v -0.3 0.8 0.1
v -0.3 0.8 0
v -0.3 0.8 -0.1
v -0.3 0.8 -0.2
v -0.3 0.9 -0.1
v -0.3 0.9 -0.2
v -0.3 0.9 -0.3
v -0.3 1 0.1
v -0.3 1 0
v -0.3 1 -0.2
v -0.3 1 -0.3
v -0.3 1.1 0.2
v -0.3 1.1 0.1
v -0.3 1.1 0
v -0.3 1.1 -0.1
v -0.3 1.1 -0.2
v -0.3 1.2 0.1
v -0.3 1.2 0
v -0.3 1.2 -0.1
v -0.3 1.2 -0.2
v -0.3 1.2 -0.3
v -0.3 1.3 0
v -0.3 1.3 -0.1
v -0.3 1.3 -0.2
v -0.2 0.6 0.3
v -0.2 0.6 0.2
v -0.2 0.6 0.1
v -0.2 0.7 0.3
v -0.2 0.7 0.2
v -0.2 0.7 0.1
v -0.2 0.7 -0.3
v -0.2 0.7 -0.4
v -0.2 0.8 0.3
v -0.2 0.8 0.2
v -0.2 0.8 -0.3
v -0.2 0.8 -0.4
v -0.2 0.9 0.3
v -0.2 0.9 0.2
v -0.2 0.9 -0.3
v -0.2 0.9 -0.4
v -0.2 1 0.3
v -0.2 1 0.2
v -0.2 1 -0.3
v -0.2 1 -0.4
v -0.2 1.1 0.3
v -0.2 1.1 0.2
v -0.2 1.1 0.1
v -0.2 1.1 -0.3
v -0.2 1.1 -0.4
v -0.2 1.2 0.2
v -0.2 1.2 0.1
v -0.2 1.2 0
v -0.2 1.2 -0.2
v -0.2 1.2 -0.3
v -0.2 1.2 -0.4
v -0.2 1.3 0.1
v -0.2 1.3 0
v -0.2 1.3 -0.2
v -0.2 1.3 -0.3
v -0.1 0.7 0.3
v -0.1 0.7 0.2
v -0.1 0.8 0.3
v -0.1 0.8 0.2
v -0.1 0.8 -0.4
v -0.1 0.8 -0.5
v -0.1 0.9 -0.4
v -0.1 0.9 -0.5
v -0.1 1 -0.4
v -0.1 1 -0.5
v -0.1 1.1 -0.4
v -0.1 1.1 -0.5
v 0.1 0.8 0.3
v 0.1 0.8 0.2
v 0.1 0.9 0.3
v 0.1 0.9 0.2
v 0.2 0.7 0.2
v 0.2 0.7 0.1
v 0.2 0.8 0.2
v 0.2 0.8 0.1
v 0.2 0.9 0.2
v 0.2 0.9 0.1
v 0.2 1 0.2
v 0.2 1 0.1
v -0.2 0.7 0.2
v -0.2 0.7 0.1
v -0.2 0.8 0.2
v -0.2 0.8 0.1
v -0.2 0.9 0.2
v -0.2 0.9 0.1
v -0.2 1 0.2
v -0.2 1 0.1
v -0.1 0.8 0.3
v -0.1 0.8 0.2
v -0.1 0.9 0.3
v -0.1 0.9 0.2
v 0.1 0.7 0.3
v 0.1 0.7 0.2
v 0.1 0.8 0.3
v 0.1 0.8 0.2
v 0.1 0.8 -0.4
v 0.1 0.8 -0.5
v 0.1 0.9 -0.4
v 0.1 0.9 -0.5
v 0.1 1 -0.4
v 0.1 1 -0.5
v 0.1 1.1 -0.4
v 0.1 1.1 -0.5
v 0.2 0.6 0.3
v 0.2 0.6 0.2
v 0.2 0.6 0.1
v 0.2 0.7 0.3
v 0.2 0.7 0.2
v 0.2 0.7 0.1
v 0.2 0.7 -0.3
v 0.2 0.7 -0.4
v 0.2 0.8 0.3
v 0.2 0.8 0.2
v 0.2 0.8 -0.3
v 0.2 0.8 -0.4
v 0.2 0.9 0.3
v 0.2 0.9 0.2
v 0.2 0.9 -0.3
v 0.2 0.9 -0.4
v 0.2 1 0.3
v 0.2 1 0.2
v 0.2 1 -0.3
v 0.2 1 -0.4
v 0.2 1.1 0.3
v 0.2 1.1 0.2
v 0.2 1.1 0.1
v 0.2 1.1 -0.3
v 0.2 1.1 -0.4
v 0.2 1.2 0.2
v 0.2 1.2 0.1
v 0.2 1.2 0
v 0.2 1.2 -0.2
v 0.2 1.2 -0.3
v 0.2 1.2 -0.4
v 0.2 1.3 0.1
v 0.2 1.3 0
v 0.2 1.3 -0.2
v 0.2 1.3 -0.3
v 0.3 0.6 0.1
v 0.3 0.6 0
v 0.3 0.6 -0.1
v 0.3 0.6 -0.3
v 0.3 0.7 0.2
v 0.3 0.7 0.1
v 0.3 0.7 0
v 0.3 0.7 -0.1
v 0.3 0.7 -0.3
v 0.3 0.8 0.2
v 0.3 0.8 0.1
v 0.3 0.8 0
v 0.3 0.8 -0.1
v 0.3 0.8 -0.2
v 0.3 0.9 -0.1
v 0.3 0.9 -0.2
v 0.3 0.9 -0.3
v 0.3 1 0.1
v 0.3 1 0
v 0.3 1 -0.2
v 0.3 1 -0.3
v 0.3 1.1 0.2
v 0.3 1.1 0.1
v 0.3 1.1 0
v 0.3 1.1 -0.1
v 0.3 1.1 -0.2
v 0.3 1.2 0.1
v 0.3 1.2 0
v 0.3 1.2 -0.1
v 0.3 1.2 -0.2
v 0.3 1.2 -0.3
v 0.3 1.3 0
v 0.3 1.3 -0.1
v 0.3 1.3 -0.2
v 0.4 0.8 0
v 0.4 0.8 -0.1
v 0.4 0.9 -0.1
v 0.4 0.9 -0.2
v 0.4 1 0.1
v 0.4 1 0
v 0.4 1 -0.1
v 0.4 1 -0.2
v 0.4 1.1 0.1
v 0.4 1.1 0
v 0.4 1.1 -0.1
v 0.4 1.1 -0.2
v 0.4 1.2 0
v 0.4 1.2 -0.1
v -0.2 0.6 0.3
v -0.2 0.7 0.3
v -0.2 0.8 0.3
v -0.2 0.9 0.3
v -0.2 1 0.3
v -0.2 1.1 0.3
v -0.1 0.6 0.3
v -0.1 0.7 0.3
v -0.1 0.8 0.3
v -0.1 0.9 0.3
v -0.1 1 0.3
v -0.1 1.1 0.3
v 0.1 0.6 0.3
v 0.1 0.7 0.3
v 0.1 0.8 0.3
v 0.1 0.9 0.3
v 0.1 1 0.3
v 0.1 1.1 0.3
v 0.2 0.6 0.3
v 0.2 0.7 0.3
v 0.2 0.8 0.3
v 0.2 0.9 0.3
v 0.2 1 0.3
v 0.2 1.1 0.3
v -0.3 0.7 0.2
v -0.3 0.8 0.2
v -0.3 1.1 0.2
v -0.2 0.7 0.2
v -0.2 0.8 0.2
v -0.2 0.9 0.2
v -0.2 1 0.2
v -0.2 1.1 0.2
v -0.2 1.2 0.2
v -0.1 1.1 0.2
v -0.1 1.2 0.2
v 0.1 1.1 0.2
v 0.1 1.2 0.2
v 0.2 0.7 0.2
v 0.2 0.8 0.2
v 0.2 0.9 0.2
v 0.2 1 0.2
v 0.2 1.1 0.2
v 0.2 1.2 0.2
v 0.3 0.7 0.2
v 0.3 0.8 0.2
v 0.3 1.1 0.2
v -0.4 1 0.1
v -0.4 1.1 0.1
v -0.3 0.6 0.1
v -0.3 0.7 0.1
v -0.3 1 0.1
v -0.3 1.1 0.1
v -0.3 1.2 0.1
v -0.2 0.6 0.1
v -0.2 0.7 0.1
v -0.2 0.8 0.1
v -0.2 0.9 0.1
v -0.2 1 0.1
v -0.2 1.1 0.1
v -0.2 1.2 0.1
v -0.2 1.3 0.1
v -0.1 0.7 0.1
v -0.1 0.8 0.1
v -0.1 0.9 0.1
v -0.1 1.2 0.1
v -0.1 1.3 0.1
v 0.1 0.7 0.1
v 0.1 0.8 0.1
v 0.1 0.9 0.1
v 0.1 1.2 0.1
v 0.1 1.3 0.1
v 0.2 0.6 0.1
v 0.2 0.7 0.1
v 0.2 0.8 0.1
v 0.2 0.9 0.1
v 0.2 1 0.1
v 0.2 1.1 0.1
v 0.2 1.2 0.1
v 0.2 1.3 0.1
v 0.3 0.6 0.1
v 0.3 0.7 0.1
v 0.3 1 0.1
v 0.3 1.1 0.1
v 0.3 1.2 0.1
v 0.4 1 0.1
v 0.4 1.1 0.1
v -0.4 0.8 0
v -0.4 1 0
v -0.4 1.1 0
v -0.4 1.2 0
v -0.3 0.8 0
v -0.3 1 0
v -0.3 1.1 0
v -0.3 1.2 0
v -0.3 1.3 0
v -0.2 1.2 0
v -0.2 1.3 0
v 0.2 1.2 0
v 0.2 1.3 0
v 0.3 0.8 0
v 0.3 1 0
v 0.3 1.1 0
v 0.3 1.2 0
v 0.3 1.3 0
v 0.4 0.8 0
v 0.4 1 0
v 0.4 1.1 0
v 0.4 1.2 0
v -0.2 0.8 0.2
v -0.2 0.9 0.2
v -0.2 1 0.2
v -0.1 0.7 0.2
v -0.1 0.8 0.2
v -0.1 0.9 0.2
v -0.1 1 0.2
v 0.1 0.7 0.2
v 0.1 0.8 0.2
v 0.1 0.9 0.2
v 0.1 1 0.2
v 0.2 0.8 0.2
v 0.2 0.9 0.2
v 0.2 1 0.2
v -0.4 0.8 -0.1
v -0.4 0.9 -0.1
v -0.4 1.1 -0.1
v -0.4 1.2 -0.1
v -0.3 0.8 -0.1
v -0.3 0.9 -0.1
v -0.3 1.1 -0.1
v -0.3 1.2 -0.1
v 0.3 0.8 -0.1
v 0.3 0.9 -0.1
v 0.3 1.1 -0.1
v 0.3 1.2 -0.1
v 0.4 0.8 -0.1
v 0.4 0.9 -0.1
v 0.4 1.1 -0.1
v 0.4 1.2 -0.1
v -0.4 0.9 -0.2
v -0.4 1 -0.2
v -0.4 1.1 -0.2
v -0.3 0.9 -0.2
v -0.3 1 -0.2
v -0.3 1.1 -0.2
v -0.3 1.2 -0.2
v -0.3 1.3 -0.2
v -0.2 1.2 -0.2
v -0.2 1.3 -0.2
v 0.2 1.2 -0.2
v 0.2 1.3 -0.2
v 0.3 0.9 -0.2
v 0.3 1 -0.2
v 0.3 1.1 -0.2
v 0.3 1.2 -0.2
v 0.3 1.3 -0.2
v 0.4 0.9 -0.2
v 0.4 1 -0.2
v 0.4 1.1 -0.2
v -0.3 0.6 -0.3
v -0.3 0.7 -0.3
v -0.3 0.9 -0.3
v -0.3 1 -0.3
v -0.3 1.2 -0.3
v -0.2 0.6 -0.3
v -0.2 0.7 -0.3
v -0.2 0.8 -0.3
v -0.2 0.9 -0.3
v -0.2 1 -0.3
v -0.2 1.1 -0.3
v -0.2 1.2 -0.3
v -0.2 1.3 -0.3
v -0.1 0.6 -0.3
v -0.1 0.7 -0.3
v -0.1 1.2 -0.3
v -0.1 1.3 -0.3
v 0.1 0.6 -0.3
v 0.1 0.7 -0.3
v 0.1 1.2 -0.3
v 0.1 1.3 -0.3
v 0.2 0.6 -0.3
v 0.2 0.7 -0.3
v 0.2 0.8 -0.3
v 0.2 0.9 -0.3
v 0.2 1 -0.3
v 0.2 1.1 -0.3
v 0.2 1.2 -0.3
v 0.2 1.3 -0.3
v 0.3 0.6 -0.3
v 0.3 0.7 -0.3
v 0.3 0.9 -0.3
v 0.3 1 -0.3
v 0.3 1.2 -0.3
v -0.2 0.7 -0.4
v -0.2 0.8 -0.4
v -0.2 0.9 -0.4
v -0.2 1 -0.4
v -0.2 1.1 -0.4
v -0.2 1.2 -0.4
v -0.1 0.7 -0.4
v -0.1 0.8 -0.4
v -0.1 0.9 -0.4
v -0.1 1 -0.4
v -0.1 1.1 -0.4
v -0.1 1.2 -0.4
v 0.1 0.7 -0.4
v 0.1 0.8 -0.4
v 0.1 0.9 -0.4
v 0.1 1 -0.4
v 0.1 1.1 -0.4
v 0.1 1.2 -0.4
v 0.2 0.7 -0.4
v 0.2 0.8 -0.4
v 0.2 0.9 -0.4
v 0.2 1 -0.4
v 0.2 1.1 -0.4
v 0.2 1.2 -0.4
v -0.1 0.8 -0.5
v -0.1 0.9 -0.5
v -0.1 1 -0.5
v -0.1 1.1 -0.5
v 0.1 0.8 -0.5
v 0.1 0.9 -0.5
v 0.1 1 -0.5
v 0.1 1.1 -0.5
v -0.2 0.6 0.3
v -0.1 0.6 0.3
v 0.1 0.6 0.3
v 0.2 0.6 0.3
v -0.2 0.6 0.2
v -0.1 0.6 0.2
v 0.1 0.6 0.2
v 0.2 0.6 0.2
v -0.3 0.6 0.1
v -0.2 0.6 0.1
v -0.1 0.6 0.1
v 0.1 0.6 0.1
v 0.2 0.6 0.1
v 0.3 0.6 0.1
v -0.3 0.6 0
v -0.2 0.6 0
v 0.2 0.6 0
v 0.3 0.6 0
v -0.3 0.6 -0.1
v -0.2 0.6 -0.1
v 0.2 0.6 -0.1
v 0.3 0.6 -0.1
v -0.2 0.6 -0.2
v -0.1 0.6 -0.2
v 0.1 0.6 -0.2
v 0.2 0.6 -0.2
v -0.3 0.6 -0.3
v -0.2 0.6 -0.3
v -0.1 0.6 -0.3
v 0.1 0.6 -0.3
v 0.2 0.6 -0.3
v 0.3 0.6 -0.3
v -0.3 0.7 0.2
v -0.2 0.7 0.2
v 0.2 0.7 0.2
v 0.3 0.7 0.2
v -0.3 0.7 0.1
v -0.2 0.7 0.1
v 0.2 0.7 0.1
v 0.3 0.7 0.1
v -0.2 0.7 -0.3
v -0.1 0.7 -0.3
v 0.1 0.7 -0.3
v 0.2 0.7 -0.3
v -0.2 0.7 -0.4
v -0.1 0.7 -0.4
v 0.1 0.7 -0.4
v 0.2 0.7 -0.4
v -0.2 0.8 0.3
v -0.1 0.8 0.3
v 0.1 0.8 0.3
v 0.2 0.8 0.3
v -0.2 0.8 0.2
v -0.1 0.8 0.2
v 0.1 0.8 0.2
v 0.2 0.8 0.2
v -0.4 0.8 0
v -0.3 0.8 0
v 0.3 0.8 0
v 0.4 0.8 0
v -0.4 0.8 -0.1
v -0.3 0.8 -0.1
v 0.3 0.8 -0.1
v 0.4 0.8 -0.1
v -0.1 0.8 -0.4
v 0.1 0.8 -0.4
v -0.1 0.8 -0.5
v 0.1 0.8 -0.5
v -0.1 0.9 0.3
v 0.1 0.9 0.3
v -0.1 0.9 0.2
v 0.1 0.9 0.2
v -0.4 0.9 -0.1
v -0.3 0.9 -0.1
v 0.3 0.9 -0.1
v 0.4 0.9 -0.1
v -0.4 0.9 -0.2
v -0.3 0.9 -0.2
v 0.3 0.9 -0.2
v 0.4 0.9 -0.2
v -0.2 1 0.2
v -0.1 1 0.2
v 0.1 1 0.2
v 0.2 1 0.2
v -0.4 1 0.1
v -0.3 1 0.1
v -0.2 1 0.1
v 0.2 1 0.1
v 0.3 1 0.1
v 0.4 1 0.1
v -0.4 1 0
v -0.3 1 0
v 0.3 1 0
v 0.4 1 0
v -0.2 0.7 0.3
v -0.1 0.7 0.3
v 0.1 0.7 0.3
v 0.2 0.7 0.3
v -0.2 0.7 0.2
v -0.1 0.7 0.2
v 0.1 0.7 0.2
v 0.2 0.7 0.2
v -0.2 0.7 0.1
v -0.1 0.7 0.1
v 0.1 0.7 0.1
v 0.2 0.7 0.1
v -0.1 0.8 0.3
v 0.1 0.8 0.3
v -0.1 0.8 0.2
v 0.1 0.8 0.2
v -0.2 1.1 0.3
v -0.1 1.1 0.3
v 0.1 1.1 0.3
v 0.2 1.1 0.3
v -0.3 1.1 0.2
v -0.2 1.1 0.2
v -0.1 1.1 0.2
v 0.1 1.1 0.2
v 0.2 1.1 0.2
v 0.3 1.1 0.2
v -0.4 1.1 0.1
v -0.3 1.1 0.1
v -0.2 1.1 0.1
v 0.2 1.1 0.1
v 0.3 1.1 0.1
v 0.4 1.1 0.1
v -0.4 1.1 0
v -0.3 1.1 0
v 0.3 1.1 0
v 0.4 1.1 0
v -0.4 1.1 -0.1
v -0.3 1.1 -0.1
v 0.3 1.1 -0.1
v 0.4 1.1 -0.1
v -0.4 1.1 -0.2
v -0.3 1.1 -0.2
v 0.3 1.1 -0.2
v 0.4 1.1 -0.2
v -0.1 1.1 -0.4
v 0.1 1.1 -0.4
v -0.1 1.1 -0.5
v 0.1 1.1 -0.5
v -0.2 1.2 0.2
v -0.1 1.2 0.2
v 0.1 1.2 0.2
v 0.2 1.2 0.2
v -0.3 1.2 0.1
v -0.2 1.2 0.1
v -0.1 1.2 0.1
v 0.1 1.2 0.1
v 0.2 1.2 0.1
v 0.3 1.2 0.1
v -0.4 1.2 0
v -0.3 1.2 0
v -0.2 1.2 0
v 0.2 1.2 0
v 0.3 1.2 0
v 0.4 1.2 0
v -0.4 1.2 -0.1
v -0.3 1.2 -0.1
v 0.3 1.2 -0.1
v 0.4 1.2 -0.1
v -0.3 1.2 -0.2
v -0.2 1.2 -0.2
v 0.2 1.2 -0.2
v 0.3 1.2 -0.2
v -0.3 1.2 -0.3
v -0.2 1.2 -0.3
v -0.1 1.2 -0.3
v 0.1 1.2 -0.3
v 0.2 1.2 -0.3
v 0.3 1.2 -0.3
v -0.2 1.2 -0.4
v -0.1 1.2 -0.4
v 0.1 1.2 -0.4
v 0.2 1.2 -0.4
v -0.2 1.3 0.1
v -0.1 1.3 0.1
v 0.1 1.3 0.1
v 0.2 1.3 0.1
v -0.3 1.3 0
v -0.2 1.3 0
v -0.1 1.3 0
v 0.1 1.3 0
v 0.2 1.3 0
v 0.3 1.3 0
v -0.3 1.3 -0.1
v -0.2 1.3 -0.1
v -0.1 1.3 -0.1
v 0.1 1.3 -0.1
v 0.2 1.3 -0.1
v 0.3 1.3 -0.1
v -0.3 1.3 -0.2
v -0.2 1.3 -0.2
v -0.1 1.3 -0.2
v 0.1 1.3 -0.2
v 0.2 1.3 -0.2
v 0.3 1.3 -0.2
v -0.2 1.3 -0.3
v -0.1 1.3 -0.3
v 0.1 1.3 -0.3
v 0.2 1.3 -0.3

# faces
f 3/5/1 2/5/1 1/5/1
f 6/5/1 3/5/1 1/5/1
f 7/4/1 4/4/1 3/4/1
f 7/5/1 3/5/1 6/5/1
f 8/4/1 4/4/1 7/4/1
f 9/5/1 6/5/1 5/5/1
f 10/4/1 7/4/1 6/4/1
f 10/5/1 6/5/1 9/5/1
f 11/5/1 8/5/1 7/5/1
f 11/4/1 7/4/1 10/4/1
f 12/5/1 8/5/1 11/5/1
f 13/5/1 11/5/1 10/5/1
f 14/5/1 11/5/1 13/5/1
f 20/5/1 16/5/1 15/5/1
f 21/2/1 17/2/1 16/2/1
f 21/5/1 16/5/1 20/5/1
f 22/3/1 18/3/1 17/3/1
f 22/2/1 17/2/1 21/2/1
f 23/3/1 18/3/1 22/3/1
f 24/4/1 20/4/1 19/4/1
f 25/5/1 21/5/1 20/5/1
f 25/4/1 20/4/1 24/4/1
f 26/4/1 22/4/1 21/4/1
f 26/5/1 21/5/1 25/5/1
f 27/5/1 23/5/1 22/5/1
f 27/4/1 22/4/1 26/4/1
f 28/5/1 23/5/1 27/5/1
f 29/4/1 28/4/1 27/4/1
f 30/5/1 23/5/1 28/5/1
f 30/4/1 28/4/1 29/4/1
f 31/5/1 23/5/1 30/5/1
f 32/5/1 25/5/1 24/5/1
f 32/4/1 26/4/1 25/4/1
f 33/4/1 26/4/1 32/4/1
f 34/4/1 31/4/1 30/4/1
f 35/4/1 31/4/1 34/4/1
f 36/5/1 32/5/1 24/5/1
f 37/5/1 32/5/1 36/5/1
f 40/5/1 35/5/1 34/5/1
f 41/4/1 38/4/1 37/4/1
f 42/4/1 38/4/1 41/4/1
f 43/4/1 40/4/1 39/4/1
f 44/5/1 35/5/1 40/5/1
f 44/4/1 40/4/1 43/4/1
f 45/5/1 35/5/1 44/5/1
f 46/5/1 43/5/1 42/5/1
f 47/4/1 44/4/1 43/4/1
f 47/5/1 43/5/1 46/5/1
f 48/4/1 44/4/1 47/4/1
f 52/5/1 50/5/1 49/5/1
f 53/4/1 51/4/1 50/4/1
f 53/5/1 50/5/1 52/5/1
f 54/4/1 51/4/1 53/4/1
f 59/5/1 56/5/1 55/5/1
f 60/5/1 56/5/1 59/5/1
f 61/5/1 58/5/1 57/5/1
f 62/5/1 58/5/1 61/5/1
f 63/4/1 60/4/1 59/4/1
f 64/4/1 60/4/1 63/4/1
f 65/4/1 62/4/1 61/4/1
f 66/4/1 62/4/1 65/4/1
f 67/5/1 64/5/1 63/5/1
f 68/5/1 64/5/1 67/5/1
f 69/5/1 66/5/1 65/5/1
f 70/5/1 66/5/1 69/5/1
f 72/4/1 68/4/1 67/4/1
f 73/4/1 68/4/1 72/4/1
f 74/4/1 71/4/1 70/4/1
f 75/4/1 71/4/1 74/4/1
f 78/5/1 73/5/1 72/5/1
f 79/5/1 73/5/1 78/5/1
f 80/5/1 76/5/1 75/5/1
f 81/5/1 76/5/1 80/5/1
f 82/4/1 78/4/1 77/4/1
f 83/4/1 78/4/1 82/4/1
f 86/5/1 85/5/1 84/5/1
f 87/5/1 85/5/1 86/5/1
f 90/5/1 89/5/1 88/5/1
f 91/5/1 89/5/1 90/5/1
f 92/4/1 91/4/1 90/4/1
f 93/4/1 91/4/1 92/4/1
f 94/5/1 93/5/1 92/5/1
f 95/5/1 93/5/1 94/5/1
f 98/5/1 97/5/1 96/5/1
f 99/5/1 97/5/1 98/5/1
f 102/4/1 101/4/1 100/4/1
f 103/4/1 101/4/1 102/4/1
f 104/5/1 103/5/1 102/5/1
f 105/5/1 103/5/1 104/5/1
f 106/5/1 105/5/1 104/5/1
f 107/5/1 105/5/1 106/5/1
f 108/4/2 109/4/2 110/4/2
f 110/4/2 109/4/2 111/4/2
f 110/5/2 111/5/2 112/5/2
f 112/5/2 111/5/2 113/5/2
f 112/5/2 113/5/2 114/5/2
f 114/5/2 113/5/2 115/5/2
f 116/5/2 117/5/2 118/5/2
f 118/5/2 117/5/2 119/5/2
f 120/5/2 121/5/2 122/5/2
f 122/5/2 121/5/2 123/5/2
f 124/5/2 125/5/2 126/5/2
f 126/5/2 125/5/2 127/5/2
f 126/4/2 127/4/2 128/4/2
f 128/4/2 127/4/2 129/4/2
f 128/5/2 129/5/2 130/5/2
f 130/5/2 129/5/2 131/5/2
f 132/5/2 133/5/2 135/5/2
f 133/4/2 134/4/2 136/4/2
f 135/5/2 133/5/2 136/5/2
f 136/4/2 134/4/2 137/4/2
f 138/5/2 139/5/2 142/5/2
f 142/5/2 139/5/2 143/5/2
f 140/5/2 141/5/2 144/5/2
f 144/5/2 141/5/2 145/5/2
f 142/4/2 143/4/2 146/4/2
f 146/4/2 143/4/2 147/4/2
f 144/4/2 145/4/2 148/4/2
f 148/4/2 145/4/2 149/4/2
f 146/5/2 147/5/2 150/5/2
f 150/5/2 147/5/2 151/5/2
f 148/5/2 149/5/2 152/5/2
f 152/5/2 149/5/2 153/5/2
f 150/4/2 151/4/2 155/4/2
f 155/4/2 151/4/2 156/4/2
f 153/4/2 154/4/2 157/4/2
f 157/4/2 154/4/2 158/4/2
f 155/5/2 156/5/2 161/5/2
f 161/5/2 156/5/2 162/5/2
f 158/5/2 159/5/2 163/5/2
f 163/5/2 159/5/2 164/5/2
f 160/4/2 161/4/2 165/4/2
f 165/4/2 161/4/2 166/4/2
f 167/5/2 168/5/2 172/5/2
f 168/2/2 169/2/2 173/2/2
f 172/5/2 168/5/2 173/5/2
f 169/3/2 170/3/2 174/3/2
f 173/2/2 169/2/2 174/2/2
f 174/3/2 170/3/2 175/3/2
f 171/4/2 172/4/2 176/4/2
f 172/5/2 173/5/2 177/5/2
f 176/4/2 172/4/2 177/4/2
f 173/4/2 174/4/2 178/4/2
f 177/5/2 173/5/2 178/5/2
f 174/5/2 175/5/2 179/5/2
f 178/4/2 174/4/2 179/4/2
f 179/5/2 175/5/2 180/5/2
f 179/4/2 180/4/2 181/4/2
f 180/5/2 175/5/2 182/5/2
f 181/4/2 180/4/2 182/4/2
f 182/5/2 175/5/2 183/5/2
f 176/5/2 177/5/2 184/5/2
f 177/4/2 178/4/2 184/4/2
f 184/4/2 178/4/2 185/4/2
f 182/4/2 183/4/2 186/4/2
f 186/4/2 183/4/2 187/4/2
f 176/5/2 184/5/2 188/5/2
f 188/5/2 184/5/2 189/5/2
f 186/5/2 187/5/2 192/5/2
f 189/4/2 190/4/2 193/4/2
f 193/4/2 190/4/2 194/4/2
f 191/4/2 192/4/2 195/4/2
f 192/5/2 187/5/2 196/5/2
f 195/4/2 192/4/2 196/4/2
f 196/5/2 187/5/2 197/5/2
f 194/5/2 195/5/2 198/5/2
f 195/4/2 196/4/2 199/4/2
f 198/5/2 195/5/2 199/5/2
f 199/4/2 196/4/2 200/4/2
f 201/5/2 202/5/2 203/5/2
f 201/5/2 203/5/2 206/5/2
f 203/4/2 204/4/2 207/4/2
f 206/5/2 203/5/2 207/5/2
f 207/4/2 204/4/2 208/4/2
f 205/5/2 206/5/2 209/5/2
f 206/4/2 207/4/2 210/4/2
f 209/5/2 206/5/2 210/5/2
f 207/5/2 208/5/2 211/5/2
f 210/4/2 207/4/2 211/4/2
f 211/5/2 208/5/2 212/5/2
f 210/5/2 211/5/2 213/5/2
f 213/5/2 211/5/2 214/5/2
f 221/5/3 216/5/3 215/5/3
f 222/5/3 216/5/3 221/5/3
f 223/5/3 218/5/3 217/5/3
f 224/4/3 219/4/3 218/4/3
f 224/5/3 218/5/3 223/5/3
f 225/5/3 220/5/3 219/5/3
f 225/4/3 219/4/3 224/4/3
f 226/5/3 220/5/3 225/5/3
f 227/4/3 222/4/3 221/4/3
f 228/5/3 223/5/3 222/5/3
f 228/4/3 222/4/3 227/4/3
f 229/5/3 223/5/3 228/5/3
f 230/5/3 225/5/3 224/5/3
f 231/4/3 226/4/3 225/4/3
f 231/5/3 225/5/3 230/5/3
f 232/4/3 226/4/3 231/4/3
f 233/5/3 228/5/3 227/5/3
f 234/5/3 228/5/3 233/5/3
f 235/5/3 230/5/3 229/5/3
f 236/4/3 231/4/3 230/4/3
f 236/5/3 230/5/3 235/5/3
f 237/5/3 232/5/3 231/5/3
f 237/4/3 231/4/3 236/4/3
f 238/5/3 232/5/3 237/5/3
f 242/4/3 240/4/3 239/4/3
f 243/5/3 241/5/3 240/5/3
f 243/4/3 240/4/3 242/4/3
f 244/5/3 241/5/3 243/5/3
f 245/5/3 241/5/3 244/5/3
f 246/5/3 241/5/3 245/5/3
f 248/4/3 247/4/3 246/4/3
f 249/4/3 247/4/3 248/4/3
f 250/5/3 249/5/3 248/5/3
f 251/5/3 249/5/3 250/5/3
f 256/4/3 251/4/3 250/4/3
f 257/4/3 251/4/3 256/4/3
f 258/4/3 253/4/3 252/4/3
f 259/5/3 255/5/3 254/5/3
f 259/4/3 253/4/3 258/4/3
f 259/5/3 254/5/3 253/5/3
f 259/5/3 256/5/3 255/5/3
f 260/5/3 256/5/3 259/5/3
f 265/5/3 262/5/3 261/5/3
f 266/5/3 262/5/3 265/5/3
f 268/5/3 264/5/3 263/5/3
f 269/5/3 264/5/3 268/5/3
f 273/4/3 267/4/3 266/4/3
f 274/4/3 267/4/3 273/4/3
f 276/1/3 270/1/3 269/1/3
f 277/6/3 271/6/3 270/6/3
f 277/1/3 270/1/3 276/1/3
f 278/4/3 272/4/3 271/4/3
f 278/6/3 271/6/3 277/6/3
f 279/5/3 275/5/3 274/5/3
f 280/5/3 275/5/3 279/5/3
f 281/1/3 277/1/3 276/1/3
f 281/1/3 278/1/3 277/1/3
f 282/1/3 278/1/3 281/1/3
f 283/4/3 272/4/3 278/4/3
f 283/1/3 278/1/3 282/1/3
f 284/4/3 280/4/3 279/4/3
f 285/4/3 280/4/3 284/4/3
f 287/1/3 282/1/3 281/1/3
f 288/6/3 283/6/3 282/6/3
f 288/1/3 282/1/3 287/1/3
f 289/4/3 272/4/3 283/4/3
f 289/6/3 283/6/3 288/6/3
f 290/4/3 272/4/3 289/4/3
f 292/5/3 285/5/3 284/5/3
f 293/5/3 285/5/3 292/5/3
f 294/5/3 287/5/3 286/5/3
f 295/5/3 287/5/3 294/5/3
f 297/4/3 292/4/3 291/4/3
f 298/4/3 292/4/3 297/4/3
f 299/5/3 297/5/3 296/5/3
f 300/5/3 297/5/3 299/5/3
f 305/5/3 302/5/3 301/5/3
f 306/5/3 302/5/3 305/5/3
f 307/5/3 304/5/3 303/5/3
f 308/5/3 304/5/3 307/5/3
f 310/5/3 309/5/3 308/5/3
f 311/5/3 309/5/3 310/5/3
f 317/5/3 313/5/3 312/5/3
f 318/5/3 313/5/3 317/5/3
f 319/5/3 315/5/3 314/5/3
f 320/5/3 315/5/3 319/5/3
f 321/5/3 317/5/3 316/5/3
f 322/5/3 317/5/3 321/5/3
f 323/5/4 324/5/4 327/5/4
f 324/4/4 325/4/4 328/4/4
f 327/5/4 324/5/4 328/5/4
f 328/4/4 325/4/4 329/4/4
f 326/5/4 327/5/4 330/5/4
f 330/5/4 327/5/4 331/5/4
f 328/5/4 329/5/4 332/5/4
f 332/5/4 329/5/4 333/5/4
f 331/5/4 332/5/4 334/5/4
f 332/4/4 333/4/4 335/4/4
f 334/5/4 332/5/4 335/5/4
f 335/4/4 333/4/4 336/4/4
f 337/5/4 338/5/4 341/5/4
f 341/5/4 338/5/4 342/5/4
f 339/5/4 340/5/4 343/5/4
f 343/5/4 340/5/4 344/5/4
f 345/5/4 346/5/4 349/5/4
f 349/5/4 346/5/4 350/5/4
f 347/5/4 348/5/4 351/5/4
f 351/5/4 348/5/4 352/5/4
f 353/4/4 354/4/4 356/4/4
f 354/5/4 355/5/4 357/5/4
f 356/4/4 354/4/4 357/4/4
f 357/5/4 355/5/4 358/5/4
f 359/4/4 360/4/4 361/4/4
f 361/4/4 360/4/4 362/4/4
f 363/4/4 364/4/4 368/4/4
f 368/4/4 364/4/4 369/4/4
f 365/4/4 366/4/4 370/4/4
f 366/5/4 367/5/4 371/5/4
f 370/4/4 366/4/4 371/4/4
f 371/5/4 367/5/4 372/5/4
f 373/3/4 374/3/4 378/3/4
f 374/5/4 375/5/4 379/5/4
f 378/3/4 374/3/4 379/3/4
f 379/5/4 375/5/4 380/5/4
f 375/4/4 376/4/4 381/4/4
f 380/5/4 375/5/4 381/5/4
f 376/5/4 377/5/4 382/5/4
f 381/4/4 376/4/4 382/4/4
f 382/5/4 377/5/4 383/5/4
f 383/5/4 377/5/4 384/5/4
f 378/2/4 379/2/4 386/2/4
f 386/2/4 379/2/4 387/2/4
f 384/4/4 385/4/4 388/4/4
f 388/4/4 385/4/4 389/4/4
f 386/3/4 387/3/4 390/3/4
f 390/3/4 387/3/4 391/3/4
f 388/5/4 389/5/4 392/5/4
f 392/5/4 389/5/4 393/5/4
f 390/2/4 391/2/4 394/2/4
f 394/2/4 391/2/4 395/2/4
f 392/4/4 393/4/4 400/4/4
f 400/4/4 393/4/4 401/4/4
f 394/3/4 395/3/4 402/3/4
f 395/5/4 396/5/4 403/5/4
f 402/3/4 395/3/4 403/3/4
f 396/5/4 397/5/4 403/5/4
f 397/4/4 398/4/4 404/4/4
f 403/5/4 397/5/4 404/5/4
f 398/5/4 399/5/4 405/5/4
f 404/4/4 398/4/4 405/4/4
f 399/5/4 400/5/4 405/5/4
f 405/5/4 400/5/4 406/5/4
f 407/5/4 408/5/4 413/5/4
f 408/4/4 409/4/4 414/4/4
f 413/5/4 408/5/4 414/5/4
f 409/5/4 410/5/4 415/5/4
f 414/4/4 409/4/4 415/4/4
f 410/4/4 411/4/4 416/4/4
f 415/5/4 410/5/4 416/5/4
f 411/5/4 412/5/4 417/5/4
f 416/4/4 411/4/4 417/4/4
f 417/5/4 412/5/4 418/5/4
f 413/4/4 414/4/4 419/4/4
f 419/4/4 414/4/4 420/4/4
f 417/4/4 418/4/4 423/4/4
f 423/4/4 418/4/4 424/4/4
f 419/5/4 420/5/4 425/5/4
f 420/4/4 421/4/4 426/4/4
f 425/5/4 420/5/4 426/5/4
f 421/5/4 422/5/4 427/5/4
f 426/4/4 421/4/4 427/4/4
f 422/4/4 423/4/4 428/4/4
f 427/5/4 422/5/4 428/5/4
f 423/5/4 424/5/4 429/5/4
f 428/4/4 423/4/4 429/4/4
f 429/5/4 424/5/4 430/5/4
f 431/5/4 432/5/4 435/5/4
f 432/4/4 433/4/4 436/4/4
f 435/5/4 432/5/4 436/5/4
f 433/5/4 434/5/4 437/5/4
f 436/4/4 433/4/4 437/4/4
f 437/5/4 434/5/4 438/5/4
f 443/5/5 440/5/5 439/5/5
f 444/4/5 441/4/5 440/4/5
f 444/5/5 440/5/5 443/5/5
f 445/5/5 442/5/5 441/5/5
f 445/4/5 441/4/5 444/4/5
f 446/5/5 442/5/5 445/5/5
f 448/4/5 444/4/5 443/4/5
f 449/5/5 445/5/5 444/5/5
f 449/4/5 444/4/5 448/4/5
f 450/4/5 446/4/5 445/4/5
f 450/5/5 445/5/5 449/5/5
f 451/4/5 446/4/5 450/4/5
f 453/5/5 448/5/5 447/5/5
f 454/4/5 451/4/5 450/4/5
f 454/5/5 448/5/5 453/5/5
f 454/4/5 449/4/5 448/4/5
f 454/4/5 450/4/5 449/4/5
f 455/5/5 452/5/5 451/5/5
f 455/4/5 451/4/5 454/4/5
f 456/5/5 452/5/5 455/5/5
f 457/2/5 454/2/5 453/2/5
f 458/4/5 455/4/5 454/4/5
f 458/2/5 454/2/5 457/2/5
f 459/2/5 456/2/5 455/2/5
f 459/4/5 455/4/5 458/4/5
f 460/2/5 456/2/5 459/2/5
f 461/3/5 458/3/5 457/3/5
f 461/4/5 459/4/5 458/4/5
f 462/4/5 459/4/5 461/4/5
f 463/4/5 459/4/5 462/4/5
f 464/3/5 460/3/5 459/3/5
f 464/4/5 459/4/5 463/4/5
f 465/3/5 461/3/5 457/3/5
f 466/2/5 462/2/5 461/2/5
f 466/3/5 461/3/5 465/3/5
f 467/3/5 463/3/5 462/3/5
f 467/2/5 462/2/5 466/2/5
f 468/2/5 464/2/5 463/2/5
f 468/3/5 463/3/5 467/3/5
f 469/3/5 460/3/5 464/3/5
f 469/2/5 464/2/5 468/2/5
f 470/3/5 460/3/5 469/3/5
f 475/4/5 472/4/5 471/4/5
f 476/4/5 472/4/5 475/4/5
f 477/4/5 474/4/5 473/4/5
f 478/4/5 474/4/5 477/4/5
f 483/5/5 480/5/5 479/5/5
f 484/4/5 481/4/5 480/4/5
f 484/5/5 480/5/5 483/5/5
f 485/5/5 482/5/5 481/5/5
f 485/4/5 481/4/5 484/4/5
f 486/5/5 482/5/5 485/5/5
f 491/5/5 488/5/5 487/5/5
f 492/5/5 488/5/5 491/5/5
f 493/5/5 490/5/5 489/5/5
f 494/5/5 490/5/5 493/5/5
f 499/5/5 496/5/5 495/5/5
f 500/5/5 496/5/5 499/5/5
f 501/5/5 498/5/5 497/5/5
f 502/5/5 498/5/5 501/5/5
f 505/5/5 504/5/5 503/5/5
f 506/5/5 504/5/5 505/5/5
f 509/5/5 508/5/5 507/5/5
f 510/5/5 508/5/5 509/5/5
f 515/4/5 512/4/5 511/4/5
f 516/4/5 512/4/5 515/4/5
f 517/4/5 514/4/5 513/4/5
f 518/4/5 514/4/5 517/4/5
f 525/4/5 520/4/5 519/4/5
f 525/4/5 521/4/5 520/4/5
f 525/4/5 522/4/5 521/4/5
f 526/4/5 522/4/5 525/4/5
f 529/5/5 524/5/5 523/5/5
f 530/5/5 524/5/5 529/5/5
f 531/5/5 528/5/5 527/5/5
f 532/5/5 528/5/5 531/5/5
f 533/5/6 534/5/6 537/5/6
f 537/5/6 534/5/6 538/5/6
f 535/5/6 536/5/6 539/5/6
f 539/5/6 536/5/6 540/5/6
f 537/4/6 538/4/6 541/4/6
f 538/5/6 539/5/6 542/5/6
f 541/4/6 538/4/6 542/4/6
f 539/4/6 540/4/6 543/4/6
f 542/5/6 539/5/6 543/5/6
f 543/4/6 540/4/6 544/4/6
f 545/5/6 546/5/6 547/5/6
f 547/5/6 546/5/6 548/5/6
f 549/5/6 550/5/6 554/5/6
f 550/4/6 551/4/6 555/4/6
f 554/5/6 550/5/6 555/5/6
f 551/5/6 552/5/6 556/5/6
f 555/4/6 551/4/6 556/4/6
f 556/5/6 552/5/6 557/5/6
f 553/5/6 554/5/6 560/5/6
f 560/5/6 554/5/6 561/5/6
f 557/5/6 558/5/6 562/5/6
f 562/5/6 558/5/6 563/5/6
f 559/5/6 560/5/6 565/5/6
f 565/5/6 560/5/6 566/5/6
f 563/5/6 564/5/6 567/5/6
f 567/5/6 564/5/6 568/5/6
f 569/5/6 570/5/6 573/5/6
f 573/5/6 570/5/6 574/5/6
f 571/5/6 572/5/6 575/5/6
f 575/5/6 572/5/6 576/5/6
f 577/5/6 578/5/6 579/5/6
f 579/5/6 578/5/6 580/5/6
f 581/4/6 582/4/6 586/4/6
f 582/5/6 583/5/6 587/5/6
f 586/4/6 582/4/6 587/4/6
f 583/4/6 584/4/6 588/4/6
f 587/5/6 583/5/6 588/5/6
f 588/4/6 584/4/6 589/4/6
f 585/4/6 586/4/6 592/4/6
f 592/4/6 586/4/6 593/4/6
f 589/4/6 590/4/6 594/4/6
f 594/4/6 590/4/6 595/4/6
f 591/5/6 592/5/6 597/5/6
f 597/5/6 592/5/6 598/5/6
f 595/5/6 596/5/6 599/5/6
f 599/5/6 596/5/6 600/5/6
f 601/5/6 602/5/6 605/5/6
f 605/5/6 602/5/6 606/5/6
f 603/5/6 604/5/6 609/5/6
f 609/5/6 604/5/6 610/5/6
f 606/5/6 607/5/6 611/5/6
f 607/4/6 608/4/6 612/4/6
f 611/5/6 607/5/6 612/5/6
f 608/5/6 609/5/6 613/5/6
f 612/4/6 608/4/6 613/4/6
f 613/5/6 609/5/6 614/5/6
f 615/5/6 616/5/6 620/5/6
f 616/4/6 617/4/6 621/4/6
f 620/5/6 616/5/6 621/5/6
f 617/5/6 618/5/6 622/5/6
f 621/4/6 617/4/6 622/4/6
f 622/5/6 618/5/6 623/5/6
f 619/5/6 620/5/6 625/5/6
f 620/4/6 621/4/6 626/4/6
f 625/5/6 620/5/6 626/5/6
f 621/5/6 622/5/6 627/5/6
f 626/4/6 621/4/6 627/4/6
f 622/4/6 623/4/6 628/4/6
f 627/5/6 622/5/6 628/5/6
f 623/5/6 624/5/6 629/5/6
f 628/4/6 623/4/6 629/4/6
f 629/5/6 624/5/6 630/5/6
f 625/4/6 626/4/6 631/4/6
f 626/5/6 627/5/6 632/5/6
f 631/4/6 626/4/6 632/4/6
f 627/4/6 628/4/6 633/4/6
f 632/5/6 627/5/6 633/5/6
f 628/5/6 629/5/6 634/5/6
f 633/4/6 628/4/6 634/4/6
f 629/4/6 630/4/6 635/4/6
f 634/5/6 629/5/6 635/5/6
f 635/4/6 630/4/6 636/4/6
f 632/4/6 633/4/6 637/4/6
f 633/5/6 634/5/6 638/5/6
f 637/4/6 633/4/6 638/4/6
f 634/4/6 635/4/6 639/4/6
f 638/5/6 634/5/6 639/5/6
f 639/4/6 635/4/6 640/4/6
